<svg xmlns="http://www.w3.org/2000/svg" version="1.1" xmlns:xlink="http://www.w3.org/1999/xlink" xmlns:svgjs="http://svgjs.com/svgjs" width="1440" height="448" preserveAspectRatio="none" viewBox="0 0 1440 448"><g mask="url(&quot;#SvgjsMask1694&quot;)" fill="none"><path d="M435 31L-473 30" stroke-width="8" stroke="url(#SvgjsLinearGradient1695)" stroke-linecap="round" class="Right"></path><path d="M83 338L1127 337" stroke-width="10" stroke="url(#SvgjsLinearGradient1695)" stroke-linecap="round" class="Right"></path><path d="M495 326L-75 325" stroke-width="8" stroke="url(#SvgjsLinearGradient1695)" stroke-linecap="round" class="Right"></path><path d="M1148 244L712 243" stroke-width="10" stroke="url(#SvgjsLinearGradient1695)" stroke-linecap="round" class="Right"></path><path d="M1355 312L330 311" stroke-width="6" stroke="url(#SvgjsLinearGradient1695)" stroke-linecap="round" class="Right"></path><path d="M1172 110L1858 109" stroke-width="10" stroke="url(#SvgjsLinearGradient1696)" stroke-linecap="round" class="Left"></path><path d="M509 130L26 129" stroke-width="8" stroke="url(#SvgjsLinearGradient1695)" stroke-linecap="round" class="Right"></path><path d="M113 207L-764 206" stroke-width="6" stroke="url(#SvgjsLinearGradient1696)" stroke-linecap="round" class="Left"></path><path d="M829 76L1816 75" stroke-width="6" stroke="url(#SvgjsLinearGradient1696)" stroke-linecap="round" class="Left"></path><path d="M953 410L173 409" stroke-width="10" stroke="url(#SvgjsLinearGradient1695)" stroke-linecap="round" class="Right"></path><path d="M1236 294L1892 293" stroke-width="8" stroke="url(#SvgjsLinearGradient1696)" stroke-linecap="round" class="Left"></path><path d="M1066 339L468 338" stroke-width="6" stroke="url(#SvgjsLinearGradient1695)" stroke-linecap="round" class="Right"></path></g><defs><mask id="SvgjsMask1694"><rect width="1440" height="448" fill="#ffffff"></rect></mask><linearGradient x1="0%" y1="0%" x2="100%" y2="0%" id="SvgjsLinearGradient1695"><stop stop-color="rgba(204, 170, 0, 0)" offset="0"></stop><stop stop-color="rgba(204, 170, 0, 0.12549019607843137)" offset="1"></stop></linearGradient><linearGradient x1="100%" y1="0%" x2="0%" y2="0%" id="SvgjsLinearGradient1696"><stop stop-color="rgba(204, 170, 0, 0)" offset="0"></stop><stop stop-color="rgba(204, 170, 0, 0.12549019607843137)" offset="1"></stop></linearGradient></defs></svg>