<svg xmlns="http://www.w3.org/2000/svg" version="1.1" xmlns:xlink="http://www.w3.org/1999/xlink" xmlns:svgjs="http://svgjs.com/svgjs" width="1440" height="448" preserveAspectRatio="none" viewBox="0 0 1440 448"><g mask="url(&quot;#SvgjsMask2474&quot;)" fill="none"><path d="M458 113L-459 112" stroke-width="6" stroke="url(#SvgjsLinearGradient2475)" stroke-linecap="round" class="Right"></path><path d="M463 283L-589 282" stroke-width="8" stroke="url(#SvgjsLinearGradient2476)" stroke-linecap="round" class="Left"></path><path d="M528 253L1078 252" stroke-width="8" stroke="url(#SvgjsLinearGradient2475)" stroke-linecap="round" class="Right"></path><path d="M505 121L1130 120" stroke-width="8" stroke="url(#SvgjsLinearGradient2475)" stroke-linecap="round" class="Right"></path><path d="M1301 254L2093 253" stroke-width="8" stroke="url(#SvgjsLinearGradient2475)" stroke-linecap="round" class="Right"></path><path d="M497 220L1369 219" stroke-width="10" stroke="url(#SvgjsLinearGradient2476)" stroke-linecap="round" class="Left"></path><path d="M1391 170L832 169" stroke-width="8" stroke="url(#SvgjsLinearGradient2475)" stroke-linecap="round" class="Right"></path><path d="M1069 280L100 279" stroke-width="10" stroke="url(#SvgjsLinearGradient2475)" stroke-linecap="round" class="Right"></path><path d="M471 205L-114 204" stroke-width="8" stroke="url(#SvgjsLinearGradient2475)" stroke-linecap="round" class="Right"></path><path d="M738 83L304 82" stroke-width="8" stroke="url(#SvgjsLinearGradient2475)" stroke-linecap="round" class="Right"></path><path d="M1438 27L954 26" stroke-width="8" stroke="url(#SvgjsLinearGradient2476)" stroke-linecap="round" class="Left"></path><path d="M7 409L574 408" stroke-width="10" stroke="url(#SvgjsLinearGradient2475)" stroke-linecap="round" class="Right"></path></g><defs><mask id="SvgjsMask2474"><rect width="1440" height="448" fill="#ffffff"></rect></mask><linearGradient x1="0%" y1="0%" x2="100%" y2="0%" id="SvgjsLinearGradient2475"><stop stop-color="rgba(255, 172, 77, 0)" offset="0"></stop><stop stop-color="rgba(255, 172, 77, 0.12549019607843137)" offset="1"></stop></linearGradient><linearGradient x1="100%" y1="0%" x2="0%" y2="0%" id="SvgjsLinearGradient2476"><stop stop-color="rgba(255, 172, 77, 0)" offset="0"></stop><stop stop-color="rgba(255, 172, 77, 0.12549019607843137)" offset="1"></stop></linearGradient></defs></svg>