<svg xmlns="http://www.w3.org/2000/svg" version="1.1" xmlns:xlink="http://www.w3.org/1999/xlink" xmlns:svgjs="http://svgjs.com/svgjs" width="1440" height="448" preserveAspectRatio="none" viewBox="0 0 1440 448"><g mask="url(&quot;#SvgjsMask1205&quot;)" fill="none"><path d="M359 117L1315 116" stroke-width="8" stroke="url(#SvgjsLinearGradient1206)" stroke-linecap="round" class="Left"></path><path d="M261 313L-579 312" stroke-width="10" stroke="url(#SvgjsLinearGradient1206)" stroke-linecap="round" class="Left"></path><path d="M637 94L1428 93" stroke-width="6" stroke="url(#SvgjsLinearGradient1207)" stroke-linecap="round" class="Right"></path><path d="M499 384L-82 383" stroke-width="6" stroke="url(#SvgjsLinearGradient1207)" stroke-linecap="round" class="Right"></path><path d="M1083 311L1676 310" stroke-width="8" stroke="url(#SvgjsLinearGradient1206)" stroke-linecap="round" class="Left"></path><path d="M861 303L136 302" stroke-width="6" stroke="url(#SvgjsLinearGradient1207)" stroke-linecap="round" class="Right"></path><path d="M123 116L781 115" stroke-width="10" stroke="url(#SvgjsLinearGradient1206)" stroke-linecap="round" class="Left"></path><path d="M552 300L69 299" stroke-width="10" stroke="url(#SvgjsLinearGradient1206)" stroke-linecap="round" class="Left"></path><path d="M200 212L-802 211" stroke-width="6" stroke="url(#SvgjsLinearGradient1207)" stroke-linecap="round" class="Right"></path><path d="M819 156L181 155" stroke-width="6" stroke="url(#SvgjsLinearGradient1207)" stroke-linecap="round" class="Right"></path><path d="M663 225L-142 224" stroke-width="8" stroke="url(#SvgjsLinearGradient1207)" stroke-linecap="round" class="Right"></path><path d="M950 186L1472 185" stroke-width="6" stroke="url(#SvgjsLinearGradient1206)" stroke-linecap="round" class="Left"></path></g><defs><mask id="SvgjsMask1205"><rect width="1440" height="448" fill="#ffffff"></rect></mask><linearGradient x1="100%" y1="0%" x2="0%" y2="0%" id="SvgjsLinearGradient1206"><stop stop-color="rgba(166, 163, 255, 0)" offset="0"></stop><stop stop-color="rgba(166, 163, 255, 0.25098039215686274)" offset="1"></stop></linearGradient><linearGradient x1="0%" y1="0%" x2="100%" y2="0%" id="SvgjsLinearGradient1207"><stop stop-color="rgba(166, 163, 255, 0)" offset="0"></stop><stop stop-color="rgba(166, 163, 255, 0.25098039215686274)" offset="1"></stop></linearGradient></defs></svg>