<svg xmlns="http://www.w3.org/2000/svg" version="1.1" xmlns:xlink="http://www.w3.org/1999/xlink" xmlns:svgjs="http://svgjs.com/svgjs" width="1440" height="448" preserveAspectRatio="none" viewBox="0 0 1440 448"><g mask="url(&quot;#SvgjsMask1280&quot;)" fill="none"><path d="M494 329L1103 328" stroke-width="10" stroke="url(#SvgjsLinearGradient1281)" stroke-linecap="round" class="Right"></path><path d="M1430 332L2103 331" stroke-width="10" stroke="url(#SvgjsLinearGradient1282)" stroke-linecap="round" class="Left"></path><path d="M230 291L-230 290" stroke-width="10" stroke="url(#SvgjsLinearGradient1282)" stroke-linecap="round" class="Left"></path><path d="M143 104L809 103" stroke-width="10" stroke="url(#SvgjsLinearGradient1282)" stroke-linecap="round" class="Left"></path><path d="M1009 90L1933 89" stroke-width="6" stroke="url(#SvgjsLinearGradient1282)" stroke-linecap="round" class="Left"></path><path d="M641 289L1167 288" stroke-width="8" stroke="url(#SvgjsLinearGradient1282)" stroke-linecap="round" class="Left"></path><path d="M926 435L1916 434" stroke-width="6" stroke="url(#SvgjsLinearGradient1281)" stroke-linecap="round" class="Right"></path><path d="M544 302L180 301" stroke-width="8" stroke="url(#SvgjsLinearGradient1282)" stroke-linecap="round" class="Left"></path><path d="M1212 176L764 175" stroke-width="8" stroke="url(#SvgjsLinearGradient1281)" stroke-linecap="round" class="Right"></path><path d="M1437 226L669 225" stroke-width="6" stroke="url(#SvgjsLinearGradient1282)" stroke-linecap="round" class="Left"></path><path d="M847 182L1471 181" stroke-width="8" stroke="url(#SvgjsLinearGradient1281)" stroke-linecap="round" class="Right"></path><path d="M1208 275L240 274" stroke-width="10" stroke="url(#SvgjsLinearGradient1281)" stroke-linecap="round" class="Right"></path></g><defs><mask id="SvgjsMask1280"><rect width="1440" height="448" fill="#ffffff"></rect></mask><linearGradient x1="0%" y1="0%" x2="100%" y2="0%" id="SvgjsLinearGradient1281"><stop stop-color="rgba(102, 184, 255, 0)" offset="0"></stop><stop stop-color="rgba(102, 184, 255, 0.25098039215686274)" offset="1"></stop></linearGradient><linearGradient x1="100%" y1="0%" x2="0%" y2="0%" id="SvgjsLinearGradient1282"><stop stop-color="rgba(102, 184, 255, 0)" offset="0"></stop><stop stop-color="rgba(102, 184, 255, 0.25098039215686274)" offset="1"></stop></linearGradient></defs></svg>