<svg xmlns="http://www.w3.org/2000/svg" version="1.1" xmlns:xlink="http://www.w3.org/1999/xlink" xmlns:svgjs="http://svgjs.com/svgjs" width="1440" height="448" preserveAspectRatio="none" viewBox="0 0 1440 448"><g mask="url(&quot;#SvgjsMask1688&quot;)" fill="none"><path d="M121 132L764 131" stroke-width="8" stroke="url(#SvgjsLinearGradient1689)" stroke-linecap="round" class="Left"></path><path d="M1086 324L437 323" stroke-width="10" stroke="url(#SvgjsLinearGradient1689)" stroke-linecap="round" class="Left"></path><path d="M1271 336L649 335" stroke-width="6" stroke="url(#SvgjsLinearGradient1690)" stroke-linecap="round" class="Right"></path><path d="M355 179L1214 178" stroke-width="6" stroke="url(#SvgjsLinearGradient1689)" stroke-linecap="round" class="Left"></path><path d="M149 109L765 108" stroke-width="6" stroke="url(#SvgjsLinearGradient1689)" stroke-linecap="round" class="Left"></path><path d="M329 222L1106 221" stroke-width="10" stroke="url(#SvgjsLinearGradient1690)" stroke-linecap="round" class="Right"></path><path d="M693 349L-22 348" stroke-width="6" stroke="url(#SvgjsLinearGradient1690)" stroke-linecap="round" class="Right"></path><path d="M808 48L-200 47" stroke-width="10" stroke="url(#SvgjsLinearGradient1689)" stroke-linecap="round" class="Left"></path><path d="M536 239L1246 238" stroke-width="8" stroke="url(#SvgjsLinearGradient1689)" stroke-linecap="round" class="Left"></path><path d="M1176 252L553 251" stroke-width="10" stroke="url(#SvgjsLinearGradient1690)" stroke-linecap="round" class="Right"></path><path d="M1226 34L1637 33" stroke-width="8" stroke="url(#SvgjsLinearGradient1689)" stroke-linecap="round" class="Left"></path><path d="M1117 107L321 106" stroke-width="10" stroke="url(#SvgjsLinearGradient1689)" stroke-linecap="round" class="Left"></path></g><defs><mask id="SvgjsMask1688"><rect width="1440" height="448" fill="#ffffff"></rect></mask><linearGradient x1="100%" y1="0%" x2="0%" y2="0%" id="SvgjsLinearGradient1689"><stop stop-color="rgba(108, 229, 182, 0)" offset="0"></stop><stop stop-color="rgba(108, 229, 182, 0.25098039215686274)" offset="1"></stop></linearGradient><linearGradient x1="0%" y1="0%" x2="100%" y2="0%" id="SvgjsLinearGradient1690"><stop stop-color="rgba(108, 229, 182, 0)" offset="0"></stop><stop stop-color="rgba(108, 229, 182, 0.25098039215686274)" offset="1"></stop></linearGradient></defs></svg>