<?xml version="1.0" encoding="iso-8859-1"?>
<!-- Generator: Adobe Illustrator 19.0.0, SVG Export Plug-In . SVG Version: 6.00 Build 0)  -->
<svg version="1.1" id="Layer_1" xmlns="http://www.w3.org/2000/svg" xmlns:xlink="http://www.w3.org/1999/xlink" x="0px"
	y="0px" viewBox="0 0 504 504" style="enable-background:new 0 0 504 504;" xml:space="preserve">
	<circle style="fill:#2cd896;" cx="252" cy="252" r="252" />
	<circle style="fill:#131746;" cx="252" cy="252" r="202.7" />
	<path style="fill:#FFFFFF;" d="M414.5,264.5c-6.9,0-12.5-5.6-12.5-12.5s5.6-12.5,12.5-12.5h14.6C423,151.4,352.6,81,264.5,74.8v14.6
	c0,6.9-5.6,12.5-12.5,12.5s-12.5-5.6-12.5-12.5V74.8C151.4,81,81,151.4,74.8,239.5h14.6c6.9,0,12.5,5.6,12.5,12.5
	s-5.6,12.5-12.5,12.5H74.8C81,352.6,151.4,423,239.5,429.2v-14.6c0-6.9,5.6-12.5,12.5-12.5s12.5,5.6,12.5,12.5v14.6
	c88.1-6.1,158.5-76.5,164.7-164.7H414.5z" />
	<g>
		<path style="fill:#ffd500;" d="M164.7,212.2c1.8-2.6,2.8-5.1,2.8-7.5s-0.8-4.5-2.4-6.1c-1.6-1.6-3.6-2.4-6.1-2.4
		c-4.6,0-8.9,3.3-13,9.8l-13-7.7c3.4-5.3,7.1-9.3,11.2-12c4.1-2.7,9.2-4.1,15.5-4.1s11.8,2,16.5,6s7.1,9.4,7.1,16.3
		c0,3.7-1,7.3-2.9,10.8c-1.9,3.4-5.4,7.8-10.6,13.2L156.7,242h28.7v14.6h-51.3v-12.1l21.3-21.8C159.8,218.3,162.9,214.8,164.7,212.2
		z" />
		<path style="fill:#ffd500;" d="M223.4,225.2v-12.7H239v12.7h8.2v14H239v17.4h-15.6v-17.4h-29.2v-12.4l25.9-43h17.7l-24.7,41.3h10.3
		V225.2z" />
	</g>
	<path style="fill:#FD8469;" d="M302.2,172.9H317l-43.7,95.4h-14.7L302.2,172.9z" />
	<path style="fill:#2cd896;" d="M328.8,207.2v-23.3h52.5v12.3l-29.4,60.4h-17.7l28.1-58.8H344v9.4H328.8z" />
	<g>
		<path style="fill:#131746;" d="M134.8,296.6c-0.9,0.7-1.4,1.7-1.4,3c0,1.2,0.6,2.2,1.7,2.9c1.1,0.7,3.7,1.6,7.7,2.6
		s7.2,2.5,9.4,4.5s3.3,4.9,3.3,8.7c0,3.8-1.4,6.9-4.3,9.3c-2.9,2.4-6.6,3.6-11.3,3.6c-6.7,0-12.8-2.5-18.2-7.5l5.7-6.9
		c4.6,4,8.8,6,12.7,6c1.7,0,3.1-0.4,4.1-1.1c1-0.8,1.5-1.8,1.5-3c0-1.3-0.5-2.3-1.6-3s-3.1-1.5-6.3-2.3c-4.9-1.2-8.6-2.7-10.9-4.6
		c-2.3-1.9-3.4-4.8-3.4-8.9c0-4,1.4-7.1,4.3-9.3c2.9-2.2,6.5-3.3,10.9-3.3c2.8,0,5.7,0.5,8.5,1.5s5.3,2.4,7.4,4.1l-4.8,6.9
		c-3.7-2.8-7.5-4.2-11.4-4.2C136.9,295.5,135.7,295.9,134.8,296.6z" />
		<path style="fill:#131746;"
			d="M193.9,288.2v8.4h-21.2v8.8h19v8.1h-19v8.8h21.8v8.4h-31.3v-42.5L193.9,288.2L193.9,288.2z" />
		<path style="fill:#131746;" d="M237.1,302.3c0,6.8-2.7,11.2-8.1,13.2l10.8,15.2h-11.7l-9.4-13.6h-6.6v13.6h-9.5v-42.5h16.1
		c6.6,0,11.3,1.1,14.1,3.3C235.7,293.7,237.1,297.3,237.1,302.3z M225.7,307.3c1.2-1.1,1.8-2.7,1.8-5s-0.6-3.9-1.8-4.7
		c-1.2-0.9-3.3-1.3-6.4-1.3h-7.1v12.6h6.9C222.3,308.9,224.5,308.4,225.7,307.3z" />
		<path style="fill:#131746;" d="M261.4,315.2l10.8-27.1h10.3l-17.1,42.5h-8l-17.1-42.5h10.3L261.4,315.2z" />
		<path style="fill:#131746;" d="M287.2,288.2h9.5v42.5h-9.5V288.2z" />
		<path style="fill:#131746;"
			d="M326.3,322.3c4.7,0,8.5-1.8,11.4-5.5l6.1,6.3c-4.8,5.4-10.5,8.1-17.1,8.1c-6.5,0-11.9-2.1-16.2-6.2
		c-4.2-4.1-6.4-9.4-6.4-15.7c0-6.3,2.2-11.6,6.5-15.8c4.3-4.2,9.6-6.3,15.8-6.3c7,0,12.8,2.7,17.5,8l-5.9,6.7
		c-3-3.7-6.7-5.6-11.2-5.6c-3.6,0-6.6,1.2-9.1,3.5s-3.8,5.5-3.8,9.4c0,4,1.2,7.1,3.6,9.5C320,321.1,322.9,322.3,326.3,322.3z" />
		<path style="fill:#131746;"
			d="M381.5,288.2v8.4h-21.2v8.8h19v8.1h-19v8.8h21.8v8.4h-31.3v-42.5L381.5,288.2L381.5,288.2z" />
	</g>
	<g>
	</g>
	<g>
	</g>
	<g>
	</g>
	<g>
	</g>
	<g>
	</g>
	<g>
	</g>
	<g>
	</g>
	<g>
	</g>
	<g>
	</g>
	<g>
	</g>
	<g>
	</g>
	<g>
	</g>
	<g>
	</g>
	<g>
	</g>
	<g>
	</g>
</svg>