<?xml version="1.0" ?><svg width="120px" height="120px" viewBox="0 0 120 120" id="Layer_1"
	style="enable-background:new 0 0 120 120;" version="1.1" xml:space="preserve" xmlns="http://www.w3.org/2000/svg"
	xmlns:xlink="http://www.w3.org/1999/xlink">

	<filter id="cal">
		<feDropShadow
			dx="2"
			dy="2"
			stdDeviation="0"
			flood-color= "#006dcc"
			flood-opacity="60%"
		/>
	</filter>

	<filter id="ring">
		<feDropShadow
			dx="1.5"
			dy="1.5"
			stdDeviation="0"
			flood-opacity="25%"
		/>
	</filter>

	<style type="text/css">
		.st0 {
			fill: #F9F8F2;
		}

		.st1 {
			fill: #2499ff;
		}

		.st2 {
			fill: #006dcc;
		}

		.st3 {
			fill: #f0f0f0;
		}
	</style>
	<g filter="url(#cal)">
		<path class="st0"
			d="M27.9,100.7h64.1c4.1,0,7.3-3.3,7.3-7.3V31.1c0-4.1-3.3-7.3-7.3-7.3H27.9c-4.1,0-7.3,3.3-7.3,7.3v62.2   C20.6,97.4,23.9,100.7,27.9,100.7z" />
		<path class="st1" d="M99.4,30.8v15.1H20.6V30.8c0-3.9,2.8-7,6.3-7h66.2C96.6,23.7,99.4,26.9,99.4,30.8z" />
		<g>
			<circle class="st2" cx="38.9" cy="34.8" r="3.6" />
			<circle class="st2" cx="60" cy="34.8" r="3.6" />
			<circle class="st2" cx="81.1" cy="34.8" r="3.6" />
		</g>
		<g filter="url(#ring)">
			<path class="st3"
				d="M39.9,19.3h-2c-0.6,0-1.1,0.5-1.1,1.1v13.9c0,0.6,0.5,1.1,1.1,1.1h2c0.6,0,1.1-0.5,1.1-1.1V20.5    C41.1,19.8,40.5,19.3,39.9,19.3z" />
			<path class="st3"
				d="M61,19.3h-2c-0.6,0-1.1,0.5-1.1,1.1v13.9c0,0.6,0.5,1.1,1.1,1.1h2c0.6,0,1.1-0.5,1.1-1.1V20.5    C62.1,19.8,61.6,19.3,61,19.3z" />
			<path class="st3"
				d="M82.1,19.3h-2c-0.6,0-1.1,0.5-1.1,1.1v13.9c0,0.6,0.5,1.1,1.1,1.1h2c0.6,0,1.1-0.5,1.1-1.1V20.5    C83.2,19.8,82.7,19.3,82.1,19.3z" />
		</g>
	</g>
</svg>