<svg xmlns="http://www.w3.org/2000/svg" version="1.1" xmlns:xlink="http://www.w3.org/1999/xlink"
  xmlns:svgjs="http://svgjs.com/svgjs" width="1440" height="560" preserveAspectRatio="none" viewBox="0 0 1440 560">
  <g mask="url(&quot;#SvgjsMask1140&quot;)" fill="none">
    <g mask="url(&quot;#SvgjsMask1141&quot;)">
      <path d="M820 420L820 540" stroke-width="6.67" stroke="#524dc080"></path>
      <path d="M810 420 a10 10 0 1 0 20 0 a10 10 0 1 0 -20 0zM810 540 a10 10 0 1 0 20 0 a10 10 0 1 0 -20 0z"
        fill="#524dc080"></path>
      <path d="M900 460L1020 340L1300 340L1420 460L1420 540" stroke-width="6.67" stroke="#524dc080"></path>
      <path d="M890 460 a10 10 0 1 0 20 0 a10 10 0 1 0 -20 0zM1410 540 a10 10 0 1 0 20 0 a10 10 0 1 0 -20 0z"
        fill="#524dc080"></path>
      <path d="M1020 20L1020 260L860 420L860 540" stroke-width="6.67" stroke="#524dc080"></path>
      <path d="M1010 20 a10 10 0 1 0 20 0 a10 10 0 1 0 -20 0zM850 540 a10 10 0 1 0 20 0 a10 10 0 1 0 -20 0z"
        fill="#524dc080"></path>
      <path d="M660 500L660 220L700 180L980 180" stroke-width="6.67" stroke="#524dc080"></path>
      <path d="M650 500 a10 10 0 1 0 20 0 a10 10 0 1 0 -20 0zM970 180 a10 10 0 1 0 20 0 a10 10 0 1 0 -20 0z"
        fill="#524dc080"></path>
      <path d="M60 260L20 300L20 540" stroke-width="6.67" stroke="#524dc080"></path>
      <path d="M50 260 a10 10 0 1 0 20 0 a10 10 0 1 0 -20 0zM10 540 a10 10 0 1 0 20 0 a10 10 0 1 0 -20 0z"
        fill="#524dc080"></path>
      <path d="M740 20L20 20" stroke-width="6.67" stroke="#524dc080"></path>
      <path d="M730 20 a10 10 0 1 0 20 0 a10 10 0 1 0 -20 0zM10 20 a10 10 0 1 0 20 0 a10 10 0 1 0 -20 0z"
        fill="#524dc080"></path>
      <path d="M500 300L620 420L620 540" stroke-width="6.67" stroke="#524dc080"></path>
      <path d="M490 300 a10 10 0 1 0 20 0 a10 10 0 1 0 -20 0zM610 540 a10 10 0 1 0 20 0 a10 10 0 1 0 -20 0z"
        fill="#524dc080"></path>
      <path d="M380 140L260 260L100 260L20 180L20 60" stroke-width="6.67" stroke="#524dc080"></path>
      <path d="M370 140 a10 10 0 1 0 20 0 a10 10 0 1 0 -20 0zM10 60 a10 10 0 1 0 20 0 a10 10 0 1 0 -20 0z"
        fill="#524dc080"></path>
      <path d="M60 540L540 60L620 60L700 140L820 140" stroke-width="6.67" stroke="#524dc080"></path>
      <path d="M50 540 a10 10 0 1 0 20 0 a10 10 0 1 0 -20 0zM810 140 a10 10 0 1 0 20 0 a10 10 0 1 0 -20 0z"
        fill="#524dc080"></path>
      <path d="M660 140L620 100L540 100L500 140L500 260L260 500L260 540" stroke-width="6.67" stroke="#524dc080"></path>
      <path d="M650 140 a10 10 0 1 0 20 0 a10 10 0 1 0 -20 0zM250 540 a10 10 0 1 0 20 0 a10 10 0 1 0 -20 0z"
        fill="#524dc080"></path>
      <path d="M140 100L60 180" stroke-width="6.67" stroke="#524dc080"></path>
      <path d="M130 100 a10 10 0 1 0 20 0 a10 10 0 1 0 -20 0zM50 180 a10 10 0 1 0 20 0 a10 10 0 1 0 -20 0z"
        fill="#524dc080"></path>
      <path d="M500 380L500 540" stroke-width="6.67" stroke="#524dc080"></path>
      <path d="M490 380 a10 10 0 1 0 20 0 a10 10 0 1 0 -20 0zM490 540 a10 10 0 1 0 20 0 a10 10 0 1 0 -20 0z"
        fill="#524dc080"></path>
      <path d="M260 380L460 180" stroke-width="6.67" stroke="#524dc080"></path>
      <path d="M250 380 a10 10 0 1 0 20 0 a10 10 0 1 0 -20 0zM450 180 a10 10 0 1 0 20 0 a10 10 0 1 0 -20 0z"
        fill="#524dc080"></path>
      <path d="M1260 420L1220 380L1100 380L940 540L900 540" stroke-width="6.67" stroke="#524dc080"></path>
      <path d="M1250 420 a10 10 0 1 0 20 0 a10 10 0 1 0 -20 0zM890 540 a10 10 0 1 0 20 0 a10 10 0 1 0 -20 0z"
        fill="#524dc080"></path>
      <path d="M900 20L900 140" stroke-width="6.67" stroke="#524dc080"></path>
      <path d="M890 20 a10 10 0 1 0 20 0 a10 10 0 1 0 -20 0zM890 140 a10 10 0 1 0 20 0 a10 10 0 1 0 -20 0z"
        fill="#524dc080"></path>
      <path d="M540 420L540 540" stroke-width="6.67" stroke="#524dc080"></path>
      <path d="M530 420 a10 10 0 1 0 20 0 a10 10 0 1 0 -20 0zM530 540 a10 10 0 1 0 20 0 a10 10 0 1 0 -20 0z"
        fill="#524dc080"></path>
      <path d="M1220 180L1220 20" stroke-width="6.67" stroke="#524dc080"></path>
      <path d="M1210 180 a10 10 0 1 0 20 0 a10 10 0 1 0 -20 0zM1210 20 a10 10 0 1 0 20 0 a10 10 0 1 0 -20 0z"
        fill="#524dc080"></path>
      <path d="M1340 340L1420 340" stroke-width="6.67" stroke="#524dc080"></path>
      <path d="M1330 340 a10 10 0 1 0 20 0 a10 10 0 1 0 -20 0zM1410 340 a10 10 0 1 0 20 0 a10 10 0 1 0 -20 0z"
        fill="#524dc080"></path>
      <path d="M1100 260L1060 260L1020 300" stroke-width="6.67" stroke="#524dc080"></path>
      <path d="M1090 260 a10 10 0 1 0 20 0 a10 10 0 1 0 -20 0zM1010 300 a10 10 0 1 0 20 0 a10 10 0 1 0 -20 0z"
        fill="#524dc080"></path>
      <path d="M420 100L180 100L100 180L100 220" stroke-width="6.67" stroke="#524dc080"></path>
      <path d="M410 100 a10 10 0 1 0 20 0 a10 10 0 1 0 -20 0zM90 220 a10 10 0 1 0 20 0 a10 10 0 1 0 -20 0z"
        fill="#524dc080"></path>
      <path d="M980 420L900 500" stroke-width="6.67" stroke="#524dc080"></path>
      <path d="M970 420 a10 10 0 1 0 20 0 a10 10 0 1 0 -20 0zM890 500 a10 10 0 1 0 20 0 a10 10 0 1 0 -20 0z"
        fill="#524dc080"></path>
      <path d="M340 500L460 500" stroke-width="6.67" stroke="#524dc080"></path>
      <path d="M330 500 a10 10 0 1 0 20 0 a10 10 0 1 0 -20 0zM450 500 a10 10 0 1 0 20 0 a10 10 0 1 0 -20 0z"
        fill="#524dc080"></path>
      <path d="M1340 300L1420 300" stroke-width="6.67" stroke="#524dc080"></path>
      <path d="M1330 300 a10 10 0 1 0 20 0 a10 10 0 1 0 -20 0zM1410 300 a10 10 0 1 0 20 0 a10 10 0 1 0 -20 0z"
        fill="#524dc080"></path>
      <path d="M1260 60L1260 300" stroke-width="6.67" stroke="#524dc080"></path>
      <path d="M1250 60 a10 10 0 1 0 20 0 a10 10 0 1 0 -20 0zM1250 300 a10 10 0 1 0 20 0 a10 10 0 1 0 -20 0z"
        fill="#524dc080"></path>
      <path d="M100 340L140 300L180 300L220 340" stroke-width="6.67" stroke="#524dc080"></path>
      <path d="M90 340 a10 10 0 1 0 20 0 a10 10 0 1 0 -20 0zM210 340 a10 10 0 1 0 20 0 a10 10 0 1 0 -20 0z"
        fill="#524dc080"></path>
      <path d="M1420 260L1300 260" stroke-width="6.67" stroke="#524dc080"></path>
      <path d="M1410 260 a10 10 0 1 0 20 0 a10 10 0 1 0 -20 0zM1290 260 a10 10 0 1 0 20 0 a10 10 0 1 0 -20 0z"
        fill="#524dc080"></path>
      <path d="M780 500L700 500L660 540" stroke-width="6.67" stroke="#524dc080"></path>
      <path d="M770 500 a10 10 0 1 0 20 0 a10 10 0 1 0 -20 0zM650 540 a10 10 0 1 0 20 0 a10 10 0 1 0 -20 0z"
        fill="#524dc080"></path>
      <path d="M1220 260L1140 260L1060 180L1060 20" stroke-width="6.67" stroke="#524dc080"></path>
      <path d="M1210 260 a10 10 0 1 0 20 0 a10 10 0 1 0 -20 0zM1050 20 a10 10 0 1 0 20 0 a10 10 0 1 0 -20 0z"
        fill="#524dc080"></path>
      <path d="M820 340L900 340L980 260L980 220" stroke-width="6.67" stroke="#524dc080"></path>
      <path d="M810 340 a10 10 0 1 0 20 0 a10 10 0 1 0 -20 0zM970 220 a10 10 0 1 0 20 0 a10 10 0 1 0 -20 0z"
        fill="#524dc080"></path>
      <path d="M1300 60L1300 220" stroke-width="6.67" stroke="#524dc080"></path>
      <path d="M1290 60 a10 10 0 1 0 20 0 a10 10 0 1 0 -20 0zM1290 220 a10 10 0 1 0 20 0 a10 10 0 1 0 -20 0z"
        fill="#524dc080"></path>
      <path d="M1380 100L1380 220" stroke-width="6.67" stroke="#524dc080"></path>
      <path d="M1370 100 a10 10 0 1 0 20 0 a10 10 0 1 0 -20 0zM1370 220 a10 10 0 1 0 20 0 a10 10 0 1 0 -20 0z"
        fill="#524dc080"></path>
      <path d="M420 300L180 540L100 540" stroke-width="6.67" stroke="#524dc080"></path>
      <path d="M410 300 a10 10 0 1 0 20 0 a10 10 0 1 0 -20 0zM90 540 a10 10 0 1 0 20 0 a10 10 0 1 0 -20 0z"
        fill="#524dc080"></path>
      <path d="M620 260L540 180L540 140" stroke-width="6.67" stroke="#524dc080"></path>
      <path d="M610 260 a10 10 0 1 0 20 0 a10 10 0 1 0 -20 0zM530 140 a10 10 0 1 0 20 0 a10 10 0 1 0 -20 0z"
        fill="#524dc080"></path>
      <path d="M700 100L780 20L820 20L860 60L860 140" stroke-width="6.67" stroke="#524dc080"></path>
      <path d="M690 100 a10 10 0 1 0 20 0 a10 10 0 1 0 -20 0zM850 140 a10 10 0 1 0 20 0 a10 10 0 1 0 -20 0z"
        fill="#524dc080"></path>
      <path d="M700 260L700 460" stroke-width="6.67" stroke="#524dc080"></path>
      <path d="M690 260 a10 10 0 1 0 20 0 a10 10 0 1 0 -20 0zM690 460 a10 10 0 1 0 20 0 a10 10 0 1 0 -20 0z"
        fill="#524dc080"></path>
      <path d="M140 380L60 460L60 500" stroke-width="6.67" stroke="#524dc080"></path>
      <path d="M130 380 a10 10 0 1 0 20 0 a10 10 0 1 0 -20 0zM50 500 a10 10 0 1 0 20 0 a10 10 0 1 0 -20 0z"
        fill="#524dc080"></path>
      <path d="M460 420L460 340" stroke-width="6.67" stroke="#524dc080"></path>
      <path d="M450 420 a10 10 0 1 0 20 0 a10 10 0 1 0 -20 0zM450 340 a10 10 0 1 0 20 0 a10 10 0 1 0 -20 0z"
        fill="#524dc080"></path>
      <path d="M780 300L780 460" stroke-width="6.67" stroke="#524dc080"></path>
      <path d="M770 300 a10 10 0 1 0 20 0 a10 10 0 1 0 -20 0zM770 460 a10 10 0 1 0 20 0 a10 10 0 1 0 -20 0z"
        fill="#524dc080"></path>
      <path d="M1180 100L1180 20" stroke-width="6.67" stroke="#524dc080"></path>
      <path d="M1170 100 a10 10 0 1 0 20 0 a10 10 0 1 0 -20 0zM1170 20 a10 10 0 1 0 20 0 a10 10 0 1 0 -20 0z"
        fill="#524dc080"></path>
      <path d="M180 140L220 180L220 220" stroke-width="6.67" stroke="#524dc080"></path>
      <path d="M170 140 a10 10 0 1 0 20 0 a10 10 0 1 0 -20 0zM210 220 a10 10 0 1 0 20 0 a10 10 0 1 0 -20 0z"
        fill="#524dc080"></path>
      <path d="M140 60L500 60" stroke-width="6.67" stroke="#524dc080"></path>
      <path d="M130 60 a10 10 0 1 0 20 0 a10 10 0 1 0 -20 0zM490 60 a10 10 0 1 0 20 0 a10 10 0 1 0 -20 0z"
        fill="#524dc080"></path>
      <path d="M580 540L580 420" stroke-width="6.67" stroke="#524dc080"></path>
      <path d="M570 540 a10 10 0 1 0 20 0 a10 10 0 1 0 -20 0zM570 420 a10 10 0 1 0 20 0 a10 10 0 1 0 -20 0z"
        fill="#524dc080"></path>
      <path d="M1180 180L1100 100L1100 60" stroke-width="6.67" stroke="#524dc080"></path>
      <path d="M1170 180 a10 10 0 1 0 20 0 a10 10 0 1 0 -20 0zM1090 60 a10 10 0 1 0 20 0 a10 10 0 1 0 -20 0z"
        fill="#524dc080"></path>
      <path d="M580 300L580 260L540 220" stroke-width="6.67" stroke="#524dc080"></path>
      <path d="M570 300 a10 10 0 1 0 20 0 a10 10 0 1 0 -20 0zM530 220 a10 10 0 1 0 20 0 a10 10 0 1 0 -20 0z"
        fill="#524dc080"></path>
      <path d="M780 260L740 260L700 220" stroke-width="6.67" stroke="#524dc080"></path>
      <path d="M770 260 a10 10 0 1 0 20 0 a10 10 0 1 0 -20 0zM690 220 a10 10 0 1 0 20 0 a10 10 0 1 0 -20 0z"
        fill="#524dc080"></path>
      <path d="M1300 460L1060 460L980 540" stroke-width="6.67" stroke="#524dc080"></path>
      <path d="M1290 460 a10 10 0 1 0 20 0 a10 10 0 1 0 -20 0zM970 540 a10 10 0 1 0 20 0 a10 10 0 1 0 -20 0z"
        fill="#524dc080"></path>
      <path d="M900 260L860 260L820 300" stroke-width="6.67" stroke="#524dc080"></path>
      <path d="M890 260 a10 10 0 1 0 20 0 a10 10 0 1 0 -20 0zM810 300 a10 10 0 1 0 20 0 a10 10 0 1 0 -20 0z"
        fill="#524dc080"></path>
      <path d="M1300 380L1380 460L1380 540" stroke-width="6.67" stroke="#524dc080"></path>
      <path d="M1290 380 a10 10 0 1 0 20 0 a10 10 0 1 0 -20 0zM1370 540 a10 10 0 1 0 20 0 a10 10 0 1 0 -20 0z"
        fill="#524dc080"></path>
      <path d="M1260 540L1340 460" stroke-width="6.67" stroke="#524dc080"></path>
      <path d="M1250 540 a10 10 0 1 0 20 0 a10 10 0 1 0 -20 0zM1330 460 a10 10 0 1 0 20 0 a10 10 0 1 0 -20 0z"
        fill="#524dc080"></path>
      <path d="M460 460L340 460" stroke-width="6.67" stroke="#524dc080"></path>
      <path d="M450 460 a10 10 0 1 0 20 0 a10 10 0 1 0 -20 0zM330 460 a10 10 0 1 0 20 0 a10 10 0 1 0 -20 0z"
        fill="#524dc080"></path>
      <path d="M580 140L620 180L660 180" stroke-width="6.67" stroke="#524dc080"></path>
      <path d="M570 140 a10 10 0 1 0 20 0 a10 10 0 1 0 -20 0zM650 180 a10 10 0 1 0 20 0 a10 10 0 1 0 -20 0z"
        fill="#524dc080"></path>
      <path d="M300 540L460 540" stroke-width="6.67" stroke="#524dc080"></path>
      <path d="M290 540 a10 10 0 1 0 20 0 a10 10 0 1 0 -20 0zM450 540 a10 10 0 1 0 20 0 a10 10 0 1 0 -20 0z"
        fill="#524dc080"></path>
      <path d="M1180 300L1060 300" stroke-width="6.67" stroke="#524dc080"></path>
      <path d="M1170 300 a10 10 0 1 0 20 0 a10 10 0 1 0 -20 0zM1050 300 a10 10 0 1 0 20 0 a10 10 0 1 0 -20 0z"
        fill="#524dc080"></path>
      <path d="M1220 420L1100 420" stroke-width="6.67" stroke="#524dc080"></path>
      <path d="M1210 420 a10 10 0 1 0 20 0 a10 10 0 1 0 -20 0zM1090 420 a10 10 0 1 0 20 0 a10 10 0 1 0 -20 0z"
        fill="#524dc080"></path>
      <path d="M1140 220L1220 220" stroke-width="6.67" stroke="#524dc080"></path>
      <path d="M1130 220 a10 10 0 1 0 20 0 a10 10 0 1 0 -20 0zM1210 220 a10 10 0 1 0 20 0 a10 10 0 1 0 -20 0z"
        fill="#524dc080"></path>
    </g>
  </g>
  <defs>
    <mask id="SvgjsMask1140">
      <rect width="1440" height="560" fill="#ffffff"></rect>
    </mask>
    <mask id="SvgjsMask1141">
      <rect width="1440" height="560" fill="white"></rect>
      <path d="M815 420 a5 5 0 1 0 10 0 a5 5 0 1 0 -10 0zM815 540 a5 5 0 1 0 10 0 a5 5 0 1 0 -10 0z" fill="black">
      </path>
      <path d="M895 460 a5 5 0 1 0 10 0 a5 5 0 1 0 -10 0zM1415 540 a5 5 0 1 0 10 0 a5 5 0 1 0 -10 0z" fill="black">
      </path>
      <path d="M1015 20 a5 5 0 1 0 10 0 a5 5 0 1 0 -10 0zM855 540 a5 5 0 1 0 10 0 a5 5 0 1 0 -10 0z" fill="black">
      </path>
      <path d="M655 500 a5 5 0 1 0 10 0 a5 5 0 1 0 -10 0zM975 180 a5 5 0 1 0 10 0 a5 5 0 1 0 -10 0z" fill="black">
      </path>
      <path d="M55 260 a5 5 0 1 0 10 0 a5 5 0 1 0 -10 0zM15 540 a5 5 0 1 0 10 0 a5 5 0 1 0 -10 0z" fill="black"></path>
      <path d="M735 20 a5 5 0 1 0 10 0 a5 5 0 1 0 -10 0zM15 20 a5 5 0 1 0 10 0 a5 5 0 1 0 -10 0z" fill="black"></path>
      <path d="M495 300 a5 5 0 1 0 10 0 a5 5 0 1 0 -10 0zM615 540 a5 5 0 1 0 10 0 a5 5 0 1 0 -10 0z" fill="black">
      </path>
      <path d="M375 140 a5 5 0 1 0 10 0 a5 5 0 1 0 -10 0zM15 60 a5 5 0 1 0 10 0 a5 5 0 1 0 -10 0z" fill="black"></path>
      <path d="M55 540 a5 5 0 1 0 10 0 a5 5 0 1 0 -10 0zM815 140 a5 5 0 1 0 10 0 a5 5 0 1 0 -10 0z" fill="black"></path>
      <path d="M655 140 a5 5 0 1 0 10 0 a5 5 0 1 0 -10 0zM255 540 a5 5 0 1 0 10 0 a5 5 0 1 0 -10 0z" fill="black">
      </path>
      <path d="M135 100 a5 5 0 1 0 10 0 a5 5 0 1 0 -10 0zM55 180 a5 5 0 1 0 10 0 a5 5 0 1 0 -10 0z" fill="black"></path>
      <path d="M495 380 a5 5 0 1 0 10 0 a5 5 0 1 0 -10 0zM495 540 a5 5 0 1 0 10 0 a5 5 0 1 0 -10 0z" fill="black">
      </path>
      <path d="M255 380 a5 5 0 1 0 10 0 a5 5 0 1 0 -10 0zM455 180 a5 5 0 1 0 10 0 a5 5 0 1 0 -10 0z" fill="black">
      </path>
      <path d="M1255 420 a5 5 0 1 0 10 0 a5 5 0 1 0 -10 0zM895 540 a5 5 0 1 0 10 0 a5 5 0 1 0 -10 0z" fill="black">
      </path>
      <path d="M895 20 a5 5 0 1 0 10 0 a5 5 0 1 0 -10 0zM895 140 a5 5 0 1 0 10 0 a5 5 0 1 0 -10 0z" fill="black"></path>
      <path d="M535 420 a5 5 0 1 0 10 0 a5 5 0 1 0 -10 0zM535 540 a5 5 0 1 0 10 0 a5 5 0 1 0 -10 0z" fill="black">
      </path>
      <path d="M1215 180 a5 5 0 1 0 10 0 a5 5 0 1 0 -10 0zM1215 20 a5 5 0 1 0 10 0 a5 5 0 1 0 -10 0z" fill="black">
      </path>
      <path d="M1335 340 a5 5 0 1 0 10 0 a5 5 0 1 0 -10 0zM1415 340 a5 5 0 1 0 10 0 a5 5 0 1 0 -10 0z" fill="black">
      </path>
      <path d="M1095 260 a5 5 0 1 0 10 0 a5 5 0 1 0 -10 0zM1015 300 a5 5 0 1 0 10 0 a5 5 0 1 0 -10 0z" fill="black">
      </path>
      <path d="M415 100 a5 5 0 1 0 10 0 a5 5 0 1 0 -10 0zM95 220 a5 5 0 1 0 10 0 a5 5 0 1 0 -10 0z" fill="black"></path>
      <path d="M975 420 a5 5 0 1 0 10 0 a5 5 0 1 0 -10 0zM895 500 a5 5 0 1 0 10 0 a5 5 0 1 0 -10 0z" fill="black">
      </path>
      <path d="M335 500 a5 5 0 1 0 10 0 a5 5 0 1 0 -10 0zM455 500 a5 5 0 1 0 10 0 a5 5 0 1 0 -10 0z" fill="black">
      </path>
      <path d="M1335 300 a5 5 0 1 0 10 0 a5 5 0 1 0 -10 0zM1415 300 a5 5 0 1 0 10 0 a5 5 0 1 0 -10 0z" fill="black">
      </path>
      <path d="M1255 60 a5 5 0 1 0 10 0 a5 5 0 1 0 -10 0zM1255 300 a5 5 0 1 0 10 0 a5 5 0 1 0 -10 0z" fill="black">
      </path>
      <path d="M95 340 a5 5 0 1 0 10 0 a5 5 0 1 0 -10 0zM215 340 a5 5 0 1 0 10 0 a5 5 0 1 0 -10 0z" fill="black"></path>
      <path d="M1415 260 a5 5 0 1 0 10 0 a5 5 0 1 0 -10 0zM1295 260 a5 5 0 1 0 10 0 a5 5 0 1 0 -10 0z" fill="black">
      </path>
      <path d="M775 500 a5 5 0 1 0 10 0 a5 5 0 1 0 -10 0zM655 540 a5 5 0 1 0 10 0 a5 5 0 1 0 -10 0z" fill="black">
      </path>
      <path d="M1215 260 a5 5 0 1 0 10 0 a5 5 0 1 0 -10 0zM1055 20 a5 5 0 1 0 10 0 a5 5 0 1 0 -10 0z" fill="black">
      </path>
      <path d="M815 340 a5 5 0 1 0 10 0 a5 5 0 1 0 -10 0zM975 220 a5 5 0 1 0 10 0 a5 5 0 1 0 -10 0z" fill="black">
      </path>
      <path d="M1295 60 a5 5 0 1 0 10 0 a5 5 0 1 0 -10 0zM1295 220 a5 5 0 1 0 10 0 a5 5 0 1 0 -10 0z" fill="black">
      </path>
      <path d="M1375 100 a5 5 0 1 0 10 0 a5 5 0 1 0 -10 0zM1375 220 a5 5 0 1 0 10 0 a5 5 0 1 0 -10 0z" fill="black">
      </path>
      <path d="M415 300 a5 5 0 1 0 10 0 a5 5 0 1 0 -10 0zM95 540 a5 5 0 1 0 10 0 a5 5 0 1 0 -10 0z" fill="black"></path>
      <path d="M615 260 a5 5 0 1 0 10 0 a5 5 0 1 0 -10 0zM535 140 a5 5 0 1 0 10 0 a5 5 0 1 0 -10 0z" fill="black">
      </path>
      <path d="M695 100 a5 5 0 1 0 10 0 a5 5 0 1 0 -10 0zM855 140 a5 5 0 1 0 10 0 a5 5 0 1 0 -10 0z" fill="black">
      </path>
      <path d="M695 260 a5 5 0 1 0 10 0 a5 5 0 1 0 -10 0zM695 460 a5 5 0 1 0 10 0 a5 5 0 1 0 -10 0z" fill="black">
      </path>
      <path d="M135 380 a5 5 0 1 0 10 0 a5 5 0 1 0 -10 0zM55 500 a5 5 0 1 0 10 0 a5 5 0 1 0 -10 0z" fill="black"></path>
      <path d="M455 420 a5 5 0 1 0 10 0 a5 5 0 1 0 -10 0zM455 340 a5 5 0 1 0 10 0 a5 5 0 1 0 -10 0z" fill="black">
      </path>
      <path d="M775 300 a5 5 0 1 0 10 0 a5 5 0 1 0 -10 0zM775 460 a5 5 0 1 0 10 0 a5 5 0 1 0 -10 0z" fill="black">
      </path>
      <path d="M1175 100 a5 5 0 1 0 10 0 a5 5 0 1 0 -10 0zM1175 20 a5 5 0 1 0 10 0 a5 5 0 1 0 -10 0z" fill="black">
      </path>
      <path d="M175 140 a5 5 0 1 0 10 0 a5 5 0 1 0 -10 0zM215 220 a5 5 0 1 0 10 0 a5 5 0 1 0 -10 0z" fill="black">
      </path>
      <path d="M135 60 a5 5 0 1 0 10 0 a5 5 0 1 0 -10 0zM495 60 a5 5 0 1 0 10 0 a5 5 0 1 0 -10 0z" fill="black"></path>
      <path d="M575 540 a5 5 0 1 0 10 0 a5 5 0 1 0 -10 0zM575 420 a5 5 0 1 0 10 0 a5 5 0 1 0 -10 0z" fill="black">
      </path>
      <path d="M1175 180 a5 5 0 1 0 10 0 a5 5 0 1 0 -10 0zM1095 60 a5 5 0 1 0 10 0 a5 5 0 1 0 -10 0z" fill="black">
      </path>
      <path d="M575 300 a5 5 0 1 0 10 0 a5 5 0 1 0 -10 0zM535 220 a5 5 0 1 0 10 0 a5 5 0 1 0 -10 0z" fill="black">
      </path>
      <path d="M775 260 a5 5 0 1 0 10 0 a5 5 0 1 0 -10 0zM695 220 a5 5 0 1 0 10 0 a5 5 0 1 0 -10 0z" fill="black">
      </path>
      <path d="M1295 460 a5 5 0 1 0 10 0 a5 5 0 1 0 -10 0zM975 540 a5 5 0 1 0 10 0 a5 5 0 1 0 -10 0z" fill="black">
      </path>
      <path d="M895 260 a5 5 0 1 0 10 0 a5 5 0 1 0 -10 0zM815 300 a5 5 0 1 0 10 0 a5 5 0 1 0 -10 0z" fill="black">
      </path>
      <path d="M1295 380 a5 5 0 1 0 10 0 a5 5 0 1 0 -10 0zM1375 540 a5 5 0 1 0 10 0 a5 5 0 1 0 -10 0z" fill="black">
      </path>
      <path d="M1255 540 a5 5 0 1 0 10 0 a5 5 0 1 0 -10 0zM1335 460 a5 5 0 1 0 10 0 a5 5 0 1 0 -10 0z" fill="black">
      </path>
      <path d="M455 460 a5 5 0 1 0 10 0 a5 5 0 1 0 -10 0zM335 460 a5 5 0 1 0 10 0 a5 5 0 1 0 -10 0z" fill="black">
      </path>
      <path d="M575 140 a5 5 0 1 0 10 0 a5 5 0 1 0 -10 0zM655 180 a5 5 0 1 0 10 0 a5 5 0 1 0 -10 0z" fill="black">
      </path>
      <path d="M295 540 a5 5 0 1 0 10 0 a5 5 0 1 0 -10 0zM455 540 a5 5 0 1 0 10 0 a5 5 0 1 0 -10 0z" fill="black">
      </path>
      <path d="M1175 300 a5 5 0 1 0 10 0 a5 5 0 1 0 -10 0zM1055 300 a5 5 0 1 0 10 0 a5 5 0 1 0 -10 0z" fill="black">
      </path>
      <path d="M1215 420 a5 5 0 1 0 10 0 a5 5 0 1 0 -10 0zM1095 420 a5 5 0 1 0 10 0 a5 5 0 1 0 -10 0z" fill="black">
      </path>
      <path d="M1135 220 a5 5 0 1 0 10 0 a5 5 0 1 0 -10 0zM1215 220 a5 5 0 1 0 10 0 a5 5 0 1 0 -10 0z" fill="black">
      </path>
    </mask>
  </defs>
</svg>