<?xml version="1.0" encoding="iso-8859-1"?>
<!-- Generator: Adobe Illustrator 19.0.0, SVG Export Plug-In . SVG Version: 6.00 Build 0)  -->
<svg version="1.1" id="Layer_1" xmlns="http://www.w3.org/2000/svg" xmlns:xlink="http://www.w3.org/1999/xlink" x="0px"
	y="0px" viewBox="0 0 512 512" style="enable-background:new 0 0 512 512;" xml:space="preserve">
	<path style="fill:#534ec1;" d="M437.02,74.98C388.667,26.628,324.25,0,255.87,0S123.333,26.628,74.98,74.98
	C26.628,123.333,0,187.62,0,256s26.628,132.667,74.98,181.02C123.333,485.372,187.49,512,255.87,512s132.797-26.628,181.15-74.98
	C485.372,388.667,512,324.38,512,256S485.372,123.333,437.02,74.98z" />
	<path style="fill:#8480ff;" d="M255.87,0.003C187.58,0.067,123.275,26.686,74.98,74.98C26.628,123.333,0,187.62,0,256
	s26.628,132.667,74.98,181.02c48.295,48.294,112.6,74.915,180.89,74.978V0.003z" />
	<path style="fill:#8480ff;" d="M398.454,113.546c-38.051-38.052-88.772-59.007-142.584-59.007s-104.273,20.955-142.325,59.007
	C75.494,151.597,54.539,202.188,54.539,256s20.955,104.403,59.007,142.454c38.05,38.052,88.511,59.007,142.324,59.007
	s104.534-20.955,142.584-59.007c38.052-38.051,59.007-88.642,59.007-142.454S436.506,151.597,398.454,113.546z" />
	<path style="fill:#a6a3ff;"
		d="M255.87,54.542c-53.721,0.063-104.331,21.01-142.325,59.004
	C75.494,151.597,54.539,202.188,54.539,256s20.955,104.403,59.006,142.454c37.994,37.993,88.603,58.94,142.325,59.004V54.542z" />
	<path style="fill:#ff7b7b;"
		d="M306.426,256l39.249-39.25c13.925-13.925,13.925-36.501,0-50.426
	c-13.925-13.925-36.501-13.925-50.426,0L256,205.574l-39.249-39.25c-13.925-13.925-36.501-13.926-50.426,0
	c-13.925,13.925-13.925,36.501,0,50.426L205.574,256l-39.249,39.25c-13.925,13.925-13.925,36.501,0,50.426
	c6.962,6.962,16.088,10.444,25.214,10.444c9.125,0,18.251-3.482,25.214-10.444L256,306.426l39.249,39.25
	c6.963,6.963,16.087,10.444,25.214,10.444c9.124,0,18.252-3.482,25.214-10.444c13.925-13.925,13.925-36.501,0-50.426L306.426,256z" />
	<path style="fill:#ffbaba;" d="M255.895,205.469l-39.145-39.146c-13.925-13.925-36.501-13.926-50.426,0
	c-13.925,13.925-13.925,36.501,0,50.426L205.574,256l-39.249,39.25c-13.925,13.925-13.925,36.501,0,50.426
	c6.962,6.962,16.088,10.444,25.214,10.444c9.125,0,18.251-3.482,25.214-10.444l39.145-39.146V205.469H255.895z" />
	<g>
	</g>
	<g>
	</g>
	<g>
	</g>
	<g>
	</g>
	<g>
	</g>
	<g>
	</g>
	<g>
	</g>
	<g>
	</g>
	<g>
	</g>
	<g>
	</g>
	<g>
	</g>
	<g>
	</g>
	<g>
	</g>
	<g>
	</g>
	<g>
	</g>
</svg>