<?xml version="1.0" encoding="iso-8859-1"?>
<!-- Generator: Adobe Illustrator 19.0.0, SVG Export Plug-In . SVG Version: 6.00 Build 0)  -->
<svg version="1.1" id="Layer_1" xmlns="http://www.w3.org/2000/svg" xmlns:xlink="http://www.w3.org/1999/xlink" x="0px"
	y="0px" viewBox="0 0 512 512" style="enable-background:new 0 0 512 512;" xml:space="preserve">
	<path style="fill:#2cd896;" d="M256,0C114.615,0,0,114.616,0,256c0,127.281,92.889,232.867,214.575,252.665l297.059-266.482
	C504.456,107.223,392.75,0,256,0z" />
	<path style="fill:#22c385;" d="M512,256c0-4.636-0.13-9.24-0.374-13.816L308.792,39.349L134.008,428.079l80.569,80.569
	C228.061,510.841,241.894,512,256,512C397.384,512,512,397.384,512,256z" />
	<g>
		<polygon style="fill:#FFF9CF;" points="244.87,182.932 244.87,117.262 322.783,128.393 322.783,182.932 	" />
		<path style="fill:#FFF9CF;" d="M256,133.565l-69.009,172.522L256,478.609c95.281,0,172.522-77.241,172.522-172.522
		S351.281,133.565,256,133.565z" />
	</g>
	<g>
		<polygon style="fill:#FFFFFF;" points="256,182.932 189.217,182.932 189.217,128.393 256,117.262 	" />
		<path style="fill:#FFFFFF;" d="M83.478,306.087c0,95.281,77.241,172.522,172.522,172.522V133.565
		C160.719,133.565,83.478,210.806,83.478,306.087z" />
	</g>
	<path style="fill:#FEEB5C;" d="M256,155.826l-60.104,150.261L256,456.348c82.987,0,150.261-67.273,150.261-150.261
	S338.987,155.826,256,155.826z" />
	<path style="fill:#FFF296;" d="M105.739,306.087c0,82.987,67.273,150.261,150.261,150.261V155.826
	C173.013,155.826,105.739,223.1,105.739,306.087z" />
	<path style="fill:#1b9868;"
		d="M308.792,39.349H256v77.913l66.783-33.391C322.783,67.309,317.607,51.971,308.792,39.349z" />
	<path style="fill:#22c385;" d="M203.208,39.349c-8.804,12.622-13.991,27.96-13.991,44.522L256,117.262V39.349
	C256,39.349,203.208,39.349,203.208,39.349z" />
	<polygon style="fill:#22c385;" points="244.87,117.262 256,83.871 322.783,83.871 322.783,106.132 " />
	<polygon style="fill:#6ce5b6;" points="256,117.262 189.217,106.132 189.217,83.871 256,83.871 " />
	<path style="fill:#FFF9CF;" d="M289.391,187.091l49.798,125.284H256l-11.13-11.13l11.13-11.13h50.376l-23.43-58.958
	c-6.077,8.314-15.894,13.713-26.947,13.713l-11.13-11.13l11.13-11.13c6.133,0,11.13-4.986,11.13-11.13v-11.13H256l-11.13-11.13
	l11.13-11.13h11.13v-44.522h22.261V187.091z" />
	<path style="fill:#FFFFFF;" d="M256,290.115v22.261h-83.178l49.786-125.284v-53.526h22.261v44.522H256v22.261h-11.13v11.13
	c0,6.144,4.998,11.13,11.13,11.13v22.261c-11.053,0-20.87-5.398-26.947-13.713l-23.441,58.958H256z" />
	<polygon style="fill:#1b9868;" points="256,128.393 244.87,117.262 256,106.132 322.783,106.132 322.783,128.393 " />
	<rect x="189.217" y="106.129" style="fill:#22c385;" width="66.783" height="22.261" />
	<g>
	</g>
	<g>
	</g>
	<g>
	</g>
	<g>
	</g>
	<g>
	</g>
	<g>
	</g>
	<g>
	</g>
	<g>
	</g>
	<g>
	</g>
	<g>
	</g>
	<g>
	</g>
	<g>
	</g>
	<g>
	</g>
	<g>
	</g>
	<g>
	</g>
</svg>