<?xml version="1.0" encoding="iso-8859-1"?>
<!-- Generator: Adobe Illustrator 19.0.0, SVG Export Plug-In . SVG Version: 6.00 Build 0)  -->
<svg version="1.1" id="Capa_1" xmlns="http://www.w3.org/2000/svg" xmlns:xlink="http://www.w3.org/1999/xlink" x="0px"
	y="0px" viewBox="0 0 512 512" style="enable-background:new 0 0 512 512;" xml:space="preserve">

	<filter id="rotate">
		<feDropShadow
			dx="12"
			dy="20"
			stdDeviation="0"
			flood-color="#000"
			flood-opacity="30%"
		/>
	</filter>

	<path style="fill:#ff8800;" d="M256,0C114.842,0,0,114.843,0,256c0,141.16,114.842,256,256,256s256-114.84,256-256
	C512,114.843,397.158,0,256,0z" />
	<path style="fill:#cc6d00;" d="M256,0v512c141.158,0,256-114.84,256-256C512,114.843,397.158,0,256,0z" />
	<g filter="url(#rotate)">
		<path style="fill:#ffac4d;" d="M339.689,323.613c-9.089-9.089-23.824-9.089-32.912-0.002c-28.725,28.725-75.464,28.725-104.187,0
		c-13.916-13.916-21.58-32.416-21.58-52.094c0-19.679,7.664-38.18,21.58-52.095c12.862-12.859,29.487-19.926,46.49-21.208
		l-9.367,27.591c-3.027,8.913-0.383,18.773,6.692,24.979c4.336,3.803,9.815,5.776,15.351,5.776c3.499,0,7.018-0.788,10.29-2.4
		l61.483-30.323c11.528-5.685,16.263-19.638,10.578-31.165l-30.318-61.482c-4.163-8.44-12.991-13.543-22.395-12.929
		c-9.393,0.614-17.49,6.827-20.517,15.742l-6.02,17.732c-3.716-0.31-7.458-0.464-11.225-0.43
		c-31.713,0.276-61.528,12.778-83.954,35.204c-22.708,22.708-35.213,52.897-35.213,85.009s12.507,62.301,35.213,85.006
		c23.437,23.439,54.216,35.157,85.006,35.154c30.781-0.003,61.573-11.722,85.006-35.154
		C348.777,347.439,348.779,332.704,339.689,323.613z" />
		<g>
			<path style="fill:#ff8800;" d="M261.755,256.56c3.499,0,7.018-0.788,10.29-2.4l61.483-30.323
			c11.528-5.685,16.263-19.638,10.578-31.165l-30.318-61.482c-4.163-8.44-12.991-13.543-22.395-12.929
			c-9.393,0.614-17.49,6.827-20.517,15.742l-6.02,17.732c-2.934-0.245-5.891-0.358-8.858-0.394v104.484
			C257.882,256.304,259.812,256.56,261.755,256.56z" />
			<path style="fill:#ff8800;" d="M339.689,323.613c-9.089-9.089-23.824-9.089-32.912-0.002
			c-14.029,14.027-32.352,21.184-50.776,21.512v46.522c30.34-0.332,60.591-12.023,83.689-35.123
			C348.777,347.439,348.779,332.704,339.689,323.613z" />
		</g>
	</g>
	<g>
	</g>
	<g>
	</g>
	<g>
	</g>
	<g>
	</g>
	<g>
	</g>
	<g>
	</g>
	<g>
	</g>
	<g>
	</g>
	<g>
	</g>
	<g>
	</g>
	<g>
	</g>
	<g>
	</g>
	<g>
	</g>
	<g>
	</g>
	<g>
	</g>
</svg>