<?xml version="1.0" encoding="iso-8859-1"?>
<!-- Generator: Adobe Illustrator 19.0.0, SVG Export Plug-In . SVG Version: 6.00 Build 0)  -->
<svg version="1.1" id="Layer_1" xmlns="http://www.w3.org/2000/svg" xmlns:xlink="http://www.w3.org/1999/xlink" x="0px"
	y="0px" viewBox="0 0 512 512" style="enable-background:new 0 0 512 512;" xml:space="preserve">
	<circle style="fill:#ffe14d;" cx="256" cy="256" r="256" />
	<path style="fill:#e6bf00;" d="M511.738,244.705L363.475,96.44L148.552,415.587l96.87,96.178c3.51,0.143,7.034,0.234,10.578,0.234
	c141.384,0,256-114.616,256-256C512,252.214,511.902,248.451,511.738,244.705z" />
	<path style="fill:#FFFFFF;" d="M146.534,117.931l-0.002,276.137c0,13.024,10.559,23.583,23.583,23.583h171.77
	c13.024,0,23.581-10.557,23.581-23.581l0.002-276.137c0-13.024-10.559-23.583-23.583-23.583h-171.77
	C157.093,94.349,146.534,104.908,146.534,117.931z" />
	<path style="fill:#D8D8D8;" d="M341.885,94.349h-87.609v323.301h87.607c13.024,0,23.581-10.559,23.581-23.581l0.003-276.137
	C365.468,104.908,354.911,94.349,341.885,94.349z" />
	<path style="fill:#263A7A;" d="M341.885,87.454h-171.77c-16.806,0-30.479,13.672-30.479,30.477v276.137
	c0,16.806,13.672,30.479,30.479,30.479h171.77c16.806,0,30.479-13.672,30.479-30.477V117.932
	C372.364,101.126,358.691,87.454,341.885,87.454z M170.117,101.245h171.77c9.201,0,16.687,7.487,16.687,16.687l-0.003,204.438
	H153.428l0.002-204.44C153.429,108.73,160.916,101.245,170.117,101.245z" />
	<path style="fill:#121149;" d="M341.885,87.454h-87.609v13.791h87.609c9.201,0,16.687,7.487,16.687,16.687l-0.002,204.438H254.276
	v102.176h87.607c16.806,0,30.479-13.672,30.479-30.477l0.002-276.137C372.364,101.126,358.691,87.454,341.885,87.454z" />
	<g>
		<path style="fill:#366695;" d="M199.111,346.505h-28.444c-2.857,0-5.172-2.315-5.172-5.172s2.315-5.172,5.172-5.172h28.444
		c2.857,0,5.172,2.315,5.172,5.172S201.968,346.505,199.111,346.505z" />
		<path style="fill:#366695;" d="M341.333,346.505h-28.444c-2.857,0-5.172-2.315-5.172-5.172s2.315-5.172,5.172-5.172h28.444
		c2.857,0,5.172,2.315,5.172,5.172S344.19,346.505,341.333,346.505z" />
		<path style="fill:#366695;" d="M270.222,346.505h-28.444c-2.857,0-5.172-2.315-5.172-5.172s2.315-5.172,5.172-5.172h28.444
		c2.857,0,5.172,2.315,5.172,5.172S273.079,346.505,270.222,346.505z" />
		<path style="fill:#366695;" d="M199.111,374.949h-28.444c-2.857,0-5.172-2.315-5.172-5.172s2.315-5.172,5.172-5.172h28.444
		c2.857,0,5.172,2.315,5.172,5.172S201.968,374.949,199.111,374.949z" />
		<path style="fill:#366695;" d="M341.333,374.949h-28.444c-2.857,0-5.172-2.315-5.172-5.172s2.315-5.172,5.172-5.172h28.444
		c2.857,0,5.172,2.315,5.172,5.172S344.19,374.949,341.333,374.949z" />
		<path style="fill:#366695;" d="M270.222,374.949h-28.444c-2.857,0-5.172-2.315-5.172-5.172s2.315-5.172,5.172-5.172h28.444
		c2.857,0,5.172,2.315,5.172,5.172S273.079,374.949,270.222,374.949z" />
		<path style="fill:#366695;" d="M199.111,403.394h-28.444c-2.857,0-5.172-2.315-5.172-5.172c0-2.857,2.315-5.172,5.172-5.172h28.444
		c2.857,0,5.172,2.315,5.172,5.172C204.283,401.079,201.968,403.394,199.111,403.394z" />
		<path style="fill:#366695;" d="M341.333,403.394h-28.444c-2.857,0-5.172-2.315-5.172-5.172c0-2.857,2.315-5.172,5.172-5.172h28.444
		c2.857,0,5.172,2.315,5.172,5.172C346.505,401.079,344.19,403.394,341.333,403.394z" />
		<path style="fill:#366695;" d="M270.222,403.394h-28.444c-2.857,0-5.172-2.315-5.172-5.172c0-2.857,2.315-5.172,5.172-5.172h28.444
		c2.857,0,5.172,2.315,5.172,5.172C275.394,401.079,273.079,403.394,270.222,403.394z" />
	</g>
	<g>
	</g>
	<g>
	</g>
	<g>
	</g>
	<g>
	</g>
	<g>
	</g>
	<g>
	</g>
	<g>
	</g>
	<g>
	</g>
	<g>
	</g>
	<g>
	</g>
	<g>
	</g>
	<g>
	</g>
	<g>
	</g>
	<g>
	</g>
	<g>
	</g>
</svg>