<svg id="visual" viewBox="0 0 1440 672" width="1440" height="672" xmlns="http://www.w3.org/2000/svg"
  xmlns:xlink="http://www.w3.org/1999/xlink" version="1.1">
  <g>
    <g transform="translate(716 312)">
      <path
        d="M66.5 -0.7C66.5 33 33.3 65.9 -1.6 65.9C-36.4 65.9 -72.8 33 -72.8 -0.7C-72.8 -34.5 -36.4 -68.9 -1.6 -68.9C33.3 -68.9 66.5 -34.5 66.5 -0.7Z"
        stroke="#e2e0e060" fill="none" stroke-width="12"></path>
    </g>
    <g transform="translate(963 208)">
      <path
        d="M52.6 0.2C52.6 26.2 26.3 52.4 1.3 52.4C-23.8 52.4 -47.5 26.2 -47.5 0.2C-47.5 -25.9 -23.8 -51.7 1.3 -51.7C26.3 -51.7 52.6 -25.9 52.6 0.2Z"
        stroke="#e2e0e060" fill="none" stroke-width="12"></path>
    </g>
    <g transform="translate(271 257)">
      <path
        d="M45.3 0.3C45.3 23.6 22.6 47.3 0.1 47.3C-22.5 47.3 -45 23.6 -45 0.3C-45 -23 -22.5 -46 0.1 -46C22.6 -46 45.3 -23 45.3 0.3Z"
        stroke="#e2e0e060" fill="none" stroke-width="12"></path>
    </g>
    <g transform="translate(385 457)">
      <path
        d="M35.9 -0.4C35.9 17.3 17.9 34.6 0.3 34.6C-17.4 34.6 -34.8 17.3 -34.8 -0.4C-34.8 -18 -17.4 -36 0.3 -36C17.9 -36 35.9 -18 35.9 -0.4Z"
        stroke="#e2e0e060" fill="none" stroke-width="12"></path>
    </g>
    <g transform="translate(1022 515)">
      <path
        d="M38.4 1.1C38.4 21.4 19.2 42.7 -0.4 42.7C-20.1 42.7 -40.1 21.4 -40.1 1.1C-40.1 -19.2 -20.1 -38.4 -0.4 -38.4C19.2 -38.4 38.4 -19.2 38.4 1.1Z"
        stroke="#e2e0e060" fill="none" stroke-width="12"></path>
    </g>
    <g transform="translate(1194 353)">
      <path
        d="M37.2 0.5C37.2 20.4 18.6 40.7 -1.1 40.7C-20.8 40.7 -41.5 20.4 -41.5 0.5C-41.5 -19.4 -20.8 -38.8 -1.1 -38.8C18.6 -38.8 37.2 -19.4 37.2 0.5Z"
        stroke="#e2e0e060" fill="none" stroke-width="12"></path>
    </g>
    <g transform="translate(164 495)">
      <path
        d="M50.5 -1.2C50.5 25.1 25.3 50.2 -0.3 50.2C-25.9 50.2 -51.8 25.1 -51.8 -1.2C-51.8 -27.6 -25.9 -55.2 -0.3 -55.2C25.3 -55.2 50.5 -27.6 50.5 -1.2Z"
        stroke="#e2e0e060" fill="none" stroke-width="12"></path>
    </g>
    <g transform="translate(522 167)">
      <path
        d="M57 -0.2C57 28.1 28.5 56.3 -0.6 56.3C-29.7 56.3 -59.4 28.1 -59.4 -0.2C-59.4 -28.5 -29.7 -57 -0.6 -57C28.5 -57 57 -28.5 57 -0.2Z"
        stroke="#e2e0e060" fill="none" stroke-width="12"></path>
    </g>
    <g transform="translate(770 531)">
      <path
        d="M40.9 0C40.9 22.1 20.5 44.1 -0.5 44.1C-21.4 44.1 -42.9 22.1 -42.9 0C-42.9 -22.1 -21.4 -44.3 -0.5 -44.3C20.5 -44.3 40.9 -22.1 40.9 0Z"
        stroke="#e2e0e060" fill="none" stroke-width="12"></path>
    </g>
    <g transform="translate(1266 125)">
      <path
        d="M57.8 0.2C57.8 28.6 28.9 57.2 -0.4 57.2C-29.6 57.2 -59.3 28.6 -59.3 0.2C-59.3 -28.1 -29.6 -56.2 -0.4 -56.2C28.9 -56.2 57.8 -28.1 57.8 0.2Z"
        stroke="#e2e0e060" fill="none" stroke-width="12"></path>
    </g>
  </g>
</svg>