<?xml version="1.0" ?><svg width="64px" height="64px" viewBox="0 0 64 64" xmlns="http://www.w3.org/2000/svg"><g id="a"/><g id="b"/><g id="c"/><g id="d"/><g id="e"/><g id="f"/><g id="g"/><g id="h"/><g id="i"/><g id="j"/><g id="k"/><g id="l"/><g id="m"/><g id="n"/><g id="o"/><g id="p"/><g id="q"/><g id="r"/><g id="s"/><g id="t"/><g id="u"/><g id="v"/><g id="w"/><g id="x"/><g id="y"/><g id="a`"><path d="M38.98,32.36l-.49-6.1c-.29-3.58-2.89-6.49-6.49-6.49s-6.2,2.91-6.49,6.49l-.49,6.1,7.33,12.28,6.62-12.28Z" fill="#fce87b" fill-rule="evenodd"/><path d="M22.54,32.99l-.9-2.53c-1.11-3.11-4.11-5.07-7.3-4.21-3.19,.85-4.81,4.05-4.21,7.3l1.02,5.53,8.01,8.49s7.63-4.06,3.38-14.57Z" fill="#fce87b" fill-rule="evenodd"/><path d="M41.46,33l.9-2.53c1.11-3.11,4.11-5.07,7.3-4.21,3.19,.85,4.81,4.05,4.21,7.3l-1.02,5.53-8.3,8.8s-6.14-5.99-3.09-14.88Z" fill="#fce87b" fill-rule="evenodd"/><path d="M46.14,34.51l2.43,.65-.27,1-2.43-.65,.27-.99Zm-28.27,0l.27,1-2.43,.65-.27-1,2.43-.65Zm29.2-3.46l2.43,.65-.41,1.52-2.43-.65,.41-1.52Zm-30.12,0l.41,1.52-2.43,.65-.41-1.52,2.43-.65Zm13.6-.4h2.92v-1.3h-2.92v1.3Zm0-3.3h2.92v-1.9h-2.92v1.9Zm16.76-2.24c-.43,.02-.8,.32-.91,.74l-.74,2.76-2.29-.61c-.53-.14-1.08,.17-1.22,.71-.14,.53,.17,1.08,.71,1.22l2.29,.61-.41,1.52-2.76-.74c-.53-.14-1.08,.17-1.23,.71-.14,.53,.17,1.08,.71,1.22l2.76,.74-.27,.99-1.93-.52c-.53-.14-1.08,.17-1.22,.71-.14,.53,.17,1.08,.71,1.22l1.93,.52-.21,.79c-.14,.53,.17,1.08,.71,1.23,.53,.14-.08,4.87,.07,4.34l1.37-5.84,2.43,.65-1.68,6.73c-.14,.53,1.65-4.86,2.18-4.72,.53,.14,1.08-.17,1.23-.71l.21-.79,2.99,.8c.53,.14,1.08-.17,1.23-.71,.14-.53-.17-1.08-.71-1.23l-2.99-.8,.27-1,2.76,.74c.53,.14,1.08-.17,1.22-.71,.14-.53-.17-1.08-.71-1.22l-2.76-.74,.41-1.52,2.29,.61c.53,.14,1.08-.17,1.22-.71,.14-.53-.17-1.08-.71-1.22l-2.29-.61,.74-2.76c.14-.53-.17-1.08-.71-1.23-.53-.14-1.08,.17-1.22,.71l-.74,2.76-2.43-.65,.74-2.76c.14-.53-.17-1.08-.71-1.23-.1-.03-.21-.04-.31-.03Zm-30.6,0c-.1,0-.21,0-.31,.03-.53,.14-.85,.69-.71,1.23l.74,2.76-2.43,.65-.74-2.76c-.14-.53-.69-.85-1.22-.71-.53,.14-.85,.69-.71,1.23l.74,2.76-2.29,.61c-.53,.14-.85,.69-.71,1.22,.14,.53,.69,.85,1.22,.71l2.29-.61,.41,1.52-2.76,.74c-.53,.14-.85,.69-.71,1.22s.69,.85,1.23,.71l2.76-.74,.27,1-2.99,.8c-.53,.14-.85,.69-.71,1.23,.14,.53,.69,.85,1.23,.71l2.99-.8,.21,.79c.14,.53,.69,.85,1.23,.71,.53-.14,2.51,5.21,2.37,4.68l-1.88-6.69,2.43-.65,2.08,7.51c.14,.53-1.17-5.87-.64-6.01,.53-.14,.85-.69,.71-1.23l-.21-.79,1.94-.52c.53-.14,.85-.69,.71-1.22-.14-.53-.69-.85-1.23-.71l-1.93,.52-.27-.99,2.76-.74c.53-.14,.85-.69,.71-1.22-.14-.53-.69-.85-1.23-.71l-2.76,.74-.41-1.52,2.29-.61c.53-.14,.85-.69,.71-1.22-.14-.53-.69-.85-1.22-.71l-2.29,.61-.74-2.76c-.11-.42-.48-.72-.91-.74Zm12.84-5.85c-.55,0-1,.45-1,1v3.2h-2.67c-.55,0-1,.45-1,1s.45,1,1,1h2.67v1.9h-3.2c-.55,0-1,.45-1,1s.45,1,1,1h3.2v1.3h-3.46c-.55,0-1,.45-1,1s.45,1,1,1h3.46v4.98c0,.55,.45,1,1,1s1-.45,1-1v-4.98h2.92v4.98c0,.55,.45,1,1,1s1-.45,1-1v-4.98h3.46c.55,0,1-.45,1-1s-.45-1-1-1h-3.46v-1.3h3.2c.55,0,1-.45,1-1s-.45-1-1-1h-3.2v-1.9h2.67c.55,0,1-.45,1-1s-.45-1-1-1h-2.67v-3.2c0-.55-.45-1-1-1s-1,.45-1,1v3.2h-2.92v-3.2c0-.55-.45-1-1-1Z" fill="#fdda5c" fill-rule="evenodd"/><path d="M12.7,50.11l-3.68-8.6c-.3-.71,.02-1.52,.73-1.82l1.54-.66c.24-.1,.48-.18,.72-.25,2.35-.61,4.84,.57,5.83,2.87l1.72,4.01-.52-4.33c-.28-2.38,1.14-4.55,3.31-5.31l8.93,9.52,10.4-9.52c2.17,.75,3.59,2.93,3.31,5.31l-.52,4.33,1.72-4.01c.99-2.3,3.48-3.48,5.83-2.87,.24,.06,.49,.15,.72,.25l1.54,.66c.71,.3,1.03,1.11,.73,1.82l-3.68,8.6H12.7Z" fill="#3aedbc" fill-rule="evenodd"/><path d="M26,32.28c-.27,0-.55,.02-.83,.05l-1.8,.26c-.83,.12-1.4,.88-1.28,1.71l1.61,11.2c.12,.81,.38,1.56,.75,2.22h15.1c.38-.67,.64-1.42,.75-2.22l1.61-11.2c.12-.83-.45-1.59-1.28-1.71l-1.8-.26c-2.98-.43-5.72,1.63-6.15,4.61l-.68,4.7-.67-4.7c-.39-2.7-2.68-4.64-5.32-4.66Z" fill="#6df4c0" fill-rule="evenodd"/><path d="M50.28,14.72c0,1.3-1.06,2.36-2.36,2.36s-2.36-1.06-2.36-2.36,1.06-2.36,2.36-2.36,2.36,1.06,2.36,2.36Z" fill="#fce87b" fill-rule="evenodd"/><path d="M32,47.4c-20.26,0-27,6.13-27,9.08,0,1.4,1.25,2.53,2.8,2.53H56.2c1.55,0,2.8-1.13,2.8-2.53,0-2.95-6.74-9.08-27-9.08Z" fill="#ffded4" fill-rule="evenodd"/><path d="M31.33,5c1.15,0,2.08,.93,2.08,2.08s-.93,2.08-2.08,2.08h-4.03c-.8,0-1.45,.65-1.45,1.46s.65,1.46,1.45,1.46h.67c1.15,0,2.08,.93,2.08,2.08s-.93,2.08-2.08,2.08H9.67c-1.15,0-2.08-.93-2.08-2.08s.93-2.08,2.08-2.08h6.49c.81,0,1.46-.65,1.46-1.46s-.65-1.46-1.46-1.46h-1.64c-1.15,0-2.08-.93-2.08-2.08s.93-2.08,2.08-2.08H31.33Z" fill="#d1f1f4" fill-rule="evenodd"/><path d="M47.92,7.43c-.55,0-1,.45-1,1v1.37c0,.55,.45,1,1,1s1-.45,1-1v-1.37c0-.55-.45-1-1-1Z" fill="#fce87b" fill-rule="evenodd"/><path d="M47.92,18.65c-.55,0-1,.45-1,1v1.37c0,.55,.45,1,1,1s1-.45,1-1v-1.37c0-.55-.45-1-1-1Z" fill="#fce87b" fill-rule="evenodd"/><path d="M52.85,13.72c-.55,0-1,.45-1,1s.45,1,1,1h1.37c.55,0,1-.45,1-1s-.45-1-1-1h-1.37Z" fill="#fce87b" fill-rule="evenodd"/><path d="M41.62,13.72c-.55,0-1,.45-1,1s.45,1,1,1h1.36c.55,0,1-.45,1-1s-.45-1-1-1h-1.36Z" fill="#fce87b" fill-rule="evenodd"/><path d="M52.37,9.27c-.27,0-.52,.11-.71,.29l-.97,.97c-.39,.39-.39,1.03,0,1.41,.39,.39,1.03,.39,1.41,0l.97-.97c.39-.39,.39-1.03,0-1.41-.19-.19-.44-.29-.71-.29Z" fill="#fce87b" fill-rule="evenodd"/><path d="M44.43,17.2c-.27,0-.52,.11-.71,.29l-.97,.97c-.39,.39-.39,1.03,0,1.41s1.03,.39,1.41,0l.97-.96c.19-.19,.29-.44,.29-.71s-.11-.52-.29-.71c-.19-.19-.44-.29-.71-.29Z" fill="#fce87b" fill-rule="evenodd"/><path d="M51.4,17.2c-.26,0-.52,.11-.71,.29-.39,.39-.39,1.03,0,1.41l.97,.97c.39,.39,1.03,.39,1.41,0s.39-1.03,0-1.41l-.97-.97c-.19-.19-.44-.29-.71-.29Z" fill="#fce87b" fill-rule="evenodd"/><path d="M43.47,9.27c-.26,0-.52,.11-.71,.29-.39,.39-.39,1.03,0,1.41l.97,.97c.39,.39,1.03,.39,1.41,0,.39-.39,.39-1.03,0-1.41l-.97-.97c-.19-.19-.44-.29-.71-.29Z" fill="#fce87b" fill-rule="evenodd"/><circle cx="16.84" cy="54.76" fill="#feccc7" r="1"/><circle cx="26.46" cy="51.74" fill="#feccc7" r="1"/><circle cx="36.36" cy="54.9" fill="#feccc7" r="1"/><circle cx="44.85" cy="53.33" fill="#feccc7" r="1"/></g><g id="aa"/><g id="ab"/><g id="ac"/><g id="ad"/><g id="ae"/><g id="af"/><g id="ag"/><g id="ah"/><g id="ai"/><g id="aj"/><g id="ak"/><g id="al"/><g id="am"/><g id="an"/><g id="ao"/><g id="ap"/><g id="aq"/><g id="ar"/><g id="as"/><g id="at"/><g id="au"/><g id="av"/><g id="aw"/><g id="ax"/></svg>