<svg id="visual" viewBox="0 0 900 600" width="900" height="600" xmlns="http://www.w3.org/2000/svg"
  xmlns:xlink="http://www.w3.org/1999/xlink" version="1.1">

  <filter id="blob">
    <feDropShadow
      dx="12"
      dy="12"
      stdDeviation="0.0"
      flood-color="hsla(208, 100%, 40%, 0.5)"
    />
  </filter>

  <g transform="translate(9.622661449957747 -20.108111018561402)">
    <g filter="url(#blob)">
      <path
        d="M77.6 -132C104.1 -119 131.7 -105.5 163 -83.4C194.2 -61.3 229.1 -30.7 242.1 7.5C255.1 45.7 246.2 91.3 213.9 111.5C181.5 131.7 125.8 126.5 86.2 142.3C46.7 158.2 23.3 195.1 -2.2 198.8C-27.7 202.6 -55.3 173.2 -71.6 143.9C-87.8 114.6 -92.6 85.4 -128.8 61.5C-165 37.5 -232.5 18.8 -256.5 -13.9C-280.5 -46.5 -261.1 -93 -224.6 -116.4C-188.1 -139.8 -134.5 -140 -94.3 -145.1C-54 -150.2 -27 -160.1 -0.8 -158.8C25.5 -157.5 51 -145 77.6 -132"
        fill="hsl(208, 100%, 57%)">
      </path>
    </g>
  </g>
</svg>