<?xml version="1.0" encoding="iso-8859-1"?>
<!-- Generator: Adobe Illustrator 19.0.0, SVG Export Plug-In . SVG Version: 6.00 Build 0)  -->
<svg version="1.1" id="Layer_1" xmlns="http://www.w3.org/2000/svg" xmlns:xlink="http://www.w3.org/1999/xlink" x="0px" y="0px"
	 viewBox="0 0 512 512" style="enable-background:new 0 0 512 512;" xml:space="preserve">
<path style="fill:#A4E276;" d="M449.939,0H255.972H139.636C84.029,0,38.788,45.241,38.788,100.848v310.303
	C38.788,466.759,84.029,512,139.636,512h116.336h193.967c12.853,0,23.273-10.42,23.273-23.273V23.273
	C473.212,10.42,462.792,0,449.939,0z"/>
<path style="fill:#FFFFFF;" d="M271.515,232.727h-15.543h-15.487c-12.833,0-23.273-10.44-23.273-23.273
	c0-12.833,10.44-23.273,23.273-23.273h15.487H256h62.061c12.853,0,23.273-10.42,23.273-23.273c0-12.853-10.42-23.273-23.273-23.273
	h-38.788v-7.758c0-12.853-10.42-23.273-23.273-23.273c-0.009,0-0.019,0.002-0.028,0.002c-8.827,0.011-16.503,4.935-20.44,12.186
	c-0.022,0.036-0.036,0.074-0.054,0.112c-0.335,0.625-0.647,1.264-0.925,1.921c-0.014,0.031-0.022,0.062-0.033,0.093
	c-0.279,0.667-0.532,1.348-0.749,2.043c-0.051,0.166-0.084,0.341-0.13,0.509c-0.163,0.568-0.324,1.136-0.442,1.721
	c-0.082,0.397-0.124,0.808-0.185,1.213c-0.054,0.365-0.13,0.725-0.166,1.095c-0.081,0.782-0.121,1.575-0.121,2.378v8.2
	c-34.859,3.873-62.061,33.502-62.061,69.376c0,38.498,31.32,69.818,69.818,69.818h15.487h15.543
	c12.833,0,23.273,10.44,23.273,23.273s-10.44,23.273-23.273,23.273H256h-0.028h-62.033c-12.853,0-23.273,10.42-23.273,23.273
	c0,12.853,10.42,23.273,23.273,23.273h38.788v7.758c0,0.804,0.04,1.597,0.121,2.379c0.037,0.371,0.112,0.729,0.166,1.095
	c0.061,0.405,0.104,0.816,0.185,1.213c0.118,0.585,0.279,1.153,0.442,1.721c0.047,0.168,0.079,0.343,0.13,0.509
	c0.217,0.697,0.47,1.378,0.749,2.043c0.012,0.029,0.02,0.062,0.033,0.093c0.278,0.656,0.59,1.296,0.925,1.921
	c0.02,0.036,0.034,0.076,0.054,0.112c3.936,7.25,11.612,12.175,20.44,12.186c0.009,0,0.019,0.002,0.028,0.002
	c12.853,0,23.273-10.42,23.273-23.273v-8.2c34.859-3.873,62.061-33.502,62.061-69.376
	C341.333,264.048,310.013,232.727,271.515,232.727z"/>
<path style="fill:#64C37D;" d="M217.212,209.455c0,12.833,10.44,23.273,23.273,23.273h15.487v-46.545h-15.487
	C227.652,186.182,217.212,196.622,217.212,209.455z"/>
<g>
	<path style="fill:#A4E276;" d="M256,108.606c-0.009,0-0.019,0.002-0.028,0.002l0,0C255.981,108.608,255.991,108.606,256,108.606z"
		/>
	<path style="fill:#A4E276;" d="M255.972,403.392L255.972,403.392c0.009,0,0.019,0.002,0.028,0.002
		C255.991,403.394,255.981,403.392,255.972,403.392z"/>
</g>
<g>
	<path style="fill:#64C37D;" d="M139.636,512h116.336V403.392c-8.827-0.009-16.503-4.934-20.44-12.186
		c-0.022-0.036-0.036-0.074-0.054-0.112c-0.335-0.625-0.647-1.264-0.925-1.921c-0.014-0.031-0.022-0.062-0.033-0.093
		c-0.279-0.667-0.532-1.348-0.748-2.043c-0.051-0.166-0.084-0.341-0.13-0.509c-0.163-0.568-0.324-1.136-0.442-1.721
		c-0.082-0.397-0.124-0.808-0.185-1.213c-0.054-0.365-0.13-0.725-0.166-1.095c-0.082-0.782-0.123-1.575-0.123-2.378v-7.758h-38.788
		c-12.853,0-23.273-10.42-23.273-23.273c0-12.853,10.42-23.273,23.273-23.273h62.033v-46.545h-15.487
		c-38.499,0-69.818-31.32-69.818-69.818c0-35.876,27.201-65.503,62.061-69.376v-8.2c0-0.804,0.04-1.597,0.121-2.378
		c0.036-0.371,0.112-0.729,0.166-1.095c0.061-0.405,0.102-0.816,0.185-1.213c0.118-0.585,0.279-1.153,0.442-1.721
		c0.047-0.168,0.079-0.343,0.13-0.509c0.217-0.697,0.47-1.378,0.748-2.043c0.012-0.031,0.02-0.062,0.033-0.093
		c0.278-0.656,0.59-1.296,0.925-1.921c0.02-0.037,0.033-0.076,0.054-0.112c3.936-7.252,11.612-12.176,20.44-12.186V0H139.636
		C84.029,0,38.788,45.241,38.788,100.848v310.303C38.788,466.759,84.029,512,139.636,512z"/>
	<path style="fill:#64C37D;" d="M233.2,127.192c0.118-0.585,0.279-1.153,0.442-1.721C233.478,126.039,233.318,126.607,233.2,127.192
		z"/>
	<path style="fill:#64C37D;" d="M235.478,391.095c-0.335-0.625-0.647-1.264-0.925-1.921
		C234.831,389.831,235.145,390.47,235.478,391.095z"/>
	<path style="fill:#64C37D;" d="M232.848,129.5c0.036-0.371,0.112-0.729,0.166-1.095C232.96,128.771,232.886,129.13,232.848,129.5z"
		/>
	<path style="fill:#64C37D;" d="M233.016,383.595c-0.054-0.365-0.13-0.725-0.166-1.095
		C232.886,382.87,232.96,383.229,233.016,383.595z"/>
	<path style="fill:#64C37D;" d="M234.521,389.081c-0.279-0.667-0.532-1.348-0.748-2.043
		C233.989,387.734,234.243,388.416,234.521,389.081z"/>
	<path style="fill:#64C37D;" d="M233.643,386.529c-0.163-0.568-0.324-1.136-0.442-1.721
		C233.318,385.393,233.478,385.961,233.643,386.529z"/>
	<path style="fill:#64C37D;" d="M255.972,108.608L255.972,108.608c-8.827,0.009-16.503,4.934-20.44,12.186
		C239.47,113.543,247.145,108.618,255.972,108.608z"/>
	<path style="fill:#64C37D;" d="M235.534,391.207c3.936,7.252,11.612,12.176,20.44,12.186l0,0
		C247.145,403.382,239.47,398.457,235.534,391.207z"/>
	<path style="fill:#64C37D;" d="M234.555,122.826c0.278-0.656,0.59-1.296,0.925-1.921
		C235.145,121.53,234.831,122.169,234.555,122.826z"/>
	<path style="fill:#64C37D;" d="M233.773,124.962c0.217-0.697,0.47-1.378,0.748-2.043
		C234.243,123.584,233.989,124.266,233.773,124.962z"/>
</g>
<g>
</g>
<g>
</g>
<g>
</g>
<g>
</g>
<g>
</g>
<g>
</g>
<g>
</g>
<g>
</g>
<g>
</g>
<g>
</g>
<g>
</g>
<g>
</g>
<g>
</g>
<g>
</g>
<g>
</g>
</svg>
