<svg xmlns="http://www.w3.org/2000/svg" version="1.1" xmlns:xlink="http://www.w3.org/1999/xlink" xmlns:svgjs="http://svgjs.com/svgjs" width="1440" height="864" preserveAspectRatio="none" viewBox="0 0 1440 864"><g mask="url(&quot;#SvgjsMask1002&quot;)" fill="none"><path d="M1019.576,194.081C1054.634,195.025,1089.771,182.136,1108.49,152.479C1128.45,120.855,1132.169,79.265,1111.868,47.859C1092.863,18.458,1054.498,12.462,1019.576,14.929C989.351,17.064,963.167,33.598,947.405,59.476C930.889,86.592,923.579,119.923,938.582,147.905C954.321,177.26,986.28,193.185,1019.576,194.081" fill="rgba(0, 100, 255, 0.1)" class="triangle-float2"></path><path d="M198.83 563.27 a200.32 200.32 0 1 0 400.64 0 a200.32 200.32 0 1 0 -400.64 0z" fill="rgba(0, 100, 255, 0.1)" class="triangle-float3"></path><path d="M56.13 833.31 a269.93 269.93 0 1 0 539.86 0 a269.93 269.93 0 1 0 -539.86 0z" fill="rgba(0, 100, 255, 0.1)" class="triangle-float1"></path><path d="M34.14 215.27 a274.28 274.28 0 1 0 548.56 0 a274.28 274.28 0 1 0 -548.56 0z" fill="rgba(0, 100, 255, 0.1)" class="triangle-float3"></path><path d="M1102.19 74.96 a146.55 146.55 0 1 0 293.1 0 a146.55 146.55 0 1 0 -293.1 0z" fill="rgba(0, 100, 255, 0.1)" class="triangle-float1"></path><path d="M899.042,334.707C975.851,331.688,1037.521,275.781,1072.412,207.288C1104.05,145.179,1096.696,73.542,1063.225,12.401C1028.153,-51.665,972.066,-107.998,899.042,-109.408C824.032,-110.856,762.085,-58.498,723.499,5.843C683.57,72.423,663.787,153.421,700.345,221.91C738.784,293.921,817.477,337.913,899.042,334.707" fill="rgba(0, 100, 255, 0.1)" class="triangle-float3"></path><path d="M665.152,398.015C689.154,397.733,706.803,377.555,717.725,356.18C727.57,336.913,727.296,314.897,717.476,295.617C706.529,274.124,689.255,253.864,665.152,252.956C639.823,252.002,617.288,268.949,605.523,291.4C594.542,312.355,598.849,336.791,610.397,357.439C622.282,378.689,640.806,398.301,665.152,398.015" fill="rgba(0, 100, 255, 0.1)" class="triangle-float2"></path><path d="M345.35,847.097C385.705,845.445,424.22,828.439,445.077,793.852C466.626,758.117,467.065,714.137,447.868,677.086C426.922,636.658,390.874,602.219,345.35,601.371C298.627,600.501,259.17,632.56,235.995,673.139C213.029,713.352,205.756,763.434,230.402,802.64C253.836,839.917,301.356,848.898,345.35,847.097" fill="rgba(0, 100, 255, 0.1)" class="triangle-float3"></path><path d="M929.31 749.25 a272.85 272.85 0 1 0 545.7 0 a272.85 272.85 0 1 0 -545.7 0z" fill="rgba(0, 100, 255, 0.1)" class="triangle-float1"></path><path d="M1126.655,381.447C1214.866,387.464,1310.449,357.412,1352.134,279.439C1392.274,204.355,1350.434,118.345,1306.202,45.597C1264.283,-23.347,1207.154,-85.897,1126.655,-91.405C1036.616,-97.566,940.338,-62.414,898.83,17.724C859.48,93.696,903.407,179.421,948.824,251.929C990.546,318.538,1048.24,376.098,1126.655,381.447" fill="rgba(0, 100, 255, 0.1)" class="triangle-float1"></path><path d="M78.994,592.153C105.866,591.969,135.64,588.094,149.068,564.816C162.49,541.549,150.861,513.882,137.628,490.507C124.125,466.655,106.402,441.3,78.994,441.03C51.29,440.757,32.141,465.317,18.328,489.333C4.567,513.259,-6.789,542.016,7.237,565.788C21.116,589.311,51.683,592.34,78.994,592.153" fill="rgba(0, 100, 255, 0.1)" class="triangle-float3"></path><path d="M131.32 360.99 a194.29 194.29 0 1 0 388.58 0 a194.29 194.29 0 1 0 -388.58 0z" fill="rgba(0, 100, 255, 0.1)" class="triangle-float3"></path><path d="M643.56 609.9 a191.05 191.05 0 1 0 382.1 0 a191.05 191.05 0 1 0 -382.1 0z" fill="rgba(0, 100, 255, 0.1)" class="triangle-float3"></path></g><defs><mask id="SvgjsMask1002"><rect width="1440" height="864" fill="#ffffff"></rect></mask></defs></svg>