<svg xmlns="http://www.w3.org/2000/svg" version="1.1" xmlns:xlink="http://www.w3.org/1999/xlink" xmlns:svgjs="http://svgjs.com/svgjs" width="1440" height="560" preserveAspectRatio="none" viewBox="0 0 1440 560"><g mask="url(&quot;#SvgjsMask2034&quot;)" fill="none"><g><path d="M1112.5 337.5L1087.5 312.5L1062.5 312.5M1187.5 337.5L1162.5 312.5L1137.5 312.5M1162.5 337.5L1137.5 362.5L1112.5 362.5L1087.5 362.5L1062.5 362.5M1237.5 337.5L1212.5 362.5L1187.5 362.5M1462.5 287.5L1437.5 312.5L1412.5 337.5L1387.5 337.5L1362.5 337.5L1337.5 337.5L1312.5 337.5L1287.5 337.5L1262.5 337.5L1237.5 337.5L1212.5 337.5L1187.5 337.5L1162.5 337.5L1137.5 337.5L1112.5 337.5L1087.5 337.5" stroke="url(#SvgjsLinearGradient2035)" stroke-width="4.17"></path><path d="M1083.33 337.5 a4.17 4.17 0 1 0 8.34 0 a4.17 4.17 0 1 0 -8.34 0zM1058.33 312.5 a4.17 4.17 0 1 0 8.34 0 a4.17 4.17 0 1 0 -8.34 0zM1133.33 312.5 a4.17 4.17 0 1 0 8.34 0 a4.17 4.17 0 1 0 -8.34 0zM1058.33 362.5 a4.17 4.17 0 1 0 8.34 0 a4.17 4.17 0 1 0 -8.34 0zM1183.33 362.5 a4.17 4.17 0 1 0 8.34 0 a4.17 4.17 0 1 0 -8.34 0z" fill="url(#SvgjsLinearGradient2035)"></path><path d="M687.5 212.5L662.5 237.5L637.5 237.5L612.5 237.5L587.5 237.5L562.5 237.5L537.5 212.5L512.5 212.5L487.5 212.5M1062.5 237.5L1037.5 212.5L1012.5 212.5M1312.5 237.5L1287.5 212.5L1262.5 212.5L1237.5 212.5L1212.5 212.5M1012.5 237.5L987.5 262.5L962.5 262.5M737.5 212.5L712.5 237.5L687.5 237.5L662.5 262.5M912.5 237.5L887.5 212.5L862.5 212.5M862.5 237.5L837.5 262.5L812.5 262.5L787.5 262.5L762.5 262.5L737.5 262.5L712.5 262.5L687.5 262.5L662.5 287.5L637.5 287.5M837.5 237.5L812.5 212.5M1462.5 262.5L1437.5 262.5L1412.5 262.5L1387.5 237.5L1362.5 237.5L1337.5 237.5L1312.5 237.5L1287.5 237.5L1262.5 237.5L1237.5 237.5L1212.5 237.5L1187.5 237.5L1162.5 237.5L1137.5 237.5L1112.5 237.5L1087.5 237.5L1062.5 237.5L1037.5 237.5L1012.5 237.5L987.5 237.5L962.5 237.5L937.5 237.5L912.5 237.5L887.5 237.5L862.5 237.5L837.5 237.5L812.5 237.5L787.5 212.5L762.5 212.5L737.5 212.5L712.5 212.5L687.5 212.5L662.5 212.5" stroke="url(#SvgjsLinearGradient2035)" stroke-width="4.17"></path><path d="M658.33 212.5 a4.17 4.17 0 1 0 8.34 0 a4.17 4.17 0 1 0 -8.34 0zM483.33 212.5 a4.17 4.17 0 1 0 8.34 0 a4.17 4.17 0 1 0 -8.34 0zM1008.33 212.5 a4.17 4.17 0 1 0 8.34 0 a4.17 4.17 0 1 0 -8.34 0zM1208.33 212.5 a4.17 4.17 0 1 0 8.34 0 a4.17 4.17 0 1 0 -8.34 0zM958.33 262.5 a4.17 4.17 0 1 0 8.34 0 a4.17 4.17 0 1 0 -8.34 0zM658.33 262.5 a4.17 4.17 0 1 0 8.34 0 a4.17 4.17 0 1 0 -8.34 0zM858.33 212.5 a4.17 4.17 0 1 0 8.34 0 a4.17 4.17 0 1 0 -8.34 0zM633.33 287.5 a4.17 4.17 0 1 0 8.34 0 a4.17 4.17 0 1 0 -8.34 0zM808.33 212.5 a4.17 4.17 0 1 0 8.34 0 a4.17 4.17 0 1 0 -8.34 0z" fill="url(#SvgjsLinearGradient2035)"></path><path d="M1137.5 187.5L1112.5 212.5M737.5 187.5L712.5 162.5L687.5 162.5L662.5 162.5L637.5 162.5L612.5 162.5L587.5 162.5M812.5 187.5L787.5 162.5L762.5 162.5L737.5 162.5M1337.5 212.5L1312.5 212.5M937.5 187.5L912.5 212.5M837.5 187.5L812.5 162.5M1187.5 187.5L1162.5 212.5M862.5 187.5L837.5 162.5M1462.5 237.5L1437.5 237.5L1412.5 237.5L1387.5 212.5L1362.5 212.5L1337.5 212.5L1312.5 187.5L1287.5 187.5L1262.5 187.5L1237.5 187.5L1212.5 187.5L1187.5 187.5L1162.5 187.5L1137.5 187.5L1112.5 187.5L1087.5 187.5L1062.5 187.5L1037.5 187.5L1012.5 187.5L987.5 187.5L962.5 187.5L937.5 187.5L912.5 187.5L887.5 187.5L862.5 187.5L837.5 187.5L812.5 187.5L787.5 187.5L762.5 187.5L737.5 187.5L712.5 187.5L687.5 187.5L662.5 187.5L637.5 187.5L612.5 187.5" stroke="url(#SvgjsLinearGradient2035)" stroke-width="4.17"></path><path d="M608.33 187.5 a4.17 4.17 0 1 0 8.34 0 a4.17 4.17 0 1 0 -8.34 0zM1108.33 212.5 a4.17 4.17 0 1 0 8.34 0 a4.17 4.17 0 1 0 -8.34 0zM583.33 162.5 a4.17 4.17 0 1 0 8.34 0 a4.17 4.17 0 1 0 -8.34 0zM733.33 162.5 a4.17 4.17 0 1 0 8.34 0 a4.17 4.17 0 1 0 -8.34 0zM1308.33 212.5 a4.17 4.17 0 1 0 8.34 0 a4.17 4.17 0 1 0 -8.34 0zM908.33 212.5 a4.17 4.17 0 1 0 8.34 0 a4.17 4.17 0 1 0 -8.34 0zM808.33 162.5 a4.17 4.17 0 1 0 8.34 0 a4.17 4.17 0 1 0 -8.34 0zM1158.33 212.5 a4.17 4.17 0 1 0 8.34 0 a4.17 4.17 0 1 0 -8.34 0zM833.33 162.5 a4.17 4.17 0 1 0 8.34 0 a4.17 4.17 0 1 0 -8.34 0z" fill="url(#SvgjsLinearGradient2035)"></path><path d="M1312.5 387.5L1287.5 362.5M1387.5 362.5L1362.5 362.5L1337.5 362.5L1312.5 362.5M987.5 387.5L962.5 362.5L937.5 362.5L912.5 362.5M1012.5 387.5L987.5 362.5L962.5 337.5M1462.5 337.5L1437.5 337.5L1412.5 362.5L1387.5 362.5L1362.5 387.5L1337.5 387.5L1312.5 387.5L1287.5 387.5L1262.5 387.5L1237.5 387.5L1212.5 387.5L1187.5 387.5L1162.5 387.5L1137.5 387.5L1112.5 387.5L1087.5 387.5L1062.5 387.5L1037.5 387.5L1012.5 387.5L987.5 387.5L962.5 387.5L937.5 387.5" stroke="url(#SvgjsLinearGradient2035)" stroke-width="4.17"></path><path d="M933.33 387.5 a4.17 4.17 0 1 0 8.34 0 a4.17 4.17 0 1 0 -8.34 0zM1283.33 362.5 a4.17 4.17 0 1 0 8.34 0 a4.17 4.17 0 1 0 -8.34 0zM1308.33 362.5 a4.17 4.17 0 1 0 8.34 0 a4.17 4.17 0 1 0 -8.34 0zM908.33 362.5 a4.17 4.17 0 1 0 8.34 0 a4.17 4.17 0 1 0 -8.34 0zM958.33 337.5 a4.17 4.17 0 1 0 8.34 0 a4.17 4.17 0 1 0 -8.34 0z" fill="url(#SvgjsLinearGradient2035)"></path><path d="M1462.5 212.5L1437.5 212.5L1412.5 212.5" stroke="url(#SvgjsLinearGradient2035)" stroke-width="4.17"></path><path d="M1408.33 212.5 a4.17 4.17 0 1 0 8.34 0 a4.17 4.17 0 1 0 -8.34 0z" fill="url(#SvgjsLinearGradient2035)"></path><path d="M987.5 412.5L962.5 437.5L937.5 437.5L912.5 437.5L887.5 462.5M862.5 437.5L837.5 412.5L812.5 412.5M787.5 437.5L762.5 412.5L737.5 412.5L712.5 387.5L687.5 387.5L662.5 387.5M1262.5 412.5L1237.5 437.5L1212.5 437.5L1187.5 437.5L1162.5 437.5L1137.5 437.5L1112.5 437.5L1087.5 437.5L1062.5 437.5M887.5 437.5L862.5 412.5L837.5 387.5L812.5 362.5L787.5 337.5L762.5 337.5M1012.5 412.5L987.5 437.5L962.5 462.5M912.5 412.5L887.5 412.5L862.5 387.5L837.5 362.5L812.5 337.5M1287.5 412.5L1262.5 437.5M1462.5 362.5L1437.5 362.5L1412.5 387.5L1387.5 387.5L1362.5 412.5L1337.5 412.5L1312.5 412.5L1287.5 412.5L1262.5 412.5L1237.5 412.5L1212.5 412.5L1187.5 412.5L1162.5 412.5L1137.5 412.5L1112.5 412.5L1087.5 412.5L1062.5 412.5L1037.5 412.5L1012.5 412.5L987.5 412.5L962.5 412.5L937.5 412.5L912.5 412.5L887.5 437.5L862.5 437.5L837.5 437.5L812.5 437.5L787.5 437.5L762.5 437.5L737.5 437.5L712.5 412.5L687.5 412.5L662.5 412.5" stroke="url(#SvgjsLinearGradient2035)" stroke-width="4.17"></path><path d="M658.33 412.5 a4.17 4.17 0 1 0 8.34 0 a4.17 4.17 0 1 0 -8.34 0zM883.33 462.5 a4.17 4.17 0 1 0 8.34 0 a4.17 4.17 0 1 0 -8.34 0zM808.33 412.5 a4.17 4.17 0 1 0 8.34 0 a4.17 4.17 0 1 0 -8.34 0zM658.33 387.5 a4.17 4.17 0 1 0 8.34 0 a4.17 4.17 0 1 0 -8.34 0zM1058.33 437.5 a4.17 4.17 0 1 0 8.34 0 a4.17 4.17 0 1 0 -8.34 0zM758.33 337.5 a4.17 4.17 0 1 0 8.34 0 a4.17 4.17 0 1 0 -8.34 0zM958.33 462.5 a4.17 4.17 0 1 0 8.34 0 a4.17 4.17 0 1 0 -8.34 0zM808.33 337.5 a4.17 4.17 0 1 0 8.34 0 a4.17 4.17 0 1 0 -8.34 0zM1258.33 437.5 a4.17 4.17 0 1 0 8.34 0 a4.17 4.17 0 1 0 -8.34 0z" fill="url(#SvgjsLinearGradient2035)"></path><path d="M1237.5 137.5L1212.5 162.5M1212.5 137.5L1187.5 137.5M912.5 137.5L887.5 162.5L862.5 162.5M1362.5 187.5L1337.5 162.5L1312.5 137.5L1287.5 137.5L1262.5 137.5M937.5 162.5L912.5 162.5M1387.5 187.5L1362.5 162.5L1337.5 137.5M1262.5 162.5L1237.5 162.5M1462.5 187.5L1437.5 187.5L1412.5 187.5L1387.5 187.5L1362.5 187.5L1337.5 187.5L1312.5 162.5L1287.5 162.5L1262.5 162.5L1237.5 137.5L1212.5 137.5L1187.5 162.5L1162.5 162.5L1137.5 162.5L1112.5 162.5L1087.5 162.5L1062.5 162.5L1037.5 162.5L1012.5 162.5L987.5 162.5L962.5 162.5L937.5 162.5L912.5 137.5L887.5 137.5L862.5 137.5L837.5 137.5L812.5 137.5L787.5 137.5L762.5 137.5L737.5 137.5" stroke="url(#SvgjsLinearGradient2035)" stroke-width="4.17"></path><path d="M733.33 137.5 a4.17 4.17 0 1 0 8.34 0 a4.17 4.17 0 1 0 -8.34 0zM1208.33 162.5 a4.17 4.17 0 1 0 8.34 0 a4.17 4.17 0 1 0 -8.34 0zM1183.33 137.5 a4.17 4.17 0 1 0 8.34 0 a4.17 4.17 0 1 0 -8.34 0zM858.33 162.5 a4.17 4.17 0 1 0 8.34 0 a4.17 4.17 0 1 0 -8.34 0zM1258.33 137.5 a4.17 4.17 0 1 0 8.34 0 a4.17 4.17 0 1 0 -8.34 0zM908.33 162.5 a4.17 4.17 0 1 0 8.34 0 a4.17 4.17 0 1 0 -8.34 0zM1333.33 137.5 a4.17 4.17 0 1 0 8.34 0 a4.17 4.17 0 1 0 -8.34 0zM1233.33 162.5 a4.17 4.17 0 1 0 8.34 0 a4.17 4.17 0 1 0 -8.34 0z" fill="url(#SvgjsLinearGradient2035)"></path><path d="M862.5 462.5L837.5 487.5L812.5 487.5M1012.5 487.5L987.5 512.5L962.5 512.5L937.5 512.5L912.5 512.5L887.5 512.5L862.5 512.5L837.5 512.5L812.5 512.5M887.5 487.5L862.5 487.5M937.5 487.5L912.5 462.5M1212.5 462.5L1187.5 487.5L1162.5 487.5L1137.5 487.5L1112.5 487.5L1087.5 512.5L1062.5 512.5M587.5 462.5L562.5 487.5L537.5 487.5L512.5 487.5M562.5 462.5L537.5 437.5L512.5 412.5L487.5 412.5L462.5 412.5L437.5 412.5L412.5 412.5L387.5 387.5M1062.5 487.5L1037.5 462.5L1012.5 462.5L987.5 462.5M612.5 462.5L587.5 487.5L562.5 512.5L537.5 512.5L512.5 512.5L487.5 512.5L462.5 512.5M1462.5 387.5L1437.5 387.5L1412.5 412.5L1387.5 412.5L1362.5 437.5L1337.5 462.5L1312.5 462.5L1287.5 462.5L1262.5 462.5L1237.5 462.5L1212.5 462.5L1187.5 462.5L1162.5 462.5L1137.5 462.5L1112.5 462.5L1087.5 487.5L1062.5 487.5L1037.5 487.5L1012.5 487.5L987.5 487.5L962.5 487.5L937.5 487.5L912.5 487.5L887.5 487.5L862.5 462.5L837.5 462.5L812.5 462.5L787.5 462.5L762.5 462.5L737.5 462.5L712.5 462.5L687.5 462.5L662.5 462.5L637.5 462.5L612.5 462.5L587.5 462.5L562.5 462.5L537.5 462.5" stroke="url(#SvgjsLinearGradient2035)" stroke-width="4.17"></path><path d="M533.33 462.5 a4.17 4.17 0 1 0 8.34 0 a4.17 4.17 0 1 0 -8.34 0zM808.33 487.5 a4.17 4.17 0 1 0 8.34 0 a4.17 4.17 0 1 0 -8.34 0zM808.33 512.5 a4.17 4.17 0 1 0 8.34 0 a4.17 4.17 0 1 0 -8.34 0zM858.33 487.5 a4.17 4.17 0 1 0 8.34 0 a4.17 4.17 0 1 0 -8.34 0zM908.33 462.5 a4.17 4.17 0 1 0 8.34 0 a4.17 4.17 0 1 0 -8.34 0zM1058.33 512.5 a4.17 4.17 0 1 0 8.34 0 a4.17 4.17 0 1 0 -8.34 0zM508.33 487.5 a4.17 4.17 0 1 0 8.34 0 a4.17 4.17 0 1 0 -8.34 0zM383.33 387.5 a4.17 4.17 0 1 0 8.34 0 a4.17 4.17 0 1 0 -8.34 0zM983.33 462.5 a4.17 4.17 0 1 0 8.34 0 a4.17 4.17 0 1 0 -8.34 0zM458.33 512.5 a4.17 4.17 0 1 0 8.34 0 a4.17 4.17 0 1 0 -8.34 0z" fill="url(#SvgjsLinearGradient2035)"></path><path d="M762.5 112.5L737.5 87.5M987.5 137.5L962.5 112.5L937.5 112.5M787.5 112.5L762.5 87.5L737.5 62.5L712.5 62.5M1312.5 112.5L1287.5 87.5L1262.5 87.5L1237.5 87.5L1212.5 87.5L1187.5 87.5L1162.5 87.5L1137.5 87.5L1112.5 87.5L1087.5 87.5L1062.5 87.5M912.5 112.5L887.5 87.5M1187.5 112.5L1162.5 112.5M1012.5 137.5L987.5 112.5M1362.5 112.5L1337.5 87.5L1312.5 87.5L1287.5 62.5L1262.5 62.5M1462.5 162.5L1437.5 137.5L1412.5 137.5L1387.5 112.5L1362.5 112.5L1337.5 112.5L1312.5 112.5L1287.5 112.5L1262.5 112.5L1237.5 112.5L1212.5 112.5L1187.5 112.5L1162.5 137.5L1137.5 137.5L1112.5 137.5L1087.5 137.5L1062.5 137.5L1037.5 137.5L1012.5 137.5L987.5 137.5L962.5 137.5L937.5 137.5L912.5 112.5L887.5 112.5L862.5 112.5L837.5 112.5L812.5 112.5L787.5 112.5L762.5 112.5L737.5 112.5L712.5 112.5L687.5 112.5L662.5 112.5" stroke="url(#SvgjsLinearGradient2035)" stroke-width="4.17"></path><path d="M658.33 112.5 a4.17 4.17 0 1 0 8.34 0 a4.17 4.17 0 1 0 -8.34 0zM733.33 87.5 a4.17 4.17 0 1 0 8.34 0 a4.17 4.17 0 1 0 -8.34 0zM933.33 112.5 a4.17 4.17 0 1 0 8.34 0 a4.17 4.17 0 1 0 -8.34 0zM708.33 62.5 a4.17 4.17 0 1 0 8.34 0 a4.17 4.17 0 1 0 -8.34 0zM1058.33 87.5 a4.17 4.17 0 1 0 8.34 0 a4.17 4.17 0 1 0 -8.34 0zM883.33 87.5 a4.17 4.17 0 1 0 8.34 0 a4.17 4.17 0 1 0 -8.34 0zM1158.33 112.5 a4.17 4.17 0 1 0 8.34 0 a4.17 4.17 0 1 0 -8.34 0zM983.33 112.5 a4.17 4.17 0 1 0 8.34 0 a4.17 4.17 0 1 0 -8.34 0zM1258.33 62.5 a4.17 4.17 0 1 0 8.34 0 a4.17 4.17 0 1 0 -8.34 0z" fill="url(#SvgjsLinearGradient2035)"></path></g></g><defs><mask id="SvgjsMask2034"><rect width="1440" height="560" fill="#ffffff"></rect></mask><linearGradient x1="0" y1="280" x2="1440" y2="280" gradientUnits="userSpaceOnUse" id="SvgjsLinearGradient2035"><stop stop-color="rgba(167, 164, 255, 1)" offset="0"></stop><stop stop-color="rgba(101, 183, 255, 1)" offset="0.2"></stop><stop stop-color="rgba(108, 229, 183, 1)" offset="0.41"></stop><stop stop-color="rgba(255, 226, 77, 1)" offset="0.63"></stop><stop stop-color="rgba(255, 173, 77, 1)" offset="0.82"></stop><stop stop-color="rgba(255, 128, 128, 1)" offset="1"></stop></linearGradient></defs></svg>