<svg xmlns="http://www.w3.org/2000/svg" version="1.1" xmlns:xlink="http://www.w3.org/1999/xlink" xmlns:svgjs="http://svgjs.com/svgjs" width="1440" height="1080" preserveAspectRatio="none" viewBox="0 0 1440 1080"><g mask="url(&quot;#SvgjsMask1137&quot;)" fill="none"><path d="M1512 1080L0 1080 L0 938.94Q28.39 847.33, 120 875.72Q199.42 835.14, 240 914.57Q319.86 874.43, 360 954.3Q362.62 884.92, 432 887.54Q481.49 817.02, 552 866.51Q655.34 849.85, 672 953.19Q698.74 859.93, 792 886.67Q869.61 844.27, 912 921.88Q922.56 860.44, 984 871.01Q1028.14 843.15, 1056 887.29Q1111.24 870.53, 1128 925.78Q1135.19 860.97, 1200 868.16Q1279.86 828.02, 1320 907.88Q1405.05 872.93, 1440 957.99Q1462.08 908.07, 1512 930.14z" fill="rgba(0, 0, 0, 0.13333333333333333)"></path><path d="M1464 1080L0 1080 L0 986.95Q27.33 942.28, 72 969.6Q122.25 947.85, 144 998.1Q154.35 936.45, 216 946.81Q255.97 914.78, 288 954.75Q374.93 921.68, 408 1008.61Q410.68 939.29, 480 941.97Q562.28 952.25, 552 1034.54Q594.63 957.16, 672 999.79Q680.02 935.81, 744 943.83Q812.2 892.03, 864 960.23Q924.86 949.09, 936 1009.95Q977.9 931.86, 1056 973.76Q1101.49 947.25, 1128 992.74Q1193.9 938.64, 1248 1004.54Q1271.85 956.39, 1320 980.24Q1361.42 949.66, 1392 991.08Q1404.51 931.59, 1464 944.1z" fill="rgba(0, 0, 0, 0.13333333333333333)"></path><path d="M1536 1080L0 1080 L0 1041.29Q76.93 998.22, 120 1075.14Q150.1 1033.24, 192 1063.33Q267.94 1019.27, 312 1095.21Q337.07 1000.28, 432 1025.36Q477.84 999.2, 504 1045.04Q571.6 992.63, 624 1060.23Q699.44 1015.67, 744 1091.12Q793.68 1020.8, 864 1070.49Q898.79 985.28, 984 1020.06Q1060.45 976.51, 1104 1052.95Q1156.45 985.4, 1224 1037.86Q1273.42 967.28, 1344 1016.7Q1400.52 1001.22, 1416 1057.74Q1488.59 1010.33, 1536 1082.91z" fill="rgba(240, 240, 240, 1)"></path></g><defs><mask id="SvgjsMask1137"><rect width="1440" height="1080" fill="#ffffff"></rect></mask></defs></svg>