<svg xmlns="http://www.w3.org/2000/svg" version="1.1" xmlns:xlink="http://www.w3.org/1999/xlink" xmlns:svgjs="http://svgjs.com/svgjs" width="1440" height="864" preserveAspectRatio="none" viewBox="0 0 1440 864"><g mask="url(&quot;#SvgjsMask1049&quot;)" fill="none"><path d="M1560 864L0 864 L0 454.02Q96.58 430.6, 120 527.18Q158.52 445.7, 240 484.22Q315.9 440.12, 360 516.02Q364.12 448.14, 432 452.26Q499.4 399.66, 552 467.07Q629.02 424.09, 672 501.11Q737.42 494.53, 744 559.95Q785.42 481.38, 864 522.8Q916.49 455.28, 984 507.77Q1014.75 466.52, 1056 497.27Q1118.03 487.3, 1128 549.33Q1180.25 481.58, 1248 533.83Q1244.33 458.16, 1320 454.48Q1386.27 400.75, 1440 467.02Q1544.22 451.24, 1560 555.45z" fill="rgba(255, 255, 255, 0.13333333333333333)"></path><path d="M1512 864L0 864 L0 636.53Q-10.54 553.99, 72 543.45Q164.61 516.06, 192 608.66Q284.01 580.67, 312 672.68Q349.37 590.05, 432 627.42Q426.81 550.23, 504 545.04Q606.58 575.62, 576 678.19Q574.67 556.87, 696 555.54Q739.33 526.87, 768 570.2Q877.48 559.68, 888 669.16Q935.06 596.22, 1008 643.29Q1026.54 541.83, 1128 560.36Q1158.24 518.61, 1200 548.85Q1284.24 513.1, 1320 597.34Q1417.95 575.3, 1440 673.25Q1465.43 626.68, 1512 652.12z" fill="rgba(255, 255, 255, 0.13333333333333333)"></path><path d="M1512 864L0 864 L0 784.05Q58.98 723.02, 120 782Q140.96 682.96, 240 703.92Q285.03 676.95, 312 721.99Q362.61 700.6, 384 751.2Q394.54 689.74, 456 700.28Q478.38 650.66, 528 673.04Q613.75 638.79, 648 724.54Q720.03 676.57, 768 748.6Q819.21 727.81, 840 779.01Q892.82 711.83, 960 764.65Q976.75 709.4, 1032 726.16Q1075.36 697.52, 1104 740.88Q1110.37 675.25, 1176 681.61Q1197.12 630.73, 1248 651.84Q1289.57 621.41, 1320 662.98Q1368.68 639.66, 1392 688.34Q1467.32 643.66, 1512 718.99z" fill="rgba(255, 255, 255, 0.13333333333333333)"></path><path d="M1488 864L0 864 L0 873.78Q-5.53 796.25, 72 790.72Q120.39 719.11, 192 767.5Q288.87 744.37, 312 841.24Q361.33 770.57, 432 819.89Q452.56 768.45, 504 789.01Q594.03 759.04, 624 849.07Q667.86 820.93, 696 864.8Q707.45 756.25, 816 767.69Q875.42 755.11, 888 814.53Q942.8 797.33, 960 852.12Q981.74 753.86, 1080 775.6Q1110.57 734.17, 1152 764.75Q1210.45 751.2, 1224 809.65Q1289.27 802.92, 1296 868.2Q1301.88 754.08, 1416 759.96Q1517.71 789.67, 1488 891.39z" fill="rgba(240, 240, 240, 1)"></path></g><defs><mask id="SvgjsMask1049"><rect width="1440" height="864" fill="#ffffff"></rect></mask></defs></svg>