<?xml version="1.0" encoding="iso-8859-1"?>
<!-- Generator: Adobe Illustrator 19.0.0, SVG Export Plug-In . SVG Version: 6.00 Build 0)  -->
<svg version="1.1" id="Layer_1" xmlns="http://www.w3.org/2000/svg" xmlns:xlink="http://www.w3.org/1999/xlink" x="0px" y="0px"
	 viewBox="0 0 512 512" style="enable-background:new 0 0 512 512;" xml:space="preserve">
<path style="fill:#FEDFB5;" d="M455.556,361.391c0,52.006-42.159,94.165-94.165,94.165H150.609
	c-52.006,0-94.165-42.159-94.165-94.165V150.609c0-52.006,42.159-94.165,94.165-94.165h210.782
	c52.006,0,94.165,42.159,94.165,94.165V361.391z"/>
<path style="fill:#FFF1D8;" d="M255.999,56.444h-105.39c-52.006,0-94.165,42.159-94.165,94.165v210.782
	c0,52.005,42.159,94.165,94.165,94.165h105.39V56.444z"/>
<path style="fill:#3AB94B;" d="M271.294,242.104V187.76c25.526,4.476,25.531,20.337,25.531,26.111h30.589
	c0-31.9-20.682-52.481-56.12-56.962v-21.724h-30.589v21.724c-35.437,4.481-56.12,25.061-56.12,56.962s20.682,52.48,56.12,56.961
	v54.344c-25.526-4.476-25.531-20.337-25.531-26.111h-30.589c0,31.9,20.682,52.481,56.12,56.962v21.724h30.589v-21.724
	c35.437-4.481,56.12-25.061,56.12-56.962S306.731,246.585,271.294,242.104z M215.174,213.871c0-5.774,0.005-21.635,25.531-26.111
	v52.221C215.179,235.506,215.174,219.646,215.174,213.871z M271.294,325.177v-52.222c25.526,4.476,25.531,20.337,25.531,26.111
	S296.82,320.7,271.294,325.177z"/>
<path style="fill:#ffd500;" d="M361.391,41.149H150.609c-60.355,0-109.46,49.104-109.46,109.461v51.652l-19.521-19.521L0,204.37
	l56.444,56.444l56.443-56.444l-21.629-21.629l-19.52,19.52v-51.652c0-43.489,35.381-78.872,78.871-78.872H361.39
	c43.488,0,78.871,35.381,78.871,78.872v78.379h30.589v-78.379C470.85,90.253,421.746,41.149,361.391,41.149z"/>
<path style="fill:#ccaa00;" d="M512,316.038l-56.444-56.443l-56.443,56.443l21.63,21.629l19.52-19.52v43.244
	c0,43.488-35.381,78.871-78.871,78.871H150.609c-43.488,0-78.871-35.381-78.871-78.871V291.42H41.149v69.971
	c0,60.356,49.104,109.46,109.46,109.46h210.782c60.355,0,109.46-49.103,109.46-109.46v-43.245l19.521,19.52L512,316.038z"/>
<g>
</g>
<g>
</g>
<g>
</g>
<g>
</g>
<g>
</g>
<g>
</g>
<g>
</g>
<g>
</g>
<g>
</g>
<g>
</g>
<g>
</g>
<g>
</g>
<g>
</g>
<g>
</g>
<g>
</g>
</svg>
