<?xml version="1.0" encoding="iso-8859-1"?>
<!-- Generator: Adobe Illustrator 16.0.0, SVG Export Plug-In . SVG Version: 6.00 Build 0)  -->
<!DOCTYPE svg PUBLIC "-//W3C//DTD SVG 1.1//EN" "http://www.w3.org/Graphics/SVG/1.1/DTD/svg11.dtd">
<svg version="1.1" id="Capa_1" xmlns="http://www.w3.org/2000/svg" xmlns:xlink="http://www.w3.org/1999/xlink" x="0px" y="0px"
	 width="31.672px" height="31.672px" viewBox="0 0 31.672 31.672" style="enable-background:new 0 0 31.672 31.672;"
	 xml:space="preserve">
<g>
	<g>
		<path d="M5.606,11.308h20.518c0.607,0,1.104-0.498,1.104-1.107s-0.494-1.107-1.104-1.107H5.606c-0.609,0-1.104,0.498-1.104,1.107
			C4.502,10.809,4.998,11.308,5.606,11.308z"/>
		<path d="M5.606,15.215h20.518c0.607,0,1.104-0.465,1.104-1.074s-0.494-1.075-1.104-1.075H5.606c-0.609,0-1.104,0.466-1.104,1.075
			S4.998,15.215,5.606,15.215z"/>
		<path d="M15.398,17.234H6.328c-0.609,0-1.103,0.498-1.103,1.108c0,0.609,0.494,1.107,1.103,1.107h9.071
			c0.609,0,1.104-0.498,1.104-1.107C16.502,17.732,16.008,17.234,15.398,17.234z"/>
		<path d="M15.398,21.337H6.328c-0.609,0-1.103,0.498-1.103,1.109c0,0.606,0.494,1.104,1.103,1.104h9.071
			c0.609,0,1.104-0.498,1.104-1.104C16.502,21.835,16.008,21.337,15.398,21.337z"/>
		<circle cx="22.893" cy="19.976" r="3.232"/>
		<path d="M31.643,12.039l-0.541-1.622l0.541-1.622c0.039-0.113,0.039-0.235,0-0.348l-0.551-1.654L31.531,4.9
			c0.043-0.183-0.012-0.375-0.144-0.51c-0.13-0.135-0.319-0.19-0.505-0.156l-2.556,0.52l-2.386-0.57
			c-0.084-0.021-0.172-0.021-0.256,0l-2.371,0.568l-2.369-0.568c-0.086-0.021-0.172-0.021-0.258,0l-2.369,0.568l-2.365-0.568
			c-0.084-0.021-0.174-0.021-0.258,0l-2.364,0.568l-2.367-0.568c-0.085-0.021-0.174-0.021-0.257,0L8.337,4.753L5.971,4.185
			c-0.084-0.021-0.173-0.021-0.258,0L3.336,4.754l-2.55-0.518C0.604,4.201,0.413,4.259,0.281,4.393
			C0.149,4.527,0.096,4.72,0.138,4.901l0.44,1.9l-0.55,1.661c-0.038,0.113-0.038,0.234,0,0.348l0.541,1.631l-0.541,1.627
			c-0.038,0.113-0.038,0.235,0,0.349l0.541,1.63l-0.541,1.627c-0.038,0.113-0.038,0.235,0,0.349l0.541,1.624l-0.541,1.628
			c-0.038,0.113-0.038,0.235,0,0.351l0.541,1.621l-0.541,1.623c-0.038,0.111-0.038,0.233,0,0.349l0.55,1.651L0.14,26.763
			c-0.043,0.184,0.011,0.375,0.142,0.51c0.131,0.137,0.322,0.197,0.505,0.162l2.46-0.493h0.182l2.301,0.546
			c0.084,0.021,0.171,0.022,0.258,0.004l2.295-0.551h0.149l2.295,0.545c0.043,0.012,0.086,0.016,0.129,0.016s0.087-0.002,0.13-0.014
			l2.295-0.547h0.148l2.292,0.545c0.084,0.021,0.174,0.023,0.259,0.004l2.289-0.55h0.148l2.292,0.545
			c0.086,0.021,0.174,0.023,0.258,0.003l2.294-0.549h0.147l2.294,0.545c0.083,0.021,0.173,0.023,0.257,0.002l2.294-0.548h0.182
			l2.45,0.492c0.04,0.008,0.08,0.006,0.122,0.008c0.305-0.01,0.562-0.244,0.562-0.553c0-0.098-0.024-0.191-0.068-0.271l-0.407-1.742
			l0.551-1.676c0.037-0.113,0.037-0.234,0-0.348l-0.541-1.631l0.541-1.627c0.039-0.113,0.039-0.235,0-0.349l-0.541-1.629
			l0.541-1.631c0.039-0.112,0.039-0.234,0-0.348l-0.541-1.625l0.541-1.628C31.682,12.273,31.682,12.151,31.643,12.039z M28.54,7.399
			v17.326H3.202V7.399H28.54z"/>
	</g>
</g>
<g>
</g>
<g>
</g>
<g>
</g>
<g>
</g>
<g>
</g>
<g>
</g>
<g>
</g>
<g>
</g>
<g>
</g>
<g>
</g>
<g>
</g>
<g>
</g>
<g>
</g>
<g>
</g>
<g>
</g>
</svg>
