<?xml version="1.0" encoding="iso-8859-1"?>
<!-- Generator: Adobe Illustrator 19.0.0, SVG Export Plug-In . SVG Version: 6.00 Build 0)  -->
<svg version="1.1" id="Layer_1" xmlns="http://www.w3.org/2000/svg" xmlns:xlink="http://www.w3.org/1999/xlink" x="0px" y="0px"
	 viewBox="0 0 512 512" style="enable-background:new 0 0 512 512;" xml:space="preserve">
<path style="fill:#6BA9E2;" d="M139.13,512H38.957c-9.217,0-16.696-7.479-16.696-16.696V16.696C22.261,7.479,29.739,0,38.957,0
	H139.13c9.217,0,16.696,7.479,16.696,16.696v478.609C155.826,504.521,148.348,512,139.13,512z"/>
<path style="fill:#F0CA45;" d="M473.043,512H372.87c-9.217,0-16.696-7.479-16.696-16.696V150.261
	c0-9.217,7.479-16.696,16.696-16.696h100.174c9.217,0,16.696,7.479,16.696,16.696v345.043C489.739,504.521,482.261,512,473.043,512z
	"/>
<path style="fill:#FF6243;" d="M306.087,512H205.913c-9.217,0-16.696-7.479-16.696-16.696V283.826
	c0-9.217,7.479-16.696,16.696-16.696h100.174c9.217,0,16.696,7.479,16.696,16.696v211.478C322.783,504.521,315.304,512,306.087,512z
	"/>
<path style="fill:#FF3501;" d="M306.087,267.13H256V512h50.087c9.217,0,16.696-7.479,16.696-16.696V283.826
	C322.783,274.609,315.304,267.13,306.087,267.13z"/>
<g>
</g>
<g>
</g>
<g>
</g>
<g>
</g>
<g>
</g>
<g>
</g>
<g>
</g>
<g>
</g>
<g>
</g>
<g>
</g>
<g>
</g>
<g>
</g>
<g>
</g>
<g>
</g>
<g>
</g>
</svg>
