<?xml version="1.0" encoding="utf-8"?>

<svg version="1.1" id="Icons" xmlns="http://www.w3.org/2000/svg" xmlns:xlink="http://www.w3.org/1999/xlink" x="0px" y="0px"
	 viewBox="0 0 32 32" style="enable-background:new 0 0 32 32;" xml:space="preserve">
<style type="text/css">
	.st0{fill:none;stroke:#000000;stroke-width:2;stroke-linecap:round;stroke-linejoin:round;stroke-miterlimit:10;}
</style>
<path d="M29.9,17.5C29.7,17.2,29.4,17,29,17c-2.2,0-4.3,1-5.6,2.8L22.5,21c-1.1,1.3-2.8,2-4.5,2h-3c-0.6,0-1-0.4-1-1s0.4-1,1-1h1.9
	c1.6,0,3.1-1.3,3.1-2.9c0,0,0-0.1,0-0.1c0-0.5-0.5-1-1-1l-6.1,0c-3.6,0-6.5,1.6-8.1,4.2l-2.7,4.2c-0.2,0.3-0.2,0.7,0,1l3,5
	c0.1,0.2,0.4,0.4,0.6,0.5c0.1,0,0.1,0,0.2,0c0.2,0,0.4-0.1,0.6-0.2c3.8-2.5,8.2-3.8,12.7-3.8c3.3,0,6.3-1.8,7.9-4.7l2.7-4.8
	C30,18.2,30,17.8,29.9,17.5z"/>
<path d="M12.9,15C12.9,15,12.9,15,12.9,15l6.1,0c1.6,0,3,1.3,3,2.9l0,0.2c0,0,0,0,0,0l6.2-6.4c2.4-2.5,2.4-6.4,0-8.9
	C27,1.7,25.5,1,23.9,1c-1.6,0-3.2,0.7-4.4,1.9L19,3.4l-0.5-0.5C17.3,1.7,15.8,1,14.1,1C12.5,1,11,1.7,9.8,2.9
	c-2.4,2.5-2.4,6.4,0,8.9L12.9,15z M14,9h1.6l1.7-1.7C17.5,7.1,17.8,7,18.2,7c0.3,0.1,0.6,0.3,0.7,0.5l1,2l1.2-2.9
	C21.2,6.3,21.5,6,21.9,6c0.4,0,0.7,0.1,0.9,0.4l2,3c0.3,0.5,0.2,1.1-0.3,1.4c-0.5,0.3-1.1,0.2-1.4-0.3l-0.9-1.4l-1.3,3.2
	C20.8,12.7,20.4,13,20,13c0,0,0,0,0,0c-0.4,0-0.7-0.2-0.9-0.6l-1.4-2.8l-1,1C16.5,10.9,16.3,11,16,11h-2c-0.6,0-1-0.4-1-1
	S13.4,9,14,9z"/>
</svg>
