<?xml version="1.0" encoding="iso-8859-1"?>
<!-- Generator: Adobe Illustrator 19.0.0, SVG Export Plug-In . SVG Version: 6.00 Build 0)  -->
<svg version="1.1" id="Layer_1" xmlns="http://www.w3.org/2000/svg" xmlns:xlink="http://www.w3.org/1999/xlink" x="0px" y="0px"
	 viewBox="0 0 512 512" style="enable-background:new 0 0 512 512;" xml:space="preserve">
<polygon style="fill:#B3B3B3;" points="512,0 256,0 235.085,256 256,512 512,512 "/>
<g>
	<polygon style="fill:#D8D8D8;" points="458.102,53.898 256,53.898 235.085,256 256,458.102 458.102,458.102 	"/>
	<rect style="fill:#D8D8D8;" width="256" height="512"/>
</g>
<rect x="53.897" y="53.898" style="fill:#EEEEEE;" width="202.104" height="404.208"/>
<rect x="394.376" y="229.972" style="fill:#898989;" width="31.347" height="52.049"/>
<g>
	<rect x="27.873" y="87.259" style="fill:#B3B3B3;" width="73.613" height="31.347"/>
	<rect x="27.873" y="393.394" style="fill:#B3B3B3;" width="73.613" height="31.347"/>
</g>
<polygon style="fill:#FC2B32;" points="287.979,224.021 287.979,150.002 256,150.002 235.085,256 256,361.998 287.979,361.998 
	287.979,287.979 361.998,287.979 361.998,224.021 "/>
<polygon style="fill:#FF5D65;" points="224.021,150.002 224.021,224.021 150.001,224.021 150.001,287.979 224.021,287.979 
	224.021,361.998 256,361.998 256,150.002 "/>
<g>
</g>
<g>
</g>
<g>
</g>
<g>
</g>
<g>
</g>
<g>
</g>
<g>
</g>
<g>
</g>
<g>
</g>
<g>
</g>
<g>
</g>
<g>
</g>
<g>
</g>
<g>
</g>
<g>
</g>
</svg>
