<?xml version="1.0" encoding="iso-8859-1"?>
<!-- Generator: Adobe Illustrator 19.0.0, SVG Export Plug-In . SVG Version: 6.00 Build 0)  -->
<svg version="1.1" id="Layer_1" xmlns="http://www.w3.org/2000/svg" xmlns:xlink="http://www.w3.org/1999/xlink" x="0px" y="0px"
	 viewBox="0 0 512.004 512.004" style="enable-background:new 0 0 512.004 512.004;" xml:space="preserve">
<path style="fill:#C2FB3B;" d="M465.356,213.907c-5.848-5.548-12.154-10.616-18.837-15.171c-6.302-4.293-12.932-8.134-19.87-11.438
	c-0.098-0.047-0.202-0.09-0.3-0.137c-6.753-3.199-13.78-5.905-21.037-8.074c-6.916-2.067-14.043-3.643-21.338-4.691
	c-6.972-1-14.093-1.531-21.338-1.531c-1.781,0-3.553,0.036-5.319,0.097c-0.587,0.021-1.169,0.061-1.755,0.088
	c-1.175,0.055-2.35,0.112-3.521,0.195c-0.697,0.048-1.39,0.117-2.084,0.175c-1.048,0.09-2.097,0.178-3.138,0.289
	c-0.741,0.078-1.478,0.172-2.216,0.26c-0.987,0.119-1.974,0.242-2.956,0.381c-0.758,0.108-1.516,0.226-2.273,0.344
	c-0.952,0.149-1.9,0.306-2.845,0.474c-0.767,0.135-1.529,0.277-2.29,0.425c-0.926,0.178-1.849,0.367-2.768,0.563
	c-0.629,0.134-1.256,0.273-1.883,0.414c-0.138,0.031-0.277,0.06-0.415,0.091c-0.903,0.208-1.804,0.428-2.7,0.652
	c-0.764,0.191-1.528,0.381-2.287,0.583c-0.694,0.185-1.383,0.383-2.073,0.58c-0.192,0.055-0.387,0.107-0.58,0.162
	c-0.219,0.063-0.438,0.128-0.657,0.191c-0.536,0.154-1.075,0.304-1.607,0.467c-0.878,0.267-1.748,0.553-2.619,0.835
	c-0.595,0.193-1.192,0.385-1.785,0.582c-0.147,0.048-0.294,0.094-0.44,0.144c-0.883,0.302-1.755,0.626-2.632,0.945
	c-0.481,0.175-0.96,0.358-1.44,0.536s-0.963,0.351-1.44,0.536c-0.626,0.242-1.245,0.498-1.868,0.747
	c-0.623,0.249-1.249,0.488-1.868,0.747c-0.193,0.081-0.385,0.169-0.578,0.253c-0.634,0.275-1.265,0.552-1.898,0.831
	c-0.698,0.307-1.403,0.607-2.098,0.925c-0.845,0.388-1.681,0.797-2.519,1.201c-0.656,0.316-1.316,0.626-1.966,0.952
	c-0.848,0.424-1.684,0.863-2.522,1.303c-0.624,0.327-1.252,0.653-1.871,0.989c-0.846,0.459-1.686,0.93-2.521,1.405
	c-0.593,0.337-1.186,0.674-1.774,1.019c-0.849,0.496-1.69,1.003-2.525,1.515c-0.558,0.34-1.111,0.684-1.663,1.033
	c-0.854,0.538-1.7,1.083-2.542,1.636c-0.511,0.337-1.02,0.68-1.525,1.023c-0.866,0.586-1.728,1.175-2.58,1.778
	c-0.451,0.32-0.899,0.649-1.347,0.973c-0.235,0.169-0.465,0.344-0.698,0.515c-0.656,0.477-1.313,0.953-1.957,1.442
	c-0.358,0.272-0.711,0.552-1.067,0.826c-0.952,0.735-1.902,1.474-2.835,2.23c-0.148,0.119-0.293,0.246-0.441,0.367
	c-2.329,1.905-4.598,3.876-6.807,5.915c-2.208,2.038-4.356,4.141-6.437,6.307c-0.051,0.053-0.102,0.105-0.154,0.158
	c-0.05,0.051-0.101,0.102-0.151,0.154c-0.918,0.959-1.814,1.936-2.706,2.919c-0.101,0.112-0.203,0.223-0.306,0.336
	c-0.102,0.112-0.205,0.222-0.306,0.336c-0.842,0.94-1.669,1.896-2.487,2.858c-0.235,0.276-0.472,0.551-0.706,0.829
	c-0.797,0.95-1.579,1.912-2.353,2.882c-0.233,0.294-0.469,0.589-0.7,0.885c-0.489,0.623-0.966,1.258-1.447,1.889
	c-0.272,0.357-0.551,0.71-0.819,1.07c-0.218,0.293-0.435,0.587-0.652,0.882c-0.212,0.289-0.415,0.583-0.626,0.873
	c-0.532,0.733-1.064,1.464-1.582,2.208c-0.184,0.265-0.364,0.531-0.546,0.795c-0.743,1.083-1.478,2.172-2.194,3.275
	c-0.124,0.191-0.243,0.384-0.366,0.573c-0.764,1.189-1.516,2.386-2.248,3.596c-1.016,1.684-1.992,3.393-2.943,5.118
	c-0.39,0.708-0.78,1.418-1.157,2.134c-0.292,0.546-0.579,1.094-0.862,1.644c-0.681,1.324-1.351,2.654-1.993,4.002
	c-3.26,6.844-6.01,13.975-8.209,21.338c-2.067,6.916-3.643,14.044-4.691,21.338c-1.001,6.972-1.531,14.094-1.531,21.338
	c0,1.977,0.048,3.942,0.125,5.901c0.026,0.629,0.065,1.255,0.098,1.882c0.07,1.336,0.149,2.667,0.255,3.994
	c0.057,0.72,0.121,1.438,0.188,2.157c0.117,1.253,0.25,2.501,0.397,3.744c0.085,0.707,0.165,1.415,0.259,2.118
	c0.182,1.361,0.388,2.714,0.607,4.064c0.09,0.552,0.165,1.107,0.26,1.657c0.319,1.836,0.67,3.662,1.054,5.474
	c0.129,0.61,0.279,1.213,0.415,1.819c0.277,1.232,0.562,2.461,0.869,3.683c0.198,0.777,0.405,1.549,0.615,2.322
	c0.282,1.043,0.572,2.083,0.875,3.117c0.239,0.811,0.481,1.62,0.733,2.425c0.312,1,0.64,1.993,0.973,2.984
	c0.267,0.795,0.526,1.593,0.807,2.381c0.393,1.112,0.811,2.211,1.23,3.312c0.464,1.216,0.945,2.425,1.44,3.627
	c0.417,1.01,0.831,2.023,1.27,3.023c0.376,0.859,0.771,1.706,1.162,2.555c0.374,0.814,0.75,1.626,1.139,2.431
	c0.422,0.876,0.856,1.745,1.294,2.612c0.387,0.762,0.782,1.521,1.182,2.276c0.459,0.872,0.922,1.743,1.4,2.603
	c0.404,0.731,0.825,1.451,1.242,2.174c0.498,0.862,0.986,1.73,1.499,2.58c0.001,0,0.001,0.001,0.001,0.001l0,0
	c0.817,1.351,1.654,2.689,2.512,4.012c0.388,0.602,0.792,1.195,1.189,1.791c0.64,0.96,1.289,1.915,1.953,2.859
	c0.35,0.501,0.7,1,1.055,1.496c1.03,1.428,2.073,2.846,3.151,4.238c1.091,1.408,2.208,2.797,3.347,4.165
	c3.42,4.103,7.054,8.02,10.888,11.736c3.881,3.761,7.963,7.315,12.231,10.64c1.423,1.11,2.866,2.193,4.329,3.25
	c6.144,4.442,12.638,8.43,19.43,11.912c20.379,10.447,43.458,16.347,67.889,16.347c82.359,0,149.363-67.004,149.363-149.363
	C512,279.628,494.064,241.142,465.356,213.907z"/>
<path style="fill:#9CDD05;" d="M330.781,311.409l13.363,13.362l18.493-18.493V172.867c-1.781,0-3.553,0.036-5.319,0.097
	c-0.587,0.021-1.169,0.061-1.755,0.088c-1.175,0.055-2.35,0.112-3.521,0.195c-0.697,0.048-1.39,0.117-2.084,0.175
	c-1.048,0.09-2.097,0.178-3.138,0.289c-0.741,0.078-1.478,0.172-2.216,0.26c-0.987,0.119-1.974,0.242-2.956,0.381
	c-0.758,0.108-1.516,0.226-2.273,0.344c-0.952,0.149-1.9,0.306-2.845,0.474c-0.767,0.135-1.529,0.277-2.29,0.425
	c-0.926,0.178-1.849,0.367-2.768,0.563c-0.767,0.164-1.533,0.33-2.297,0.505c-0.903,0.208-1.804,0.428-2.7,0.652
	c-0.764,0.191-1.528,0.381-2.287,0.583c-0.889,0.238-1.771,0.489-2.652,0.743c-0.755,0.216-1.514,0.428-2.265,0.657
	c-0.878,0.267-1.748,0.553-2.619,0.835c-0.741,0.24-1.488,0.474-2.223,0.725c-0.883,0.302-1.755,0.626-2.632,0.945
	c-0.963,0.35-1.926,0.703-2.879,1.071c-1.252,0.484-2.499,0.976-3.736,1.492c-0.832,0.349-1.65,0.72-2.475,1.083
	c-0.698,0.307-1.403,0.607-2.098,0.925c-0.845,0.388-1.681,0.797-2.519,1.201c-0.656,0.316-1.316,0.626-1.966,0.952
	c-0.848,0.424-1.684,0.863-2.522,1.303c-0.624,0.327-1.252,0.653-1.871,0.989c-0.846,0.459-1.686,0.93-2.521,1.405
	c-0.593,0.337-1.186,0.674-1.774,1.019c-0.849,0.496-1.69,1.003-2.525,1.515c-0.558,0.34-1.111,0.684-1.663,1.033
	c-0.854,0.538-1.7,1.083-2.542,1.636c-0.511,0.337-1.02,0.68-1.525,1.023c-0.866,0.586-1.728,1.175-2.58,1.778
	c-0.451,0.32-0.899,0.649-1.347,0.973c-0.892,0.646-1.781,1.293-2.656,1.957c-0.358,0.272-0.711,0.552-1.067,0.826
	c-0.952,0.735-1.902,1.474-2.835,2.23c-0.148,0.119-0.293,0.246-0.441,0.367c-4.656,3.808-9.08,7.889-13.244,12.222
	c-0.1,0.105-0.205,0.208-0.304,0.312c-0.918,0.959-1.814,1.936-2.706,2.919c-0.203,0.225-0.408,0.445-0.612,0.67
	c-0.842,0.94-1.669,1.896-2.487,2.858c-0.235,0.276-0.472,0.551-0.706,0.829c-0.797,0.95-1.579,1.912-2.353,2.882
	c-0.233,0.294-0.469,0.589-0.7,0.885c-0.767,0.977-1.522,1.963-2.266,2.96c-0.218,0.293-0.435,0.587-0.652,0.882
	c-0.747,1.019-1.485,2.044-2.208,3.081c-0.184,0.265-0.364,0.531-0.546,0.795c-0.743,1.083-1.478,2.172-2.194,3.275
	c-0.124,0.191-0.243,0.384-0.366,0.573c-0.764,1.189-1.516,2.386-2.248,3.596c-1.016,1.684-1.992,3.393-2.943,5.118
	c-0.39,0.708-0.78,1.418-1.156,2.134c-0.292,0.546-0.579,1.094-0.862,1.644c-0.681,1.324-1.351,2.654-1.993,4.002
	c-3.26,6.844-6.01,13.975-8.209,21.338c-2.067,6.916-3.643,14.044-4.691,21.338c-1.001,6.972-1.531,14.094-1.531,21.338
	c0,1.977,0.048,3.942,0.125,5.901c0.026,0.629,0.065,1.255,0.098,1.882c0.07,1.336,0.149,2.667,0.255,3.994
	c0.057,0.72,0.121,1.438,0.188,2.157c0.117,1.253,0.25,2.501,0.397,3.744c0.085,0.707,0.165,1.415,0.259,2.118
	c0.182,1.361,0.388,2.714,0.607,4.064c0.09,0.552,0.165,1.107,0.26,1.657c0.319,1.836,0.67,3.662,1.054,5.474
	c0.129,0.61,0.279,1.213,0.415,1.819c0.277,1.232,0.562,2.461,0.869,3.683c0.198,0.777,0.405,1.549,0.615,2.322
	c0.282,1.043,0.572,2.083,0.875,3.117c0.239,0.811,0.481,1.62,0.733,2.425c0.312,1,0.64,1.993,0.973,2.984
	c0.267,0.795,0.526,1.593,0.807,2.381c0.393,1.112,0.811,2.211,1.23,3.312c0.464,1.216,0.945,2.425,1.44,3.627
	c0.417,1.01,0.831,2.023,1.27,3.023c0.376,0.859,0.771,1.706,1.162,2.555c0.374,0.814,0.75,1.626,1.139,2.431
	c0.422,0.876,0.856,1.745,1.294,2.612c0.387,0.762,0.782,1.521,1.182,2.276c0.459,0.872,0.922,1.743,1.4,2.603
	c0.404,0.731,0.825,1.451,1.242,2.174c0.498,0.862,0.986,1.73,1.499,2.58c0.001,0,0.001,0.001,0.001,0.001l0,0
	c0.817,1.351,1.654,2.689,2.512,4.012c0.388,0.602,0.792,1.195,1.189,1.791c0.64,0.96,1.289,1.915,1.953,2.859
	c0.35,0.501,0.7,1,1.055,1.496c1.03,1.428,2.073,2.846,3.151,4.238c4.364,5.633,9.124,10.946,14.235,15.899
	c5.175,5.014,10.707,9.659,16.561,13.891c24.574,17.769,54.742,28.258,87.319,28.258V366.63v-0.001l-3.405,3.407
	c-4.167,4.167-9.628,6.249-15.087,6.249c-5.46,0-10.922-2.083-15.087-6.249l-8.283-8.283l-20.167-20.167
	c-8.333-8.333-8.333-21.844,0-30.177C308.939,303.078,322.45,303.078,330.781,311.409z"/>
<path style="fill:#D8143A;" d="M330.703,40.409c-34.938,0-69.457,13.157-96.036,35.96c-0.001-0.001-0.003-0.001-0.004-0.003
	c-26.584-22.803-61.101-35.955-96.038-35.955C60.892,40.409,0,101.301,0,179.034c0,93.964,65.421,151.396,164.449,238.331
	c8.464,7.431,17.2,15.1,26.188,23.049c0.061,0.055,0.124,0.11,0.186,0.164l29.898,25.826c4.003,3.46,8.972,5.188,13.942,5.191
	c0.003,0,0.006,0,0.007,0c4.972,0,9.943-1.731,13.951-5.192l26.699-23.066c-5.852-4.232-11.386-8.876-16.561-13.891
	c-5.111-4.953-9.869-10.266-14.235-15.899c-1.078-1.391-2.122-2.808-3.151-4.238c-0.357-0.495-0.706-0.996-1.056-1.496
	c-0.663-0.945-1.314-1.898-1.953-2.859c-0.398-0.595-0.801-1.188-1.189-1.791c-0.856-1.324-1.694-2.66-2.512-4.012
	c0,0,0-0.001-0.001-0.001c-0.512-0.851-1.001-1.718-1.499-2.58c-0.417-0.723-0.838-1.444-1.242-2.174
	c-0.478-0.861-0.94-1.731-1.4-2.603c-0.4-0.755-0.795-1.512-1.182-2.276c-0.44-0.866-0.872-1.735-1.294-2.612
	c-0.388-0.805-0.765-1.617-1.139-2.431c-0.391-0.851-0.788-1.697-1.162-2.555c-0.44-1-0.854-2.011-1.27-3.023
	c-0.495-1.202-0.976-2.41-1.44-3.627c-0.42-1.1-0.838-2.199-1.23-3.312c-0.28-0.789-0.542-1.586-0.807-2.381
	c-0.331-0.99-0.66-1.984-0.973-2.984c-0.252-0.805-0.494-1.615-0.733-2.425c-0.303-1.034-0.593-2.074-0.875-3.117
	c-0.208-0.772-0.417-1.545-0.615-2.322c-0.309-1.221-0.592-2.451-0.869-3.683c-0.137-0.607-0.286-1.209-0.415-1.819
	c-0.385-1.812-0.737-3.637-1.054-5.474c-0.094-0.55-0.171-1.105-0.26-1.657c-0.218-1.35-0.425-2.703-0.607-4.064
	c-0.092-0.704-0.174-1.411-0.259-2.118c-0.148-1.245-0.28-2.491-0.397-3.744c-0.067-0.718-0.131-1.437-0.188-2.157
	c-0.104-1.327-0.185-2.659-0.255-3.994c-0.033-0.627-0.074-1.253-0.098-1.882c-0.077-1.959-0.125-3.923-0.125-5.901
	c0-7.243,0.529-14.366,1.531-21.338c1.048-7.293,2.625-14.421,4.691-21.338c2.201-7.363,4.949-14.494,8.209-21.338
	c0.642-1.347,1.312-2.679,1.993-4.002c0.282-0.55,0.572-1.097,0.862-1.644c0.38-0.714,0.765-1.425,1.156-2.134
	c0.95-1.725,1.927-3.434,2.943-5.118c0.731-1.212,1.484-2.407,2.248-3.596c0.122-0.191,0.242-0.384,0.366-0.573
	c0.716-1.102,1.451-2.192,2.194-3.275c0.182-0.266,0.363-0.532,0.546-0.795c0.723-1.037,1.46-2.063,2.208-3.081
	c0.216-0.294,0.434-0.589,0.652-0.882c0.743-0.996,1.498-1.983,2.266-2.96c0.23-0.296,0.467-0.59,0.7-0.885
	c0.775-0.97,1.558-1.932,2.353-2.882c0.233-0.277,0.471-0.552,0.706-0.829c0.819-0.962,1.644-1.918,2.487-2.858
	c0.203-0.225,0.408-0.445,0.612-0.67c0.892-0.983,1.79-1.96,2.706-2.919c0.1-0.105,0.205-0.208,0.304-0.312
	c4.165-4.333,8.586-8.416,13.244-12.222c0.148-0.121,0.292-0.246,0.441-0.367c0.935-0.758,1.883-1.495,2.835-2.23
	c0.356-0.275,0.708-0.555,1.067-0.826c0.875-0.664,1.764-1.312,2.656-1.957c0.448-0.326,0.896-0.653,1.347-0.973
	c0.853-0.603,1.714-1.192,2.58-1.778c0.505-0.343,1.014-0.686,1.525-1.023c0.842-0.555,1.69-1.098,2.542-1.636
	c0.552-0.348,1.105-0.691,1.663-1.033c0.838-0.512,1.677-1.019,2.525-1.515c0.587-0.344,1.181-0.681,1.774-1.019
	c0.836-0.474,1.676-0.946,2.521-1.405c0.62-0.336,1.246-0.661,1.871-0.989c0.839-0.44,1.676-0.879,2.522-1.303
	c0.65-0.326,1.31-0.636,1.966-0.952c0.838-0.404,1.673-0.812,2.519-1.201c0.694-0.319,1.398-0.617,2.098-0.925
	c0.825-0.363,1.643-0.735,2.475-1.083c1.235-0.516,2.484-1.009,3.736-1.492c0.954-0.37,1.918-0.721,2.879-1.071
	c0.875-0.319,1.748-0.642,2.632-0.945c0.737-0.252,1.482-0.484,2.223-0.725c0.871-0.283,1.741-0.569,2.619-0.835
	c0.75-0.229,1.509-0.441,2.265-0.657c0.881-0.253,1.762-0.505,2.652-0.743c0.76-0.203,1.523-0.393,2.287-0.583
	c0.898-0.225,1.798-0.445,2.7-0.652c0.764-0.176,1.531-0.341,2.297-0.505c0.919-0.196,1.842-0.385,2.768-0.563
	c0.761-0.148,1.523-0.29,2.29-0.425c0.945-0.168,1.893-0.324,2.845-0.474c0.755-0.118,1.514-0.238,2.273-0.344
	c0.982-0.138,1.969-0.262,2.956-0.381c0.738-0.09,1.474-0.182,2.216-0.26c1.041-0.11,2.09-0.199,3.138-0.289
	c0.694-0.058,1.387-0.125,2.084-0.175c1.169-0.083,2.344-0.139,3.521-0.195c0.586-0.027,1.168-0.067,1.755-0.088
	c1.765-0.061,3.538-0.097,5.319-0.097c7.245,0,14.366,0.531,21.338,1.531c7.295,1.048,14.421,2.625,21.338,4.691
	c7.259,2.168,14.285,4.875,21.037,8.074c0.098,0.047,0.202,0.09,0.3,0.137c6.938,3.304,13.568,7.145,19.87,11.438
	c6.683,4.553,12.989,9.622,18.837,15.171c2.62-11.555,3.969-23.232,3.969-34.873C469.325,101.301,408.434,40.409,330.703,40.409z"/>
<path style="fill:#79AB03;" d="M344.144,324.771l-13.363-13.362c-8.332-8.332-21.843-8.332-30.176,0
	c-8.333,8.332-8.333,21.843,0,30.177l20.167,20.167l8.283,8.283c4.167,4.167,9.628,6.249,15.087,6.249
	c5.461,0,10.922-2.083,15.087-6.249l3.405-3.407l60.607-60.606c8.333-8.333,8.333-21.844,0-30.177
	c-7.08-7.078-17.884-8.12-26.087-3.172c-1.452,0.876-2.835,1.919-4.088,3.172l-30.432,30.432L344.144,324.771z"/>
<g>
	<polygon style="fill:#D8143A;" points="362.637,306.278 393.068,275.847 362.637,306.278 344.144,324.771 	"/>
	<path style="fill:#D8143A;" d="M240.317,407.81c0.35,0.501,0.698,1.001,1.056,1.496C241.017,408.81,240.667,408.311,240.317,407.81
		z"/>
	<path style="fill:#D8143A;" d="M237.175,403.161c0.388,0.602,0.791,1.195,1.189,1.791
		C237.965,404.355,237.563,403.763,237.175,403.161z"/>
</g>
<g>
	<path style="fill:#B8002B;" d="M164.447,417.365c8.464,7.431,17.2,15.1,26.188,23.049c0.061,0.055,0.124,0.11,0.186,0.164
		l29.898,25.826c4.003,3.46,8.972,5.188,13.942,5.191V399.15c0,0,0-0.001-0.001-0.001c-0.512-0.851-1.001-1.718-1.499-2.58
		c-0.417-0.723-0.838-1.444-1.242-2.174c-0.478-0.861-0.94-1.731-1.4-2.603c-0.4-0.755-0.795-1.512-1.182-2.276
		c-0.44-0.866-0.872-1.735-1.294-2.612c-0.388-0.805-0.765-1.617-1.139-2.431c-0.391-0.851-0.788-1.697-1.162-2.555
		c-0.44-1-0.854-2.011-1.27-3.023c-0.495-1.202-0.976-2.41-1.44-3.627c-0.42-1.1-0.838-2.199-1.23-3.312
		c-0.28-0.789-0.542-1.586-0.807-2.381c-0.331-0.99-0.66-1.984-0.973-2.984c-0.252-0.805-0.494-1.615-0.733-2.425
		c-0.303-1.034-0.593-2.074-0.875-3.117c-0.209-0.772-0.417-1.545-0.615-2.322c-0.309-1.221-0.592-2.451-0.869-3.683
		c-0.137-0.607-0.286-1.209-0.415-1.819c-0.385-1.812-0.737-3.637-1.054-5.474c-0.094-0.551-0.171-1.105-0.26-1.657
		c-0.218-1.35-0.425-2.703-0.607-4.064c-0.094-0.704-0.174-1.411-0.259-2.118c-0.148-1.245-0.28-2.491-0.397-3.744
		c-0.067-0.718-0.131-1.437-0.188-2.157c-0.104-1.327-0.185-2.659-0.255-3.994c-0.033-0.627-0.074-1.253-0.098-1.882
		c-0.077-1.959-0.125-3.923-0.125-5.901c0-7.243,0.529-14.366,1.531-21.338c1.048-7.293,2.625-14.421,4.691-21.338
		c2.201-7.363,4.949-14.494,8.209-21.338c0.642-1.347,1.312-2.679,1.993-4.003c0.282-0.551,0.572-1.097,0.863-1.644
		c0.38-0.714,0.765-1.425,1.158-2.134c0.95-1.725,1.927-3.434,2.943-5.118V76.366c-26.584-22.803-61.101-35.955-96.038-35.955
		C60.892,40.409,0,101.301,0,179.034C0,272.997,65.421,330.43,164.447,417.365z"/>
	<path style="fill:#B8002B;" d="M231.92,394.391c-0.478-0.861-0.94-1.731-1.4-2.603C230.98,392.66,231.442,393.531,231.92,394.391z"
		/>
	<path style="fill:#B8002B;" d="M220.022,366.59c-0.252-0.805-0.494-1.615-0.733-2.425
		C219.528,364.975,219.77,365.785,220.022,366.59z"/>
	<path style="fill:#B8002B;" d="M221.802,371.956c-0.28-0.789-0.541-1.586-0.807-2.381
		C221.26,370.368,221.521,371.166,221.802,371.956z"/>
	<path style="fill:#B8002B;" d="M229.338,389.514c-0.44-0.866-0.872-1.735-1.294-2.612
		C228.465,387.778,228.898,388.647,229.338,389.514z"/>
	<path style="fill:#B8002B;" d="M226.904,384.471c-0.391-0.849-0.788-1.697-1.162-2.555
		C226.116,382.774,226.511,383.62,226.904,384.471z"/>
	<path style="fill:#B8002B;" d="M213.497,330.013c-0.033-0.627-0.074-1.253-0.098-1.882
		C213.423,328.76,213.464,329.384,213.497,330.013z"/>
	<path style="fill:#B8002B;" d="M224.472,378.893c-0.495-1.202-0.976-2.41-1.44-3.627
		C223.496,376.483,223.977,377.691,224.472,378.893z"/>
	<path style="fill:#B8002B;" d="M216.931,355.042c-0.137-0.607-0.286-1.209-0.415-1.819
		C216.645,353.833,216.794,354.435,216.931,355.042z"/>
	<path style="fill:#B8002B;" d="M234.661,399.147c-0.512-0.851-1.001-1.718-1.499-2.58
		C233.66,397.428,234.149,398.296,234.661,399.147z"/>
	<path style="fill:#B8002B;" d="M234.662,245.32c-1.016,1.684-1.993,3.391-2.943,5.118
		C232.671,248.712,233.647,247.003,234.662,245.32L234.662,245.32z"/>
	<path style="fill:#B8002B;" d="M214.595,342.026c-0.094-0.704-0.174-1.411-0.259-2.118
		C214.42,340.615,214.501,341.323,214.595,342.026z"/>
	<path style="fill:#B8002B;" d="M229.699,254.215c0.283-0.551,0.57-1.098,0.863-1.644
		C230.271,253.118,229.981,253.664,229.699,254.215z"/>
	<path style="fill:#B8002B;" d="M215.461,347.747c-0.094-0.551-0.171-1.105-0.26-1.657
		C215.291,346.642,215.366,347.198,215.461,347.747z"/>
	<path style="fill:#B8002B;" d="M213.938,336.164c-0.067-0.718-0.131-1.437-0.188-2.157
		C213.808,334.727,213.872,335.446,213.938,336.164z"/>
	<path style="fill:#B8002B;" d="M218.415,361.046c-0.209-0.772-0.417-1.545-0.615-2.322
		C217.998,359.502,218.205,360.274,218.415,361.046z"/>
</g>
<g>
	<path style="fill:#D8143A;" d="M334.239,175.593c0.761-0.148,1.523-0.29,2.29-0.425C335.763,175.303,335,175.445,334.239,175.593z"
		/>
	<path style="fill:#D8143A;" d="M329.172,176.661c0.764-0.175,1.531-0.341,2.297-0.505
		C330.704,176.32,329.938,176.486,329.172,176.661z"/>
	<path style="fill:#D8143A;" d="M344.604,173.97c0.738-0.09,1.474-0.182,2.216-0.26C346.077,173.788,345.342,173.88,344.604,173.97z
		"/>
	<path style="fill:#D8143A;" d="M298.088,187.575c0.838-0.404,1.674-0.812,2.519-1.201
		C299.761,186.762,298.926,187.171,298.088,187.575z"/>
	<path style="fill:#D8143A;" d="M302.704,185.449c0.825-0.363,1.643-0.734,2.475-1.083
		C304.347,184.714,303.529,185.087,302.704,185.449z"/>
	<path style="fill:#D8143A;" d="M293.598,189.828c0.839-0.44,1.676-0.879,2.524-1.302
		C295.274,188.95,294.438,189.39,293.598,189.828z"/>
	<path style="fill:#D8143A;" d="M308.914,182.873c0.954-0.37,1.918-0.721,2.881-1.071
		C310.832,182.152,309.869,182.503,308.914,182.873z"/>
	<path style="fill:#D8143A;" d="M314.425,180.857c0.737-0.252,1.482-0.484,2.223-0.725
		C315.907,180.374,315.162,180.606,314.425,180.857z"/>
	<path style="fill:#D8143A;" d="M324.184,177.897c0.76-0.203,1.523-0.393,2.287-0.583
		C325.709,177.505,324.945,177.695,324.184,177.897z"/>
	<path style="fill:#D8143A;" d="M289.207,192.222c0.836-0.475,1.676-0.946,2.521-1.405
		C290.881,191.276,290.042,191.747,289.207,192.222z"/>
	<path style="fill:#D8143A;" d="M319.269,179.297c0.75-0.229,1.509-0.441,2.265-0.657
		C320.777,178.856,320.018,179.068,319.269,179.297z"/>
	<path style="fill:#D8143A;" d="M284.907,194.755c0.836-0.512,1.677-1.019,2.525-1.515
		C286.584,193.735,285.745,194.242,284.907,194.755z"/>
	<path style="fill:#D8143A;" d="M276.595,200.225c0.853-0.603,1.714-1.192,2.58-1.778
		C278.311,199.033,277.449,199.622,276.595,200.225z"/>
	<path style="fill:#D8143A;" d="M245.839,229.272c0.774-0.97,1.558-1.932,2.353-2.882
		C247.397,227.341,246.614,228.302,245.839,229.272z"/>
	<path style="fill:#D8143A;" d="M240.015,237.079c0.723-1.037,1.46-2.063,2.208-3.081
		C241.475,235.017,240.736,236.042,240.015,237.079z"/>
	<path style="fill:#D8143A;" d="M237.276,241.149c0.716-1.102,1.451-2.192,2.194-3.275
		C238.725,238.957,237.991,240.047,237.276,241.149z"/>
	<path style="fill:#D8143A;" d="M242.873,233.116c0.743-0.996,1.499-1.983,2.266-2.96
		C244.371,231.135,243.617,232.12,242.873,233.116z"/>
	<path style="fill:#D8143A;" d="M248.899,225.561c0.818-0.962,1.644-1.918,2.487-2.858
		C250.543,223.645,249.718,224.6,248.899,225.561z"/>
	<path style="fill:#D8143A;" d="M272.592,203.155c0.875-0.664,1.764-1.312,2.656-1.957
		C274.356,201.844,273.467,202.491,272.592,203.155z"/>
	<path style="fill:#D8143A;" d="M268.69,206.212c0.933-0.758,1.883-1.495,2.835-2.23
		C270.574,204.717,269.625,205.455,268.69,206.212z"/>
	<path style="fill:#D8143A;" d="M251.996,222.033c0.892-0.983,1.79-1.96,2.706-2.919
		C253.785,220.073,252.888,221.05,251.996,222.033z"/>
	<path style="fill:#D8143A;" d="M339.375,174.695c0.755-0.119,1.514-0.238,2.273-0.344
		C340.889,174.458,340.131,174.576,339.375,174.695z"/>
	<path style="fill:#D8143A;" d="M236.91,241.722c-0.764,1.189-1.516,2.386-2.248,3.596l0,0
		C235.394,244.108,236.146,242.911,236.91,241.722z"/>
	<path style="fill:#D8143A;" d="M355.561,173.052c0.586-0.027,1.168-0.067,1.755-0.088
		C356.729,172.984,356.147,173.025,355.561,173.052z"/>
	<path style="fill:#D8143A;" d="M268.249,206.579c-4.656,3.808-9.078,7.889-13.242,12.222
		C259.169,214.47,263.593,210.387,268.249,206.579z"/>
	<path style="fill:#D8143A;" d="M349.958,173.421c0.694-0.058,1.387-0.125,2.084-0.175
		C351.344,173.295,350.652,173.362,349.958,173.421z"/>
	<path style="fill:#D8143A;" d="M280.702,197.424c0.842-0.555,1.69-1.1,2.542-1.636
		C282.392,196.324,281.544,196.869,280.702,197.424z"/>
</g>
<g>
</g>
<g>
</g>
<g>
</g>
<g>
</g>
<g>
</g>
<g>
</g>
<g>
</g>
<g>
</g>
<g>
</g>
<g>
</g>
<g>
</g>
<g>
</g>
<g>
</g>
<g>
</g>
<g>
</g>
</svg>
