<?xml version="1.0" encoding="iso-8859-1"?>
<!-- Generator: Adobe Illustrator 19.0.0, SVG Export Plug-In . SVG Version: 6.00 Build 0)  -->
<svg version="1.1" id="Layer_1" xmlns="http://www.w3.org/2000/svg" xmlns:xlink="http://www.w3.org/1999/xlink" x="0px" y="0px"
	 viewBox="0 0 495 495" style="enable-background:new 0 0 495 495;" xml:space="preserve">
<g>
	<path style="fill:#FF3F62;" d="M247.5,61.065C222.75,26.463,182.234,3.908,136.447,3.908C61.089,3.908,0,64.997,0,140.355
		c0,32.759,11.545,62.817,30.787,86.336L247.5,491.092V61.065z"/>
	<polygon style="fill:#C61469;" points="247.5,325.235 247.5,491.092 322.24,399.906 322.24,325.235 	"/>
	<path style="fill:#C61469;" d="M322.24,227.215v-74.74h98.02v74.74h43.524l0.429-0.524C483.455,203.172,495,173.114,495,140.355
		C495,64.997,433.911,3.908,358.553,3.908c-45.787,0-86.303,22.555-111.053,57.157v166.15H322.24z"/>
	<polygon style="fill:#00CCB3;" points="420.26,227.215 420.26,152.475 371.25,152.475 371.25,399.975 420.26,399.975 
		420.26,325.235 495,325.235 495,227.215 	"/>
	<polygon style="fill:#00EED1;" points="371.25,152.475 322.24,152.475 322.24,227.215 247.5,227.215 247.5,325.235 322.24,325.235 
		322.24,399.975 371.25,399.975 	"/>
</g>
<g>
</g>
<g>
</g>
<g>
</g>
<g>
</g>
<g>
</g>
<g>
</g>
<g>
</g>
<g>
</g>
<g>
</g>
<g>
</g>
<g>
</g>
<g>
</g>
<g>
</g>
<g>
</g>
<g>
</g>
</svg>
