<svg xmlns="http://www.w3.org/2000/svg" version="1.1" xmlns:xlink="http://www.w3.org/1999/xlink" xmlns:svgjs="http://svgjs.com/svgjs" width="1080" height="720" preserveAspectRatio="none" viewBox="0 0 1080 720"><g mask="url(&quot;#SvgjsMask1964&quot;)" fill="none"><use xlink:href="#SvgjsG1973" transform="translate(0, 0)" fill="rgba(255, 255, 255, 0.15)"></use><use xlink:href="#SvgjsG1973" transform="translate(840, 0)" fill="rgba(255, 255, 255, 0.15)"></use></g><defs><mask id="SvgjsMask1964"><rect width="1080" height="720" fill="#ffffff"></rect></mask><g id="SvgjsG1970"><path d="M15.233 9.431c0.295 0 0.569-0.239 0.61-0.532 0 0 0.056-0.411 0.056-0.899s-0.056-0.899-0.056-0.899c-0.041-0.292-0.315-0.531-0.61-0.53h-1.524c-0.295 0-0.602-0.188-0.681-0.418s-0.188-0.967 0.021-1.176l1.078-1.077c0.209-0.209 0.225-0.565 0.036-0.792l-1.268-1.268c-0.227-0.189-0.583-0.173-0.792 0.036l-1.078 1.077c-0.208 0.209-0.556 0.293-0.772 0.187s-0.822-0.552-0.821-0.847V0.767c0-0.295-0.239-0.569-0.531-0.61 0 0-0.411-0.057-0.9-0.056s-0.899 0.057-0.899 0.056c-0.293 0.04-0.532 0.315-0.532 0.61v1.524c0 0.295-0.188 0.601-0.418 0.681s-0.967 0.188-1.176-0.021l-1.078-1.078C3.689 1.665 3.333 1.649 3.107 1.837l-1.268 1.268c-0.189 0.227-0.173 0.583 0.036 0.792l1.077 1.078c0.209 0.209 0.293 0.556 0.187 0.772s-0.552 0.822-0.847 0.822H0.767c-0.295 0-0.569 0.239-0.61 0.531 0 0-0.057 0.411-0.056 0.899s0.057 0.899 0.056 0.9c0.04 0.293 0.315 0.532 0.61 0.532h1.525c0.295 0 0.601 0.188 0.681 0.417 0.079 0.23 0.188 0.967-0.02 1.176l-1.078 1.077C1.667 12.311 1.651 12.667 1.84 12.893l1.267 1.268c0.227 0.189 0.583 0.173 0.792-0.036l1.077-1.077c0.209-0.208 0.556-0.292 0.772-0.187s0.821 0.553 0.822 0.848v1.524c0 0.295 0.239 0.569 0.532 0.61 0 0 0.411 0.057 0.899 0.057s0.899-0.056 0.899-0.057c0.293-0.04 0.531-0.315 0.532-0.609v-1.524c0-0.295 0.188-0.602 0.418-0.681 0.23-0.079 0.967-0.188 1.176 0.021l1.077 1.077c0.209 0.209 0.565 0.225 0.792 0.036l1.268-1.267c0.189-0.227 0.173-0.583-0.036-0.792l-1.078-1.077c-0.209-0.209-0.293-0.557-0.186-0.773 0.106-0.216 0.552-0.822 0.847-0.822h1.525zM8 10.892c-1.597 0-2.891-1.294-2.891-2.892 0-1.596 1.295-2.891 2.891-2.891S10.892 6.404 10.892 8 9.597 10.892 8 10.892z"></path></g><g id="SvgjsG1969"><path d="M8.541 10.856h1.001v1H8.541zM8.243 14.859H10.041v-2.002h-2.001v2.002h0.201z"></path><path d="M14.225 9.282V3.277l-2.788 1.716v2.573h-1.067V4.125h-1.293V1.132h-3.432v4.899h-1.716v-1.682L2.536 3.492 1.142 4.349v3.003H0.07v7.507h3.216V9.103a1.501 1.501 0 0 1 3.004 0v1.184l-1.131 2.874h0.702v1.698h0.429v-2.127h-0.501l0.844-2.146 2.408-0.982 2.409 0.982 0.845 2.146h-0.501v2.127h0.846l2.872-0.001V9.282h-1.287z"></path></g><g id="SvgjsG1972"><path d="M14.225 3.277L11.437 4.993v2.573h-1.067V4.125h-1.292V1.133h-3.432v4.899h-1.716v-1.683L2.536 3.492 1.142 4.349v3.003H0.07v7.507l15.442-0.001V9.282h-1.287V3.277z" fill-rule="evenodd"></path></g><g id="SvgjsG1966"><path d="M7.307 2.963c-1.9 0-2.983-1.592-2.997-1.613l0.688-0.456c0.062 0.094 1.572 2.276 4.211 0.617l0.44 0.698c-0.877 0.552-1.661 0.756-2.341 0.755zM14.34 2.91h0.828c-0.046-0.811-0.488-1.495-1.242-1.926-1.098-0.627-2.686-0.609-3.952 0.044l0.377 0.734c1.028-0.531 2.301-0.556 3.166-0.063 0.348 0.199 0.768 0.57 0.823 1.211zM15.158 3.825H14.339l-0.289 8.69-4.644-3.095v3.096l-4.646-3.096v3.096l-4.646-3.096v6.4h15.442l-0.398-11.995zM4.035 15.018H0.916v-1.52h3.121v1.52z m4.647 0H5.561v-1.52h3.121v1.52z m4.645 0H10.207v-1.52h3.12v1.52z"></path></g><g id="SvgjsG1971"><path d="M8.655 0C5.901 0 3.36 2.069 2.833 4.347 2.715 4.854 2.582 6.177 2.582 6.177L1.318 9.37A0.469 0.469 0 0 0 1.28 9.561a0.488 0.488 0 0 0 0.489 0.488h0.814v1.697c0 1.324 1.07 2.396 2.392 2.396h0.952V16h3.535v-0.829h1.44V16h1.503V10.847c1.413-1.111 2.322-2.838 2.322-4.774C14.726 2.718 12.01 0 8.655 0zM4.077 7.387a0.682 0.682 0 0 1-0.682-0.682c0-0.375 0.306-0.68 0.682-0.68a0.681 0.681 0 0 1 0.679 0.68c0 0.377-0.306 0.682-0.68 0.682z m5.385 4.46h1.44v0.779h-1.44v-0.779z m0-1.108h1.44v0.778h-1.44V10.739z m0 2.215h1.44v0.78h-1.44v-0.78z m0 1.109h1.44v0.78h-1.44V14.062z m0-4.431h1.448c-0.003 0.057-0.009 0.113-0.009 0.172v0.607h-1.44V9.632z m3.986-4.488a1.557 1.557 0 0 1-0.427 1.071c-0.045 0.592-0.42 1.091-0.942 1.316v0.005c-0.637 0.372-1.019 1.005-1.135 1.766H10.354v-1.765c0.004-0.55 0.177-0.902 0.539-1.119a1.907 1.907 0 0 0 0.356-0.26 1.229 1.229 0 0 1 0.659 0.556c0.032 0.053 0.088 0.083 0.144 0.082 0.027 0 0.055-0.007 0.08-0.021a0.163 0.163 0 0 0 0.064-0.224h-0.001a1.563 1.563 0 0 0-0.721-0.657c0.15-0.231 0.234-0.506 0.23-0.837 0-0.002 0.002-0.003 0.003-0.006 0-0.149-0.022-0.294-0.062-0.431a1.572 1.572 0 0 0 0.871-0.486 0.164 0.164 0 0 0-0.011-0.234 0.164 0.164 0 0 0-0.232 0.011 1.248 1.248 0 0 1-0.755 0.396c-0.24-0.444-0.686-0.76-1.209-0.818a1.235 1.235 0 0 1 0.353-0.724 0.166 0.166 0 0 0 0-0.233 0.166 0.166 0 0 0-0.234 0 1.572 1.572 0 0 0-0.45 0.937 1.244 1.244 0 0 1-1.088-1.234c0-0.09-0.075-0.165-0.163-0.165-0.093 0-0.166 0.075-0.167 0.165 0 0.107 0.01 0.21 0.031 0.31a1.24 1.24 0 0 1-1.235 0.229s-0.002 0-0.003-0.001a1.225 1.225 0 0 1-0.453-0.289c-0.063-0.064-0.168-0.064-0.233 0-0.065 0.064-0.065 0.168 0 0.233a1.59 1.59 0 0 0 0.452 0.316c-0.033 0.411-0.271 0.764-0.605 0.963a1.578 1.578 0 0 0-0.84-0.639 0.166 0.166 0 0 0-0.209 0.107c-0.024 0.087 0.02 0.179 0.108 0.207a1.247 1.247 0 0 1 0.63 0.455 1.221 1.221 0 0 1-0.32 0.042h-0.02a1.568 1.568 0 0 0-1.096 0.444 0.161 0.161 0 0 0-0.003 0.233 0.162 0.162 0 0 0 0.231 0.003 1.236 1.236 0 0 1 0.868-0.35h0.019c0.794 0 1.453-0.591 1.557-1.358 0.113 0.024 0.226 0.038 0.34 0.038A1.574 1.574 0 0 0 8.699 2.88a1.558 1.558 0 0 0 0.45 0.583 1.556 1.556 0 0 0-0.341 0.82 1.622 1.622 0 0 0-0.256-0.021 1.557 1.557 0 0 0-0.736 0.185c-0.08 0.043-0.111 0.142-0.068 0.224 0.03 0.055 0.088 0.087 0.147 0.087a0.144 0.144 0 0 0 0.075-0.02 1.25 1.25 0 0 1 0.583-0.146c0.087 0 0.173 0.01 0.256 0.027a1.576 1.576 0 0 0 0.428 0.92c0.033 0.034 0.076 0.051 0.118 0.051 0.04 0 0.082-0.015 0.115-0.046 0.067-0.063 0.069-0.167 0.005-0.232h-0.001a1.253 1.253 0 0 1-0.345-0.829c0-0.004 0.001-0.008 0-0.013v-0.018a1.237 1.237 0 0 1 0.299-0.81 1.57 1.57 0 0 0 0.701 0.166s0.001 0 0.003 0h0.003a1.244 1.244 0 0 1 1.241 1.24 1.566 1.566 0 0 0-0.401-0.052c-0.196 0-0.395 0.036-0.587 0.114a0.164 0.164 0 0 0-0.091 0.215c0.035 0.084 0.129 0.125 0.214 0.09a1.247 1.247 0 0 1 0.464-0.091c0.124 0 0.248 0.019 0.363 0.055a0.953 0.953 0 0 1-0.242 0.464 0.14 0.14 0 0 0-0.025 0.029c-0.094 0.092-0.207 0.177-0.346 0.262-0.477 0.278-0.706 0.784-0.701 1.403V9.301h-0.563V7.624c0-0.616-0.386-1.201-0.873-1.409-0.232-0.09-0.474-0.241-0.65-0.438a1.558 1.558 0 0 1-0.878 0.271 1.555 1.555 0 0 1-0.877-0.269 1.581 1.581 0 0 1-0.87 0.26c-0.883 0-1.596-0.715-1.597-1.597 0-0.659 0.398-1.224 0.969-1.467 0.154-0.703 0.777-1.229 1.527-1.23 0.04 0 0.076 0.003 0.113 0.006a1.567 1.567 0 0 1 1.295-0.684c0.266 0 0.516 0.066 0.736 0.185a1.558 1.558 0 0 1 1.925 0.158 1.553 1.553 0 0 1 0.365-0.044c0.633 0 1.18 0.381 1.424 0.926 0.642 0.195 1.11 0.79 1.11 1.496a1.576 1.576 0 0 1-0.054 0.408 1.561 1.561 0 0 1 0.321 0.948z"></path></g><g id="SvgjsG1968"><path d="M10.596 3.917a0.64 0.64 0 0 0-0.639 0.641c0 0.354 0.287 0.64 0.639 0.64a0.639 0.639 0 0 0 0.639-0.64 0.639 0.639 0 0 0-0.639-0.641z m-0.151 5.25a0.642 0.642 0 0 0 0.643 0.641c0.352 0 0.638-0.286 0.637-0.64a0.639 0.639 0 0 0-0.637-0.641 0.641 0.641 0 0 0-0.642 0.641z m-4.678-5.945a0.641 0.641 0 0 0 0 1.282 0.64 0.64 0 0 0 0.642-0.64 0.641 0.641 0 0 0-0.642-0.642z"></path><path d="M8.659 0C5.904 0 3.363 2.068 2.835 4.347c-0.119 0.507-0.25 1.83-0.25 1.829L1.316 9.37A0.488 0.488 0 0 0 1.28 9.561a0.491 0.491 0 0 0 0.491 0.489h0.814v1.697c0 1.323 1.072 2.395 2.394 2.395h0.951V16H12.408V10.847c1.413-1.111 2.32-2.838 2.32-4.775C14.728 2.718 12.01 0 8.659 0z m-4.583 7.387c-0.372 0-0.675-0.304-0.675-0.679a0.677 0.677 0 0 1 0.675-0.677c0.375 0 0.68 0.303 0.68 0.677a0.68 0.68 0 0 1-0.68 0.679z m8.959-0.918l-0.631 0.632-0.77-0.543c-0.148 0.077-0.304 0.139-0.467 0.18l-0.142 0.838h0.294l0.079 0.448c0.031 0.008 0.062 0.013 0.092 0.024 0.079 0.029 0.152 0.067 0.22 0.11l0.355-0.25 0.292 0.291-0.262 0.371c0.056 0.1 0.101 0.206 0.125 0.318l0.429 0.074v0.412l-0.446 0.076c-0.009 0.032-0.013 0.063-0.024 0.094a1.147 1.147 0 0 1-0.112 0.223l0.251 0.353-0.292 0.291-0.369-0.262a1.149 1.149 0 0 1-0.318 0.126l-0.075 0.429H10.851l-0.074-0.448c-0.032-0.009-0.064-0.013-0.096-0.025a1.174 1.174 0 0 1-0.221-0.11l-0.356 0.252L9.815 10.08l0.262-0.37a1.151 1.151 0 0 1-0.125-0.319l-0.431-0.074v-0.411l0.45-0.077c0.008-0.032 0.013-0.063 0.025-0.094 0.029-0.079 0.066-0.152 0.109-0.22l-0.251-0.356 0.291-0.291 0.371 0.262a1.174 1.174 0 0 1 0.317-0.125l0.064-0.372h-0.776L9.96 6.704c-0.035-0.011-0.07-0.02-0.104-0.034a2.221 2.221 0 0 1-0.352-0.168l-0.744 0.524-0.63-0.632 0.542-0.767a2.184 2.184 0 0 1-0.181-0.469l-0.894-0.154V4.27l-0.449 0.078c-0.007 0.022-0.009 0.044-0.017 0.065a1.402 1.402 0 0 1-0.109 0.223l0.345 0.489-0.416 0.414-0.506-0.357a1.438 1.438 0 0 1-0.294 0.116l-0.102 0.586-0.584 0-0.106-0.611c-0.02-0.007-0.042-0.009-0.062-0.017a1.43 1.43 0 0 1-0.226-0.11l-0.49 0.345-0.414-0.415 0.359-0.508a1.485 1.485 0 0 1-0.112-0.291L3.824 4.176V3.589l0.608-0.105c0.007-0.022 0.012-0.043 0.02-0.063 0.029-0.08 0.068-0.154 0.109-0.225l-0.345-0.488 0.413-0.415 0.508 0.358a1.439 1.439 0 0 1 0.295-0.117l0.102-0.586h0.584L6.224 2.56c0.021 0.007 0.043 0.008 0.063 0.016 0.08 0.03 0.154 0.069 0.225 0.11l0.489-0.344 0.415 0.414-0.359 0.507a1.397 1.397 0 0 1 0.115 0.293l0.586 0.101v0.427l0.768-0.132c0.011-0.035 0.02-0.07 0.033-0.105 0.046-0.126 0.104-0.243 0.17-0.355l-0.528-0.74 0.634-0.633 0.77 0.544a2.192 2.192 0 0 1 0.468-0.181l0.151-0.894h0.894l0.162 0.928c0.035 0.01 0.069 0.02 0.104 0.033 0.124 0.046 0.241 0.104 0.352 0.168l0.743-0.523 0.629 0.631-0.542 0.77c0.077 0.148 0.138 0.304 0.18 0.466l0.895 0.154v0.894l-0.929 0.16c-0.011 0.035-0.02 0.07-0.032 0.104-0.046 0.125-0.104 0.242-0.17 0.353l0.525 0.743z"></path></g><g id="SvgjsG1965"><path d="M7.45 12.652S6.4 11.121 3.725 11.121C1.274 11.121 0 11.833 0 11.833V1.937s1.274-0.712 3.725-0.729C6.4 1.19 7.45 2.756 7.45 2.756V12.652z m1.087 0s1.05-1.531 3.725-1.531c2.451 0 3.725 0.712 3.725 0.713V1.937s-1.274-0.712-3.725-0.729c-2.675-0.017-3.725 1.548-3.725 1.548v9.896z"></path><path d="M8.012 15.733S6.4 13.411 3.725 13.411c-2.451 0-3.725 0.712-3.725 0.712v-1.186s1.274-0.712 3.725-0.729c2.675-0.018 4.287 2.34 4.287 2.34V15.733z m0 0s1.612-2.323 4.287-2.323c2.451 0 3.725 0.712 3.725 0.712v-1.185s-1.274-0.712-3.725-0.729c-2.675-0.019-4.287 2.339-4.287 2.339v1.185z"></path></g><g id="SvgjsG1967"><path d="M8.312 4.802l0 0.521c0.492-0.069 0.443-0.509 0-0.52z m-0.51-0.627V3.715c-0.365 0.064-0.358 0.454 0 0.46z"></path><path d="M8.055 2.506c-1.128 0-2.044 0.915-2.044 2.043 0 1.129 0.915 2.044 2.045 2.044 1.129 0 2.043-0.915 2.043-2.044 0-1.128-0.915-2.043-2.043-2.043z m0.251 3.336v0.364h-0.507v-0.37c-0.29-0.043-0.822-0.323-0.855-0.924h0.534c0.034 0.154 0.078 0.34 0.321 0.409l-0.001-0.605c-0.334-0.048-0.814-0.194-0.814-0.73 0-0.602 0.666-0.789 0.813-0.789v-0.364h0.502v0.364c0.338 0.02 0.83 0.302 0.83 0.84h-0.528c-0.014-0.16-0.137-0.317-0.296-0.327v0.554c0.403 0.041 0.877 0.195 0.877 0.738 0 0.473-0.475 0.818-0.877 0.84z m1.733 5.54c-1.129 0-2.044 0.915-2.043 2.044s0.915 2.043 2.043 2.043 2.043-0.915 2.043-2.043c0-1.129-0.915-2.044-2.043-2.044zM10.955 13.739v0.499h-0.636v0.701h-0.542V14.238h-0.68v-0.49h0.688l-0.894-1.576h0.593l0.551 0.972 0.597-0.972h0.547L10.293 13.739h0.662z m-7.36-4.673c-1.129 0-2.044 0.915-2.043 2.044S2.467 13.154 3.595 13.154s2.044-0.915 2.044-2.044-0.915-2.044-2.044-2.044z m0.065 1.654v0.486h-0.367v1.165H2.773v-1.162h-0.31v-0.484h0.31v-0.436c0-0.168 0.163-0.68 0.777-0.68 0.627 0 0.762 0.494 0.762 0.908h-0.511c0-0.265-0.037-0.404-0.246-0.404-0.226 0-0.262 0.155-0.262 0.4v0.206h0.366z m1.173 0.482c-0.421 0.052-0.516 0.276-0.517 0.554v0.616h-0.516V10.72h0.516v0.258c0.112-0.129 0.241-0.267 0.517-0.267v0.491z"></path><path d="M0 0.56v7.93h9.395c0.178 0.948 1.009 1.666 2.009 1.666s1.83-0.718 2.008-1.666H16V0.56H0z m11.195 7.221h0.464v0.441h-0.378c0.047 0.403-0.185 0.572-0.198 0.707h1.264v0.441H10.456v-0.441c0.215-0.144 0.327-0.508 0.258-0.703h-0.396v-0.448h0.318c-0.086-0.203-0.086-0.27-0.086-0.448s0.147-0.758 0.912-0.754c0.705 0.004 0.91 0.584 0.91 1l-0.537 0c-0.036-0.251-0.135-0.458-0.368-0.458-0.357 0-0.358 0.224-0.357 0.301s0.013 0.262 0.086 0.364z m3.297-0.798h-1.386c-0.366-0.551-0.992-0.914-1.703-0.914S10.067 6.432 9.701 6.982H1.508V2.068h12.984V6.982z"></path></g><g id="SvgjsG1973"><use xlink:href="#SvgjsG1965" transform="translate(0, 0) scale(3)" fill="rgba(255, 255, 255, 0.15)"></use><use xlink:href="#SvgjsG1966" transform="translate(0, 84) scale(3)" fill="rgba(255, 255, 255, 0.15)"></use><use xlink:href="#SvgjsG1967" transform="translate(0, 168) scale(3)" fill="rgba(255, 255, 255, 0.15)"></use><use xlink:href="#SvgjsG1967" transform="translate(0, 252) scale(3)" fill="rgba(255, 255, 255, 0.15)"></use><use xlink:href="#SvgjsG1966" transform="translate(0, 336) scale(3)" fill="rgba(255, 255, 255, 0.15)"></use><use xlink:href="#SvgjsG1965" transform="translate(0, 420) scale(3)" fill="rgba(255, 255, 255, 0.15)"></use><use xlink:href="#SvgjsG1965" transform="translate(0, 504) scale(3)" fill="rgba(255, 255, 255, 0.15)"></use><use xlink:href="#SvgjsG1968" transform="translate(0, 588) scale(3)" fill="rgba(255, 255, 255, 0.15)"></use><use xlink:href="#SvgjsG1965" transform="translate(0, 672) scale(3)" fill="rgba(255, 255, 255, 0.15)"></use><use xlink:href="#SvgjsG1969" transform="translate(84, 0) scale(3)" fill="rgba(255, 255, 255, 0.15)"></use><use xlink:href="#SvgjsG1969" transform="translate(84, 84) scale(3)" fill="rgba(255, 255, 255, 0.15)"></use><use xlink:href="#SvgjsG1970" transform="translate(84, 168) scale(3)" fill="rgba(255, 255, 255, 0.15)"></use><use xlink:href="#SvgjsG1965" transform="translate(84, 252) scale(3)" fill="rgba(255, 255, 255, 0.15)"></use><use xlink:href="#SvgjsG1970" transform="translate(84, 336) scale(3)" fill="rgba(255, 255, 255, 0.15)"></use><use xlink:href="#SvgjsG1966" transform="translate(84, 420) scale(3)" fill="rgba(255, 255, 255, 0.15)"></use><use xlink:href="#SvgjsG1965" transform="translate(84, 504) scale(3)" fill="rgba(255, 255, 255, 0.15)"></use><use xlink:href="#SvgjsG1967" transform="translate(84, 588) scale(3)" fill="rgba(255, 255, 255, 0.15)"></use><use xlink:href="#SvgjsG1969" transform="translate(84, 672) scale(3)" fill="rgba(255, 255, 255, 0.15)"></use><use xlink:href="#SvgjsG1971" transform="translate(168, 0) scale(3)" fill="rgba(255, 255, 255, 0.15)"></use><use xlink:href="#SvgjsG1967" transform="translate(168, 84) scale(3)" fill="rgba(255, 255, 255, 0.15)"></use><use xlink:href="#SvgjsG1971" transform="translate(168, 168) scale(3)" fill="rgba(255, 255, 255, 0.15)"></use><use xlink:href="#SvgjsG1969" transform="translate(168, 252) scale(3)" fill="rgba(255, 255, 255, 0.15)"></use><use xlink:href="#SvgjsG1967" transform="translate(168, 336) scale(3)" fill="rgba(255, 255, 255, 0.15)"></use><use xlink:href="#SvgjsG1971" transform="translate(168, 420) scale(3)" fill="rgba(255, 255, 255, 0.15)"></use><use xlink:href="#SvgjsG1967" transform="translate(168, 504) scale(3)" fill="rgba(255, 255, 255, 0.15)"></use><use xlink:href="#SvgjsG1968" transform="translate(168, 588) scale(3)" fill="rgba(255, 255, 255, 0.15)"></use><use xlink:href="#SvgjsG1968" transform="translate(168, 672) scale(3)" fill="rgba(255, 255, 255, 0.15)"></use><use xlink:href="#SvgjsG1969" transform="translate(252, 0) scale(3)" fill="rgba(255, 255, 255, 0.15)"></use><use xlink:href="#SvgjsG1965" transform="translate(252, 84) scale(3)" fill="rgba(255, 255, 255, 0.15)"></use><use xlink:href="#SvgjsG1967" transform="translate(252, 168) scale(3)" fill="rgba(255, 255, 255, 0.15)"></use><use xlink:href="#SvgjsG1972" transform="translate(252, 252) scale(3)" fill="rgba(255, 255, 255, 0.15)"></use><use xlink:href="#SvgjsG1967" transform="translate(252, 336) scale(3)" fill="rgba(255, 255, 255, 0.15)"></use><use xlink:href="#SvgjsG1966" transform="translate(252, 420) scale(3)" fill="rgba(255, 255, 255, 0.15)"></use><use xlink:href="#SvgjsG1966" transform="translate(252, 504) scale(3)" fill="rgba(255, 255, 255, 0.15)"></use><use xlink:href="#SvgjsG1969" transform="translate(252, 588) scale(3)" fill="rgba(255, 255, 255, 0.15)"></use><use xlink:href="#SvgjsG1971" transform="translate(252, 672) scale(3)" fill="rgba(255, 255, 255, 0.15)"></use><use xlink:href="#SvgjsG1970" transform="translate(336, 0) scale(3)" fill="rgba(255, 255, 255, 0.15)"></use><use xlink:href="#SvgjsG1967" transform="translate(336, 84) scale(3)" fill="rgba(255, 255, 255, 0.15)"></use><use xlink:href="#SvgjsG1965" transform="translate(336, 168) scale(3)" fill="rgba(255, 255, 255, 0.15)"></use><use xlink:href="#SvgjsG1967" transform="translate(336, 252) scale(3)" fill="rgba(255, 255, 255, 0.15)"></use><use xlink:href="#SvgjsG1971" transform="translate(336, 336) scale(3)" fill="rgba(255, 255, 255, 0.15)"></use><use xlink:href="#SvgjsG1969" transform="translate(336, 420) scale(3)" fill="rgba(255, 255, 255, 0.15)"></use><use xlink:href="#SvgjsG1966" transform="translate(336, 504) scale(3)" fill="rgba(255, 255, 255, 0.15)"></use><use xlink:href="#SvgjsG1965" transform="translate(336, 588) scale(3)" fill="rgba(255, 255, 255, 0.15)"></use><use xlink:href="#SvgjsG1972" transform="translate(336, 672) scale(3)" fill="rgba(255, 255, 255, 0.15)"></use><use xlink:href="#SvgjsG1967" transform="translate(420, 0) scale(3)" fill="rgba(255, 255, 255, 0.15)"></use><use xlink:href="#SvgjsG1972" transform="translate(420, 84) scale(3)" fill="rgba(255, 255, 255, 0.15)"></use><use xlink:href="#SvgjsG1966" transform="translate(420, 168) scale(3)" fill="rgba(255, 255, 255, 0.15)"></use><use xlink:href="#SvgjsG1965" transform="translate(420, 252) scale(3)" fill="rgba(255, 255, 255, 0.15)"></use><use xlink:href="#SvgjsG1966" transform="translate(420, 336) scale(3)" fill="rgba(255, 255, 255, 0.15)"></use><use xlink:href="#SvgjsG1969" transform="translate(420, 420) scale(3)" fill="rgba(255, 255, 255, 0.15)"></use><use xlink:href="#SvgjsG1972" transform="translate(420, 504) scale(3)" fill="rgba(255, 255, 255, 0.15)"></use><use xlink:href="#SvgjsG1972" transform="translate(420, 588) scale(3)" fill="rgba(255, 255, 255, 0.15)"></use><use xlink:href="#SvgjsG1965" transform="translate(420, 672) scale(3)" fill="rgba(255, 255, 255, 0.15)"></use><use xlink:href="#SvgjsG1972" transform="translate(504, 0) scale(3)" fill="rgba(255, 255, 255, 0.15)"></use><use xlink:href="#SvgjsG1967" transform="translate(504, 84) scale(3)" fill="rgba(255, 255, 255, 0.15)"></use><use xlink:href="#SvgjsG1971" transform="translate(504, 168) scale(3)" fill="rgba(255, 255, 255, 0.15)"></use><use xlink:href="#SvgjsG1969" transform="translate(504, 252) scale(3)" fill="rgba(255, 255, 255, 0.15)"></use><use xlink:href="#SvgjsG1971" transform="translate(504, 336) scale(3)" fill="rgba(255, 255, 255, 0.15)"></use><use xlink:href="#SvgjsG1970" transform="translate(504, 420) scale(3)" fill="rgba(255, 255, 255, 0.15)"></use><use xlink:href="#SvgjsG1971" transform="translate(504, 504) scale(3)" fill="rgba(255, 255, 255, 0.15)"></use><use xlink:href="#SvgjsG1967" transform="translate(504, 588) scale(3)" fill="rgba(255, 255, 255, 0.15)"></use><use xlink:href="#SvgjsG1971" transform="translate(504, 672) scale(3)" fill="rgba(255, 255, 255, 0.15)"></use><use xlink:href="#SvgjsG1969" transform="translate(588, 0) scale(3)" fill="rgba(255, 255, 255, 0.15)"></use><use xlink:href="#SvgjsG1965" transform="translate(588, 84) scale(3)" fill="rgba(255, 255, 255, 0.15)"></use><use xlink:href="#SvgjsG1967" transform="translate(588, 168) scale(3)" fill="rgba(255, 255, 255, 0.15)"></use><use xlink:href="#SvgjsG1966" transform="translate(588, 252) scale(3)" fill="rgba(255, 255, 255, 0.15)"></use><use xlink:href="#SvgjsG1970" transform="translate(588, 336) scale(3)" fill="rgba(255, 255, 255, 0.15)"></use><use xlink:href="#SvgjsG1966" transform="translate(588, 420) scale(3)" fill="rgba(255, 255, 255, 0.15)"></use><use xlink:href="#SvgjsG1965" transform="translate(588, 504) scale(3)" fill="rgba(255, 255, 255, 0.15)"></use><use xlink:href="#SvgjsG1969" transform="translate(588, 588) scale(3)" fill="rgba(255, 255, 255, 0.15)"></use><use xlink:href="#SvgjsG1965" transform="translate(588, 672) scale(3)" fill="rgba(255, 255, 255, 0.15)"></use><use xlink:href="#SvgjsG1970" transform="translate(672, 0) scale(3)" fill="rgba(255, 255, 255, 0.15)"></use><use xlink:href="#SvgjsG1970" transform="translate(672, 84) scale(3)" fill="rgba(255, 255, 255, 0.15)"></use><use xlink:href="#SvgjsG1967" transform="translate(672, 168) scale(3)" fill="rgba(255, 255, 255, 0.15)"></use><use xlink:href="#SvgjsG1971" transform="translate(672, 252) scale(3)" fill="rgba(255, 255, 255, 0.15)"></use><use xlink:href="#SvgjsG1969" transform="translate(672, 336) scale(3)" fill="rgba(255, 255, 255, 0.15)"></use><use xlink:href="#SvgjsG1971" transform="translate(672, 420) scale(3)" fill="rgba(255, 255, 255, 0.15)"></use><use xlink:href="#SvgjsG1969" transform="translate(672, 504) scale(3)" fill="rgba(255, 255, 255, 0.15)"></use><use xlink:href="#SvgjsG1971" transform="translate(672, 588) scale(3)" fill="rgba(255, 255, 255, 0.15)"></use><use xlink:href="#SvgjsG1972" transform="translate(672, 672) scale(3)" fill="rgba(255, 255, 255, 0.15)"></use><use xlink:href="#SvgjsG1966" transform="translate(756, 0) scale(3)" fill="rgba(255, 255, 255, 0.15)"></use><use xlink:href="#SvgjsG1970" transform="translate(756, 84) scale(3)" fill="rgba(255, 255, 255, 0.15)"></use><use xlink:href="#SvgjsG1972" transform="translate(756, 168) scale(3)" fill="rgba(255, 255, 255, 0.15)"></use><use xlink:href="#SvgjsG1969" transform="translate(756, 252) scale(3)" fill="rgba(255, 255, 255, 0.15)"></use><use xlink:href="#SvgjsG1966" transform="translate(756, 336) scale(3)" fill="rgba(255, 255, 255, 0.15)"></use><use xlink:href="#SvgjsG1966" transform="translate(756, 420) scale(3)" fill="rgba(255, 255, 255, 0.15)"></use><use xlink:href="#SvgjsG1971" transform="translate(756, 504) scale(3)" fill="rgba(255, 255, 255, 0.15)"></use><use xlink:href="#SvgjsG1969" transform="translate(756, 588) scale(3)" fill="rgba(255, 255, 255, 0.15)"></use><use xlink:href="#SvgjsG1969" transform="translate(756, 672) scale(3)" fill="rgba(255, 255, 255, 0.15)"></use></g></defs></svg>