<svg id="visual" viewBox="0 0 960 540" width="960" height="540" xmlns="http://www.w3.org/2000/svg" xmlns:xlink="http://www.w3.org/1999/xlink" version="1.1"><path d="M0 424L17.8 425.7C35.7 427.3 71.3 430.7 106.8 428.7C142.3 426.7 177.7 419.3 213.2 418.5C248.7 417.7 284.3 423.3 320 429.5C355.7 435.7 391.3 442.3 426.8 442.7C462.3 443 497.7 437 533.2 434.2C568.7 431.3 604.3 431.7 640 431.7C675.7 431.7 711.3 431.3 746.8 427.8C782.3 424.3 817.7 417.7 853.2 417.5C888.7 417.3 924.3 423.7 942.2 426.8L960 430L960 541L942.2 541C924.3 541 888.7 541 853.2 541C817.7 541 782.3 541 746.8 541C711.3 541 675.7 541 640 541C604.3 541 568.7 541 533.2 541C497.7 541 462.3 541 426.8 541C391.3 541 355.7 541 320 541C284.3 541 248.7 541 213.2 541C177.7 541 142.3 541 106.8 541C71.3 541 35.7 541 17.8 541L0 541Z" fill="#a6a3ff"></path><path d="M0 446L17.8 451.8C35.7 457.7 71.3 469.3 106.8 475.5C142.3 481.7 177.7 482.3 213.2 481.5C248.7 480.7 284.3 478.3 320 477.7C355.7 477 391.3 478 426.8 477.5C462.3 477 497.7 475 533.2 471.3C568.7 467.7 604.3 462.3 640 462.7C675.7 463 711.3 469 746.8 470.7C782.3 472.3 817.7 469.7 853.2 466.8C888.7 464 924.3 461 942.2 459.5L960 458L960 541L942.2 541C924.3 541 888.7 541 853.2 541C817.7 541 782.3 541 746.8 541C711.3 541 675.7 541 640 541C604.3 541 568.7 541 533.2 541C497.7 541 462.3 541 426.8 541C391.3 541 355.7 541 320 541C284.3 541 248.7 541 213.2 541C177.7 541 142.3 541 106.8 541C71.3 541 35.7 541 17.8 541L0 541Z" fill="#9592ff"></path><path d="M0 499L17.8 495.7C35.7 492.3 71.3 485.7 106.8 487C142.3 488.3 177.7 497.7 213.2 499.2C248.7 500.7 284.3 494.3 320 494.3C355.7 494.3 391.3 500.7 426.8 503.7C462.3 506.7 497.7 506.3 533.2 505C568.7 503.7 604.3 501.3 640 503.3C675.7 505.3 711.3 511.7 746.8 513.8C782.3 516 817.7 514 853.2 512.7C888.7 511.3 924.3 510.7 942.2 510.3L960 510L960 541L942.2 541C924.3 541 888.7 541 853.2 541C817.7 541 782.3 541 746.8 541C711.3 541 675.7 541 640 541C604.3 541 568.7 541 533.2 541C497.7 541 462.3 541 426.8 541C391.3 541 355.7 541 320 541C284.3 541 248.7 541 213.2 541C177.7 541 142.3 541 106.8 541C71.3 541 35.7 541 17.8 541L0 541Z" fill="#8480ff"></path></svg>