<svg id="visual" viewBox="0 0 960 540" width="960" height="540" xmlns="http://www.w3.org/2000/svg" xmlns:xlink="http://www.w3.org/1999/xlink" version="1.1"><path d="M0 445L17.8 441.5C35.7 438 71.3 431 106.8 427.2C142.3 423.3 177.7 422.7 213.2 419.5C248.7 416.3 284.3 410.7 320 412.5C355.7 414.3 391.3 423.7 426.8 427.8C462.3 432 497.7 431 533.2 430C568.7 429 604.3 428 640 428.2C675.7 428.3 711.3 429.7 746.8 425.5C782.3 421.3 817.7 411.7 853.2 411.3C888.7 411 924.3 420 942.2 424.5L960 429L960 541L942.2 541C924.3 541 888.7 541 853.2 541C817.7 541 782.3 541 746.8 541C711.3 541 675.7 541 640 541C604.3 541 568.7 541 533.2 541C497.7 541 462.3 541 426.8 541C391.3 541 355.7 541 320 541C284.3 541 248.7 541 213.2 541C177.7 541 142.3 541 106.8 541C71.3 541 35.7 541 17.8 541L0 541Z" fill="#6260c0"></path><path d="M0 482L17.8 480.3C35.7 478.7 71.3 475.3 106.8 471C142.3 466.7 177.7 461.3 213.2 458.5C248.7 455.7 284.3 455.3 320 452.7C355.7 450 391.3 445 426.8 449.3C462.3 453.7 497.7 467.3 533.2 474.2C568.7 481 604.3 481 640 477.2C675.7 473.3 711.3 465.7 746.8 462.3C782.3 459 817.7 460 853.2 459.5C888.7 459 924.3 457 942.2 456L960 455L960 541L942.2 541C924.3 541 888.7 541 853.2 541C817.7 541 782.3 541 746.8 541C711.3 541 675.7 541 640 541C604.3 541 568.7 541 533.2 541C497.7 541 462.3 541 426.8 541C391.3 541 355.7 541 320 541C284.3 541 248.7 541 213.2 541C177.7 541 142.3 541 106.8 541C71.3 541 35.7 541 17.8 541L0 541Z" fill="#1a3a6f"></path><path d="M0 510L17.8 508.2C35.7 506.3 71.3 502.7 106.8 497.5C142.3 492.3 177.7 485.7 213.2 484.5C248.7 483.3 284.3 487.7 320 489.2C355.7 490.7 391.3 489.3 426.8 491.2C462.3 493 497.7 498 533.2 497.2C568.7 496.3 604.3 489.7 640 489.8C675.7 490 711.3 497 746.8 502C782.3 507 817.7 510 853.2 509.2C888.7 508.3 924.3 503.7 942.2 501.3L960 499L960 541L942.2 541C924.3 541 888.7 541 853.2 541C817.7 541 782.3 541 746.8 541C711.3 541 675.7 541 640 541C604.3 541 568.7 541 533.2 541C497.7 541 462.3 541 426.8 541C391.3 541 355.7 541 320 541C284.3 541 248.7 541 213.2 541C177.7 541 142.3 541 106.8 541C71.3 541 35.7 541 17.8 541L0 541Z" fill="#001122"></path></svg>