<svg xmlns="http://www.w3.org/2000/svg" version="1.1" xmlns:xlink="http://www.w3.org/1999/xlink" xmlns:svgjs="http://svgjs.com/svgjs" width="1440" height="840" preserveAspectRatio="none" viewBox="0 0 1440 840"><g mask="url(&quot;#SvgjsMask1093&quot;)" fill="none"><path d="M1146 732L2058 731" stroke-width="8" stroke="url(#SvgjsLinearGradient1094)" stroke-linecap="round" class="Left"></path><path d="M1156 46L1974 45" stroke-width="6" stroke="url(#SvgjsLinearGradient1094)" stroke-linecap="round" class="Left"></path><path d="M229 597L877 596" stroke-width="6" stroke="url(#SvgjsLinearGradient1094)" stroke-linecap="round" class="Left"></path><path d="M1236 629L1811 628" stroke-width="8" stroke="url(#SvgjsLinearGradient1095)" stroke-linecap="round" class="Right"></path><path d="M993 600L1593 599" stroke-width="6" stroke="url(#SvgjsLinearGradient1095)" stroke-linecap="round" class="Right"></path><path d="M405 664L844 663" stroke-width="6" stroke="url(#SvgjsLinearGradient1095)" stroke-linecap="round" class="Right"></path><path d="M55 24L-438 23" stroke-width="10" stroke="url(#SvgjsLinearGradient1095)" stroke-linecap="round" class="Right"></path><path d="M708 687L1718 686" stroke-width="6" stroke="url(#SvgjsLinearGradient1094)" stroke-linecap="round" class="Left"></path><path d="M495 108L-185 107" stroke-width="10" stroke="url(#SvgjsLinearGradient1094)" stroke-linecap="round" class="Left"></path><path d="M105 672L708 671" stroke-width="6" stroke="url(#SvgjsLinearGradient1095)" stroke-linecap="round" class="Right"></path><path d="M822 99L-160 98" stroke-width="6" stroke="url(#SvgjsLinearGradient1095)" stroke-linecap="round" class="Right"></path><path d="M1012 365L394 364" stroke-width="8" stroke="url(#SvgjsLinearGradient1094)" stroke-linecap="round" class="Left"></path><path d="M1132 757L1755 756" stroke-width="10" stroke="url(#SvgjsLinearGradient1094)" stroke-linecap="round" class="Left"></path><path d="M133 34L619 33" stroke-width="10" stroke="url(#SvgjsLinearGradient1094)" stroke-linecap="round" class="Left"></path><path d="M805 476L-193 475" stroke-width="8" stroke="url(#SvgjsLinearGradient1095)" stroke-linecap="round" class="Right"></path><path d="M950 833L1669 832" stroke-width="8" stroke="url(#SvgjsLinearGradient1095)" stroke-linecap="round" class="Right"></path><path d="M1051 540L-20 539" stroke-width="10" stroke="url(#SvgjsLinearGradient1095)" stroke-linecap="round" class="Right"></path><path d="M353 69L884 68" stroke-width="8" stroke="url(#SvgjsLinearGradient1095)" stroke-linecap="round" class="Right"></path><path d="M766 379L1568 378" stroke-width="8" stroke="url(#SvgjsLinearGradient1094)" stroke-linecap="round" class="Left"></path><path d="M335 153L-194 152" stroke-width="8" stroke="url(#SvgjsLinearGradient1095)" stroke-linecap="round" class="Right"></path><path d="M484 404L-438 403" stroke-width="10" stroke="url(#SvgjsLinearGradient1094)" stroke-linecap="round" class="Left"></path></g><defs><mask id="SvgjsMask1093"><rect width="1440" height="840" fill="#ffffff"></rect></mask><linearGradient x1="100%" y1="0%" x2="0%" y2="0%" id="SvgjsLinearGradient1094"><stop stop-color="rgba(102, 184, 255, 0)" offset="0"></stop><stop stop-color="rgba(102, 184, 255, 0.5)" offset="1"></stop></linearGradient><linearGradient x1="0%" y1="0%" x2="100%" y2="0%" id="SvgjsLinearGradient1095"><stop stop-color="rgba(102, 184, 255, 0)" offset="0"></stop><stop stop-color="rgba(102, 184, 255, 0.5)" offset="1"></stop></linearGradient></defs></svg>