<?xml version="1.0" encoding="iso-8859-1"?>
<!-- Generator: Adobe Illustrator 19.0.0, SVG Export Plug-In . SVG Version: 6.00 Build 0)  -->
<svg version="1.1" id="Layer_1" xmlns="http://www.w3.org/2000/svg" xmlns:xlink="http://www.w3.org/1999/xlink" x="0px" y="0px"
	 viewBox="0 0 491.537 491.537" style="enable-background:new 0 0 491.537 491.537;" xml:space="preserve">
<g>
	<path style="fill:#91DC5A;" d="M245.768,116.773V0l-9.516,5.148c-46.067,24.921-73.57,66.65-73.57,111.625
		c0,41.446,23.37,80.123,63.086,105.443V116.773H245.768z"/>
	<path style="fill:#6DC82A;" d="M265.768,116.773v105.443c39.717-25.319,63.086-63.997,63.086-105.443
		c0-44.975-27.503-86.704-73.57-111.625L245.768,0v116.773H265.768z"/>
	<path style="fill:#91DC5A;" d="M373.386,238.221l85.608-50.888l-9.288-5.55c-20.011-11.957-41.657-18.277-62.599-18.277
		c-17.854,0-34.414,4.462-49.216,13.261c-29.396,17.474-47.198,49.969-48.988,88.406l74.263-44.144L373.386,238.221z"/>
	<path style="fill:#6DC82A;" d="M383.606,255.413l-74.251,44.137c16.888,8.184,34.602,12.476,51.84,12.476
		c17.854,0,34.415-4.462,49.217-13.261c32.463-19.297,50.789-56.913,49.021-100.622l-0.438-10.811l-85.608,50.888L383.606,255.413z"
		/>
	<path style="fill:#6DC82A;" d="M118.15,238.221l-85.608-50.888l-0.438,10.811c-1.768,43.709,16.557,81.324,49.021,100.622
		c14.803,8.8,31.362,13.261,49.217,13.261c17.238,0,34.952-4.292,51.84-12.476l-74.251-44.137L118.15,238.221z"/>
	<path style="fill:#91DC5A;" d="M128.369,221.029l74.263,44.144c-1.789-38.438-19.592-70.932-48.988-88.406
		c-14.803-8.8-31.362-13.261-49.216-13.261c-20.941,0-42.588,6.32-62.599,18.277l-9.288,5.55l85.608,50.888L128.369,221.029z"/>
	<path style="fill:#00665A;" d="M265.768,348.942v-23.483l43.586-25.909l74.251-44.137l-10.219-17.192l-10.219-17.192
		l-74.263,44.144l-23.136,13.753v-56.711V116.773h-20h-20v105.443v56.711l-23.136-13.753l-74.263-44.144l-10.219,17.192
		l-10.219,17.192l74.251,44.137l43.586,25.909v23.483c6.594-0.932,13.276-1.41,20-1.41S259.174,348.01,265.768,348.942z"/>
	<path style="fill:#B39A7C;" d="M245.768,347.532c-6.724,0-13.406,0.478-20,1.41c-28.852,4.077-56.008,16.874-77.544,36.676
		c-5.478-0.857-11.015-1.289-16.559-1.289c-59.115,0-107.208,48.093-107.208,107.208h221.311V347.532z"/>
	<path style="fill:#A78966;" d="M359.872,384.329c-5.545,0-11.081,0.432-16.56,1.289c-21.536-19.802-48.692-32.6-77.544-36.677
		c-6.594-0.932-13.276-1.41-20-1.41v144.005H467.08C467.08,432.423,418.986,384.329,359.872,384.329z"/>
</g>
<g>
</g>
<g>
</g>
<g>
</g>
<g>
</g>
<g>
</g>
<g>
</g>
<g>
</g>
<g>
</g>
<g>
</g>
<g>
</g>
<g>
</g>
<g>
</g>
<g>
</g>
<g>
</g>
<g>
</g>
</svg>
