<svg xmlns="http://www.w3.org/2000/svg" version="1.1" xmlns:xlink="http://www.w3.org/1999/xlink" xmlns:svgjs="http://svgjs.com/svgjs" width="1440" height="560" preserveAspectRatio="none" viewBox="0 0 1440 560"><g mask="url(&quot;#SvgjsMask1046&quot;)" fill="none"><path d="M 0,27 C 96,45.6 288,109 480,120 C 672,131 768,85 960,82 C 1152,79 1344,100.4 1440,105L1440 560L0 560z" fill="rgba(255, 255, 255, 0)"></path><path d="M 0,233 C 57.6,251.6 172.8,321.6 288,326 C 403.2,330.4 460.8,247.6 576,255 C 691.2,262.4 748.8,370.4 864,363 C 979.2,355.6 1036.8,224.6 1152,218 C 1267.2,211.4 1382.4,307.6 1440,330L1440 560L0 560z" fill="rgba(36, 153, 255, 1)"></path><path d="M 0,469 C 48,462.8 144,424.6 240,438 C 336,451.4 384,531.4 480,536 C 576,540.6 624,473.4 720,461 C 816,448.6 864,477.2 960,474 C 1056,470.8 1104,441 1200,445 C 1296,449 1392,484.2 1440,494L1440 560L0 560z" fill="rgba(0, 128, 240, 1)"></path></g><defs><mask id="SvgjsMask1046"><rect width="1440" height="560" fill="#ffffff"></rect></mask></defs></svg>