<svg xmlns="http://www.w3.org/2000/svg" version="1.1" xmlns:xlink="http://www.w3.org/1999/xlink" xmlns:svgjs="http://svgjs.com/svgjs" width="1440" height="500" preserveAspectRatio="none" viewBox="0 0 1440 500"><g mask="url(&quot;#SvgjsMask1034&quot;)" fill="none"><path d="M 0,64 C 96,61.4 288,46 480,51 C 672,56 768,99.2 960,89 C 1152,78.8 1344,17.8 1440,0L1440 500L0 500z" fill="rgba(255, 255, 255, 0)"></path><path d="M 0,136 C 96,146.6 288,180.4 480,189 C 672,197.6 768,173.2 960,179 C 1152,184.8 1344,210.2 1440,218L1440 500L0 500z" fill="rgba(255, 255, 255, 0)"></path><path d="M 0,284 C 57.6,295.2 172.8,346.8 288,340 C 403.2,333.2 460.8,245.6 576,250 C 691.2,254.4 748.8,353.8 864,362 C 979.2,370.2 1036.8,296 1152,291 C 1267.2,286 1382.4,327.8 1440,337L1440 500L0 500z" fill="rgba(36, 153, 255, 0.53)"></path><path d="M 0,387 C 48,404.6 144,473 240,475 C 336,477 384,395 480,397 C 576,399 624,486.6 720,485 C 816,483.4 864,387.2 960,389 C 1056,390.8 1104,487.2 1200,494 C 1296,500.8 1392,437.2 1440,423L1440 500L0 500z" fill="rgba(36, 153, 255, 1)"></path></g><defs><mask id="SvgjsMask1034"><rect width="1440" height="500" fill="#ffffff"></rect></mask></defs></svg>